SplineFontDB: 3.0
FontName: KAN-BadamiBold
FullName: KAN Badami Bold
FamilyName: KAN Badami
Weight: Bold
Copyright: Copyright (c) 2009-2015, NLCI (http://www.nlci.in/fonts/)
Version: 1.0 Sat Apr 29 14:51:32 1995
ItalicAngle: 0
UnderlinePosition: -290
UnderlineWidth: 20
Ascent: 800
Descent: 200
InvalidEm: 0
LayerCount: 2
Layer: 0 0 "Back" 1
Layer: 1 0 "Fore" 0
XUID: [1021 240 25334161 2440652]
FSType: 0
OS2Version: 0
OS2_WeightWidthSlopeOnly: 0
OS2_UseTypoMetrics: 1
CreationTime: 1250825672
ModificationTime: 1533324710
PfmFamily: 81
TTFWeight: 700
TTFWidth: 5
LineGap: 0
VLineGap: 0
Panose: 2 0 0 3 0 0 0 0 0 0
OS2TypoAscent: -72
OS2TypoAOffset: 1
OS2TypoDescent: -196
OS2TypoDOffset: 1
OS2TypoLinegap: 0
OS2WinAscent: -117
OS2WinAOffset: 1
OS2WinDescent: -155
OS2WinDOffset: 1
HheadAscent: -117
HheadAOffset: 1
HheadDescent: 155
HheadDOffset: 1
OS2SubXSize: 700
OS2SubYSize: 650
OS2SubXOff: 0
OS2SubYOff: 143
OS2SupXSize: 700
OS2SupYSize: 650
OS2SupXOff: 0
OS2SupYOff: 453
OS2StrikeYSize: 50
OS2StrikeYPos: 259
OS2Vendor: 'Alts'
OS2UnicodeRanges: 00000000.00000000.00000000.00000000
Lookup: 262 0 0 "blwm" { "blwm-2sub"  } []
MarkAttachClasses: 1
DEI: 91125
TtTable: prep
NPUSHB
 1
 1
SCANTYPE
PUSHW_1
 511
SCANCTRL
EndTTInstrs
ShortTable: maxp 16
  1
  0
  319
  150
  6
  188
  8
  2
  8
  64
  10
  0
  3
  417
  4
  2
EndShort
LangName: 1033 "" "" "Bold" "NLCI:KAN Badami Bold" "" "1.0 Sat Apr 29 14:51:32 1995"
Encoding: Original
UnicodeInterp: none
NameList: Adobe Glyph List
DisplaySize: -48
AntiAlias: 1
FitToEm: 1
BeginPrivate: 0
EndPrivate
AnchorClass2: "Sub" "blwm-2sub" "Nukta"""  "s"""  "V""" 
BeginChars: 614 614

StartChar: .notdef
Encoding: 0 -1 0
Width: 500
Flags: HW
LayerCount: 2
Fore
SplineSet
31 0 m 1
 31 627 l 1
 469 627 l 1
 469 0 l 1
 31 0 l 1
438 31 m 1
 438 596 l 1
 62 596 l 1
 62 31 l 1
 438 31 l 1
EndSplineSet
EndChar

StartChar: exclam
Encoding: 4 33 4
Width: 321
VWidth: 500
Flags: HW
LayerCount: 2
Fore
SplineSet
192 205 m 0
 189.333007812 203 185.666992188 201 181 199 c 0
 176.333007812 197 171.333007812 195.166992188 166 193.5 c 0
 160.666992188 191.833007812 155.5 190.5 150.5 189.5 c 0
 145.5 188.5 141 187.333007812 137 186 c 0
 123 196 l 0
 80 663 l 0
 87.3330078125 667 97 672 109 678 c 0
 121 684 133.333007812 689.833007812 146 695.5 c 0
 158.666992188 701.166992188 170.833007812 706.5 182.5 711.5 c 0
 194.166992188 716.5 203.333007812 720.333007812 210 723 c 0
 236 706 l 0
 192 205 l 0
246 65 m 0
 246 51 243.333007812 38.8330078125 238 28.5 c 0
 232.666992188 18.1669921875 225.666992188 9.5 217 2.5 c 0
 208.333007812 -4.5 198.166992188 -10 186.5 -14 c 0
 174.833007812 -18 162.333007812 -20 149 -20 c 0
 139 -20 129.333007812 -18.6669921875 120 -16 c 0
 110.666992188 -13.3330078125 102.333007812 -9.1669921875 95 -3.5 c 0
 87.6669921875 2.1669921875 81.8330078125 9.3330078125 77.5 18 c 0
 73.1669921875 26.6669921875 71 37.3330078125 71 50 c 0
 71 63.3330078125 73.6669921875 75.3330078125 79 86 c 0
 84.3330078125 96.6669921875 91.5 105.666992188 100.5 113 c 0
 109.5 120.333007812 119.833007812 125.833007812 131.5 129.5 c 0
 143.166992188 133.166992188 155.333007812 135 168 135 c 0
 177.333007812 135 186.666992188 133.666992188 196 131 c 0
 205.333007812 128.333007812 213.666992188 124.166992188 221 118.5 c 0
 228.333007812 112.833007812 234.333007812 105.666992188 239 97 c 0
 243.666992188 88.3330078125 246 77.6669921875 246 65 c 0
EndSplineSet
EndChar

StartChar: quotedbl
Encoding: 5 34 5
Width: 483
VWidth: 500
Flags: HW
LayerCount: 2
Fore
SplineSet
379 407 m 0
 376.333007812 405.666992188 372.166992188 404.333007812 366.5 403 c 0
 360.833007812 401.666992188 354.666992188 400.5 348 399.5 c 0
 341.333007812 398.5 334.833007812 397.833007812 328.5 397.5 c 0
 322.166992188 397.166992188 317 397 313 397 c 0
 268 677 l 0
 270 678.333007812 274.333007812 680.333007812 281 683 c 0
 287.666992188 685.666992188 295.333007812 688.666992188 304 692 c 0
 312.666992188 695.333007812 321.833007812 698.666992188 331.5 702 c 0
 341.166992188 705.333007812 350.166992188 708.5 358.5 711.5 c 0
 366.833007812 714.5 374.333007812 717 381 719 c 0
 387.666992188 721 392 722.333007812 394 723 c 0
 420 708 l 0
 379 407 l 0
175 407 m 0
 172.333007812 405.666992188 168.166992188 404.333007812 162.5 403 c 0
 156.833007812 401.666992188 150.666992188 400.5 144 399.5 c 0
 137.333007812 398.5 130.833007812 397.833007812 124.5 397.5 c 0
 118.166992188 397.166992188 113 397 109 397 c 0
 63 677 l 0
 65 678.333007812 69.5 680.333007812 76.5 683 c 0
 83.5 685.666992188 91.3330078125 688.666992188 100 692 c 0
 108.666992188 695.333007812 117.833007812 698.666992188 127.5 702 c 0
 137.166992188 705.333007812 146.166992188 708.5 154.5 711.5 c 0
 162.833007812 714.5 170.333007812 717 177 719 c 0
 183.666992188 721 188 722.333007812 190 723 c 0
 216 708 l 0
 175 407 l 0
EndSplineSet
EndChar

StartChar: numbersign
Encoding: 6 35 6
Width: 518
VWidth: 500
Flags: HW
LayerCount: 2
Fore
SplineSet
222 298 m 0
 305 298 l 0
 334 403 l 0
 252 403 l 0
 222 298 l 0
430 479 m 0
 506 479 l 0
 519 467 l 0
 518.333007812 463.666992188 516.833007812 458.833007812 514.5 452.5 c 0
 512.166992188 446.166992188 509.666992188 439.833007812 507 433.5 c 0
 504.333007812 427.166992188 501.833007812 421.166992188 499.5 415.5 c 0
 497.166992188 409.833007812 495.333007812 405.666992188 494 403 c 0
 409 403 l 0
 378 298 l 0
 455 298 l 0
 465 285 l 0
 464.333007812 281.666992188 463 277 461 271 c 0
 459 265 456.833007812 258.833007812 454.5 252.5 c 0
 452.166992188 246.166992188 449.833007812 240.333007812 447.5 235 c 0
 445.166992188 229.666992188 443.333007812 225.333007812 442 222 c 0
 357 222 l 0
 317 83 l 0
 314.333007812 81 310.166992188 79 304.5 77 c 0
 298.833007812 75 293 73 287 71 c 0
 269 66 l 0
 263 64.6669921875 257.666992188 63.3330078125 253 62 c 0
 240 72 l 0
 283 222 l 0
 201 222 l 0
 161 83 l 0
 158.333007812 81 154.166992188 79 148.5 77 c 0
 142.833007812 75 137 73.1669921875 131 71.5 c 0
 122 69 122 69 113 66.5 c 0
 107 64.8330078125 101.666992188 63.3330078125 97 62 c 0
 84 72 l 0
 127 222 l 0
 43 222 l 0
 33 234 l 0
 33.6669921875 237.333007812 35 241.833007812 37 247.5 c 0
 39 253.166992188 41.1669921875 259.166992188 43.5 265.5 c 0
 45.8330078125 271.833007812 48.3330078125 278 51 284 c 0
 53.6669921875 290 55.6669921875 294.666992188 57 298 c 0
 149 298 l 0
 179 403 l 0
 97 403 l 0
 84 415 l 0
 84.6669921875 418.333007812 86.1669921875 423 88.5 429 c 0
 90.8330078125 435 93.3330078125 441.166992188 96 447.5 c 0
 98.6669921875 453.833007812 101.166992188 459.833007812 103.5 465.5 c 0
 105.833007812 471.166992188 107.666992188 475.666992188 109 479 c 0
 201 479 l 0
 238 611 l 0
 241.333007812 613.666992188 245.833007812 615.833007812 251.5 617.5 c 0
 257.166992188 619.166992188 263.166992188 620.833007812 269.5 622.5 c 0
 275.833007812 624.166992188 281.666992188 625.5 287 626.5 c 0
 292.333007812 627.5 297 629 301 631 c 0
 315 620 l 0
 274 479 l 0
 356 479 l 0
 394 611 l 0
 397.333007812 613.666992188 401.833007812 615.833007812 407.5 617.5 c 0
 413.166992188 619.166992188 419.166992188 620.833007812 425.5 622.5 c 0
 431.833007812 624.166992188 437.833007812 625.5 443.5 626.5 c 0
 449.166992188 627.5 454 629 458 631 c 0
 471 620 l 0
 430 479 l 0
EndSplineSet
EndChar

StartChar: dollar
Encoding: 7 36 7
Width: 518
VWidth: 500
Flags: HW
LayerCount: 2
Fore
SplineSet
289 -60 m 0
 283 -65.3330078125 276 -70.3330078125 268 -75 c 0
 260 -79.6669921875 252 -83 244 -85 c 0
 226 -69 l 0
 226 -4 l 0
 212.666992188 -3.3330078125 198 -1.5 182 1.5 c 0
 166 4.5 149.833007812 8.6669921875 133.5 14 c 0
 117.166992188 19.3330078125 101 25.5 85 32.5 c 0
 69 39.5 54 47.6669921875 40 57 c 0
 38.6669921875 57.6669921875 37.6669921875 61.1669921875 37 67.5 c 0
 36.3330078125 73.8330078125 35.8330078125 81.6669921875 35.5 91 c 0
 35.1669921875 100.333007812 35.1669921875 110.666992188 35.5 122 c 0
 35.8330078125 133.333007812 36.5 144.5 37.5 155.5 c 0
 38.5 166.5 39.5 176.833007812 40.5 186.5 c 0
 41.5 196.166992188 43 204 45 210 c 0
 85 208 l 0
 93 191.333007812 101.666992188 175.666992188 111 161 c 0
 120.333007812 146.333007812 130.666992188 133 142 121 c 0
 153.333007812 109 165.833007812 98.8330078125 179.5 90.5 c 0
 193.166992188 82.1669921875 208.666992188 76 226 72 c 0
 226 274 l 0
 204 282 181.666992188 290.166992188 159 298.5 c 0
 136.333007812 306.833007812 116.166992188 317.166992188 98.5 329.5 c 0
 80.8330078125 341.833007812 66.3330078125 356.666992188 55 374 c 0
 43.6669921875 391.333007812 38 413.333007812 38 440 c 0
 38 454 41 469.166992188 47 485.5 c 0
 53 501.833007812 63.3330078125 517.333007812 78 532 c 0
 92.6669921875 546.666992188 112 559.333007812 136 570 c 0
 160 580.666992188 190 587.666992188 226 591 c 0
 226 652 l 0
 230.666992188 654.666992188 234.666992188 657.166992188 238 659.5 c 0
 241.333007812 661.833007812 244.666992188 664 248 666 c 0
 251.333007812 668 254.833007812 669.833007812 258.5 671.5 c 0
 262.166992188 673.166992188 266.333007812 674.666992188 271 676 c 0
 289 660 l 0
 289 592 l 0
 307 590.666992188 324.833007812 588.333007812 342.5 585 c 0
 360.166992188 581.666992188 376.666992188 577.5 392 572.5 c 0
 407.333007812 567.5 421 562.166992188 433 556.5 c 0
 445 550.833007812 453.666992188 545 459 539 c 0
 460.333007812 537.666992188 460.666992188 534.166992188 460 528.5 c 0
 459.333007812 522.833007812 458 516 456 508 c 0
 454 500 451.5 491.5 448.5 482.5 c 0
 445.5 473.5 442.166992188 464.833007812 438.5 456.5 c 0
 434.833007812 448.166992188 431.333007812 440.833007812 428 434.5 c 0
 424.666992188 428.166992188 421.333007812 423.666992188 418 421 c 0
 380 425 l 0
 370 450.333007812 357.666992188 471.5 343 488.5 c 0
 328.333007812 505.5 310.333007812 517.333007812 289 524 c 0
 289 361 l 0
 311.666992188 353 334.333007812 344.333007812 357 335 c 0
 379.666992188 325.666992188 400 314.166992188 418 300.5 c 0
 436 286.833007812 450.666992188 270.333007812 462 251 c 0
 473.333007812 231.666992188 479 207.666992188 479 179 c 0
 479 159.666992188 475.666992188 140.166992188 469 120.5 c 0
 462.333007812 100.833007812 451.5 82.8330078125 436.5 66.5 c 0
 421.5 50.1669921875 401.833007812 35.8330078125 377.5 23.5 c 0
 353.166992188 11.1669921875 323.666992188 3 289 -1 c 0
 289 -60 l 0
365 153 m 0
 365 165 363.166992188 175.833007812 359.5 185.5 c 0
 355.833007812 195.166992188 350.5 203.833007812 343.5 211.5 c 0
 336.5 219.166992188 328.333007812 226 319 232 c 0
 309.666992188 238 299.666992188 243.666992188 289 249 c 0
 289 71 l 0
 299 72.3330078125 308.666992188 75 318 79 c 0
 327.333007812 83 335.5 88.3330078125 342.5 95 c 0
 349.5 101.666992188 355 109.833007812 359 119.5 c 0
 363 129.166992188 365 140.333007812 365 153 c 0
149 463 m 0
 149 453.666992188 150.833007812 445.166992188 154.5 437.5 c 0
 158.166992188 429.833007812 163.5 422.833007812 170.5 416.5 c 0
 177.5 410.166992188 185.666992188 404.333007812 195 399 c 0
 204.333007812 393.666992188 214.666992188 388.666992188 226 384 c 0
 226 529 l 0
 202.666992188 526.333007812 184 518.833007812 170 506.5 c 0
 156 494.166992188 149 479.666992188 149 463 c 0
EndSplineSet
EndChar

StartChar: percent
Encoding: 8 37 8
Width: 740
VWidth: 500
Flags: HW
LayerCount: 2
Fore
SplineSet
347 438 m 0
 347 415.333007812 343 393.833007812 335 373.5 c 0
 327 353.166992188 315.833007812 335.5 301.5 320.5 c 0
 287.166992188 305.5 269.833007812 293.5 249.5 284.5 c 0
 229.166992188 275.5 206.666992188 271 182 271 c 0
 157.333007812 271 135 275.5 115 284.5 c 0
 95 293.5 78.1669921875 305.5 64.5 320.5 c 0
 50.8330078125 335.5 40.3330078125 353.166992188 33 373.5 c 0
 25.6669921875 393.833007812 22 415.333007812 22 438 c 0
 22 460.666992188 25.6669921875 482.166992188 33 502.5 c 0
 40.3330078125 522.833007812 51.1669921875 540.5 65.5 555.5 c 0
 79.8330078125 570.5 97.1669921875 582.5 117.5 591.5 c 0
 137.833007812 600.5 161.333007812 605 188 605 c 0
 214 605 236.833007812 600.666992188 256.5 592 c 0
 276.166992188 583.333007812 292.666992188 571.333007812 306 556 c 0
 319.333007812 540.666992188 329.5 522.833007812 336.5 502.5 c 0
 343.5 482.166992188 347 460.666992188 347 438 c 0
237 428 m 0
 237 476 232 511.5 222 534.5 c 0
 212 557.5 198.666992188 569 182 569 c 0
 173.333007812 569 165.833007812 567 159.5 563 c 0
 153.166992188 559 148 552.166992188 144 542.5 c 0
 140 532.833007812 137 520.333007812 135 505 c 0
 133 489.666992188 132 471 132 449 c 0
 132 400.333007812 136.666992188 364.5 146 341.5 c 0
 155.333007812 318.5 169.333007812 307 188 307 c 0
 196.666992188 307 204.166992188 309.166992188 210.5 313.5 c 0
 216.833007812 317.833007812 221.833007812 324.833007812 225.5 334.5 c 0
 229.166992188 344.166992188 232 356.666992188 234 372 c 0
 236 387.333007812 237 406 237 428 c 0
185 1 m 0
 181 -1 175.833007812 -2.6669921875 169.5 -4 c 0
 163.166992188 -5.3330078125 156.333007812 -6.6669921875 149 -8 c 0
 141.666992188 -9.3330078125 134.5 -10.5 127.5 -11.5 c 0
 120.5 -12.5 114.666992188 -13.6669921875 110 -15 c 0
 98 0 l 0
 553 587 l 0
 556.333007812 588.333007812 561.333007812 589.833007812 568 591.5 c 0
 574.666992188 593.166992188 581.666992188 594.666992188 589 596 c 0
 596.333007812 597.333007812 603.5 598.666992188 610.5 600 c 0
 617.5 601.333007812 622.666992188 602.333007812 626 603 c 0
 638 589 l 0
 185 1 l 0
718 151 m 0
 718 128.333007812 714 107 706 87 c 0
 698 67 686.833007812 49.3330078125 672.5 34 c 0
 658.166992188 18.6669921875 640.833007812 6.6669921875 620.5 -2 c 0
 600.166992188 -10.6669921875 577.666992188 -15 553 -15 c 0
 528.333007812 -15 506.166992188 -10.6669921875 486.5 -2 c 0
 466.833007812 6.6669921875 450.166992188 18.6669921875 436.5 34 c 0
 422.833007812 49.3330078125 412.333007812 67 405 87 c 0
 397.666992188 107 394 128.333007812 394 151 c 0
 394 173.666992188 397.666992188 195.166992188 405 215.5 c 0
 412.333007812 235.833007812 423 253.666992188 437 269 c 0
 451 284.333007812 468.333007812 296.333007812 489 305 c 0
 509.666992188 313.666992188 533 318 559 318 c 0
 585 318 607.833007812 313.666992188 627.5 305 c 0
 647.166992188 296.333007812 663.666992188 284.5 677 269.5 c 0
 690.333007812 254.5 700.5 236.666992188 707.5 216 c 0
 714.5 195.333007812 718 173.666992188 718 151 c 0
608 142 m 0
 608 190 603 225.5 593 248.5 c 0
 583 271.5 569.666992188 283 553 283 c 0
 544.333007812 283 536.833007812 280.833007812 530.5 276.5 c 0
 524.166992188 272.166992188 519 265.333007812 515 256 c 0
 511 246.666992188 508 234.333007812 506 219 c 0
 504 203.666992188 503 185 503 163 c 0
 503 114.333007812 507.666992188 78.5 517 55.5 c 0
 526.333007812 32.5 540.333007812 21 559 21 c 0
 567.666992188 21 575.166992188 23 581.5 27 c 0
 587.833007812 31 593 37.8330078125 597 47.5 c 0
 601 57.1669921875 603.833007812 69.8330078125 605.5 85.5 c 0
 607.166992188 101.166992188 608 120 608 142 c 0
EndSplineSet
EndChar

StartChar: ampersand
Encoding: 9 38 9
Width: 701
VWidth: 500
Flags: HW
LayerCount: 2
Fore
SplineSet
701 365 m 0
 697 360.333007812 692.5 354.666992188 687.5 348 c 0
 682.5 341.333007812 677.333007812 334.666992188 672 328 c 0
 666.666992188 321.333007812 661.5 315.333007812 656.5 310 c 0
 651.5 304.666992188 647 300.333007812 643 297 c 0
 631 302.333007812 618.333007812 307.666992188 605 313 c 0
 591.666992188 318.333007812 579.666992188 321.333007812 569 322 c 0
 575.666992188 313.333007812 580 304.166992188 582 294.5 c 0
 584 284.833007812 585 275 585 265 c 0
 585 243.666992188 580.166992188 221.166992188 570.5 197.5 c 0
 560.833007812 173.833007812 547 150.333007812 529 127 c 0
 539.666992188 117.666992188 550.333007812 109 561 101 c 0
 579 85.6669921875 597.666992188 76.1669921875 617 72.5 c 0
 636.333007812 68.8330078125 653.666992188 68.6669921875 669 72 c 0
 678 32 l 0
 664 26 648.666992188 20 632 14 c 0
 615.333007812 8 599.5 3 584.5 -1 c 0
 569.5 -5 556.333007812 -8.3330078125 545 -11 c 0
 533.666992188 -13.6669921875 526.333007812 -15 523 -15 c 0
 514.333007812 -15 502 -10.3330078125 486 -1 c 0
 470 8.3330078125 451.666992188 21.6669921875 431 39 c 0
 405 23 377 10 347 0 c 0
 317 -10 285.666992188 -15 253 -15 c 0
 217.666992188 -15 186 -11 158 -3 c 0
 130 5 106.5 16.8330078125 87.5 32.5 c 0
 68.5 48.1669921875 54 67.6669921875 44 91 c 0
 34 114.333007812 29 141.333007812 29 172 c 0
 29 205.333007812 39.5 238.833007812 60.5 272.5 c 0
 81.5 306.166992188 115.333007812 340.333007812 162 375 c 0
 150.666992188 400.333007812 141.666992188 425.5 135 450.5 c 0
 128.333007812 475.5 125 500 125 524 c 0
 125 550.666992188 130.333007812 575.166992188 141 597.5 c 0
 151.666992188 619.833007812 166.166992188 639.166992188 184.5 655.5 c 0
 202.833007812 671.833007812 224.333007812 684.666992188 249 694 c 0
 273.666992188 703.333007812 300 708 328 708 c 0
 354 708 376.333007812 704.666992188 395 698 c 0
 413.666992188 691.333007812 429.166992188 682.5 441.5 671.5 c 0
 453.833007812 660.5 463 647.666992188 469 633 c 0
 475 618.333007812 478 603.333007812 478 588 c 0
 478 571.333007812 473.166992188 553.833007812 463.5 535.5 c 0
 453.833007812 517.166992188 441.333007812 499.5 426 482.5 c 0
 410.666992188 465.5 393.333007812 449.166992188 374 433.5 c 0
 354.666992188 417.833007812 335.333007812 404 316 392 c 0
 308 386 l 0
 318.666992188 368 330.333007812 350.166992188 343 332.5 c 0
 355.666992188 314.833007812 369 297.5 383 280.5 c 0
 397 263.5 411.5 246.833007812 426.5 230.5 c 0
 441.5 214.166992188 456.333007812 198.666992188 471 184 c 0
 476.333007812 194.666992188 480.333007812 205 483 215 c 0
 485.666992188 225 487 235 487 245 c 0
 487 259 485 271.166992188 481 281.5 c 0
 477 291.833007812 471.5 300.5 464.5 307.5 c 0
 457.5 314.5 449.666992188 320 441 324 c 0
 432.333007812 328 423.333007812 330 414 330 c 0
 398 348 l 0
 399.333007812 350 402 353 406 357 c 0
 410 361 414.166992188 365 418.5 369 c 0
 422.833007812 373 427.333007812 376.833007812 432 380.5 c 0
 436.666992188 384.166992188 440.666992188 386.666992188 444 388 c 0
 685 388 l 0
 701 365 l 0
287 61 m 0
 302.333007812 61 317.5 63.1669921875 332.5 67.5 c 0
 347.5 71.8330078125 362 78 376 86 c 0
 361.333007812 100 346.5 115 331.5 131 c 0
 316.5 147 301.666992188 163.833007812 287 181.5 c 0
 272.333007812 199.166992188 258 217.5 244 236.5 c 0
 230 255.5 217 274.666992188 205 294 c 0
 192.333007812 276 183.666992188 258 179 240 c 0
 174.333007812 222 172 202.666992188 172 182 c 0
 172 159.333007812 175.5 140.333007812 182.5 125 c 0
 189.5 109.666992188 198.5 97.1669921875 209.5 87.5 c 0
 220.5 77.8330078125 232.833007812 71 246.5 67 c 0
 260.166992188 63 273.666992188 61 287 61 c 0
251 552 m 0
 251 535.333007812 253.166992188 518.333007812 257.5 501 c 0
 261.833007812 483.666992188 268 465.666992188 276 447 c 0
 289.333007812 455.666992188 300.5 465.166992188 309.5 475.5 c 0
 318.5 485.833007812 325.666992188 496.333007812 331 507 c 0
 336.333007812 517.666992188 340.166992188 528.666992188 342.5 540 c 0
 344.833007812 551.333007812 346 562 346 572 c 0
 346 583.333007812 344.5 593.333007812 341.5 602 c 0
 338.5 610.666992188 334.833007812 617.833007812 330.5 623.5 c 0
 326.166992188 629.166992188 321 633.5 315 636.5 c 0
 309 639.5 303 641 297 641 c 0
 289 641 282.166992188 638.666992188 276.5 634 c 0
 270.833007812 629.333007812 266 623.166992188 262 615.5 c 0
 258 607.833007812 255.166992188 598.5 253.5 587.5 c 0
 251.833007812 576.5 251 564.666992188 251 552 c 0
EndSplineSet
EndChar

StartChar: quotesingle
Encoding: 10 39 10
Width: 279
VWidth: 500
Flags: HW
LayerCount: 2
Fore
SplineSet
175 407 m 0
 172.333007812 405.666992188 168.166992188 404.333007812 162.5 403 c 0
 156.833007812 401.666992188 150.666992188 400.5 144 399.5 c 0
 137.333007812 398.5 130.833007812 397.833007812 124.5 397.5 c 0
 118.166992188 397.166992188 113 397 109 397 c 0
 63 677 l 0
 65 678.333007812 69.5 680.333007812 76.5 683 c 0
 83.5 685.666992188 91.3330078125 688.666992188 100 692 c 0
 108.666992188 695.333007812 117.833007812 698.666992188 127.5 702 c 0
 137.166992188 705.333007812 146.166992188 708.5 154.5 711.5 c 0
 162.833007812 714.5 170.333007812 717 177 719 c 0
 183.666992188 721 188 722.333007812 190 723 c 0
 216 708 l 0
 175 407 l 0
EndSplineSet
EndChar

StartChar: parenleft
Encoding: 11 40 11
Width: 336
VWidth: 500
Flags: HW
LayerCount: 2
Fore
SplineSet
297 -154 m 0
 213.666992188 -108 151.5 -46 110.5 32 c 0
 69.5 110 49 200.666992188 49 304 c 0
 49 357.333007812 54.6669921875 407.833007812 66 455.5 c 0
 77.3330078125 503.166992188 93.6669921875 547.166992188 115 587.5 c 0
 136.333007812 627.833007812 162.333007812 664.333007812 193 697 c 0
 223.666992188 729.666992188 258.333007812 757.666992188 297 781 c 0
 327 740 l 0
 308.333007812 720 290.833007812 696.5 274.5 669.5 c 0
 258.166992188 642.5 243.666992188 611.666992188 231 577 c 0
 218.333007812 542.333007812 208.5 503.5 201.5 460.5 c 0
 194.5 417.5 191 370 191 318 c 0
 191 222 202.333007812 137.833007812 225 65.5 c 0
 247.666992188 -6.8330078125 281.666992188 -66 327 -112 c 0
 297 -154 l 0
EndSplineSet
EndChar

StartChar: parenright
Encoding: 12 41 12
Width: 336
VWidth: 500
Flags: HW
LayerCount: 2
Fore
SplineSet
288 323 m 0
 288 269.666992188 282.333007812 219.166992188 271 171.5 c 0
 259.666992188 123.833007812 243.333007812 79.8330078125 222 39.5 c 0
 200.666992188 -0.8330078125 174.666992188 -37.3330078125 144 -70 c 0
 113.333007812 -102.666992188 79 -130.666992188 41 -154 c 0
 10 -113 l 0
 28.6669921875 -93 46.3330078125 -69.5 63 -42.5 c 0
 79.6669921875 -15.5 94.1669921875 15.3330078125 106.5 50 c 0
 118.833007812 84.6669921875 128.5 123.333007812 135.5 166 c 0
 142.5 208.666992188 146 256.333007812 146 309 c 0
 146 405 134.666992188 489.166992188 112 561.5 c 0
 89.3330078125 633.833007812 55.3330078125 693 10 739 c 0
 41 781 l 0
 124.333007812 735 186.333007812 673 227 595 c 0
 267.666992188 517 288 426.333007812 288 323 c 0
EndSplineSet
EndChar

StartChar: asterisk
Encoding: 13 42 13
Width: 441
VWidth: 500
Flags: HW
LayerCount: 2
Fore
SplineSet
247 601 m 0
 345 688 l 0
 348.333007812 686 353.5 682.333007812 360.5 677 c 0
 367.5 671.666992188 374.833007812 666 382.5 660 c 0
 390.166992188 654 397.166992188 648.166992188 403.5 642.5 c 0
 409.833007812 636.833007812 414.333007812 632.666992188 417 630 c 0
 411 601 l 0
 275 555 l 0
 400 513 l 0
 400 509 399.333007812 502.666992188 398 494 c 0
 396.666992188 485.333007812 395.333007812 476.333007812 394 467 c 0
 392.666992188 457.666992188 391.166992188 448.666992188 389.5 440 c 0
 387.833007812 431.333007812 386.333007812 425.333007812 385 422 c 0
 357 413 l 0
 249 507 l 0
 275 378 l 0
 271.666992188 376 266 373.666992188 258 371 c 0
 232 360 l 0
 223.333007812 356.666992188 214.833007812 353.666992188 206.5 351 c 0
 198.166992188 348.333007812 192.333007812 346.333007812 189 345 c 0
 167 365 l 0
 194 506 l 0
 96 419 l 0
 92.6669921875 421 87.5 424.666992188 80.5 430 c 0
 73.5 435.333007812 66.3330078125 441 59 447 c 0
 51.6669921875 453 44.6669921875 458.833007812 38 464.5 c 0
 31.3330078125 470.166992188 26.6669921875 474.333007812 24 477 c 0
 30 506 l 0
 167 553 l 0
 42 594 l 0
 42 598 42.5 604.333007812 43.5 613 c 0
 44.5 621.666992188 45.8330078125 630.833007812 47.5 640.5 c 0
 49.1669921875 650.166992188 50.8330078125 659.166992188 52.5 667.5 c 0
 54.1669921875 675.833007812 55.3330078125 682 56 686 c 0
 84 695 l 0
 192 600 l 0
 166 729 l 0
 169.333007812 731 175.333007812 733.666992188 184 737 c 0
 209 747 l 0
 218.333007812 750.333007812 227 753.5 235 756.5 c 0
 243 759.5 248.666992188 761.333007812 252 762 c 0
 275 742 l 0
 247 601 l 0
EndSplineSet
EndChar

StartChar: plus
Encoding: 14 43 14
Width: 424
VWidth: 500
Flags: HW
LayerCount: 2
Fore
SplineSet
251 108 m 0
 246 106 246 106 238.5 103 c 0
 233.5 101 228.166992188 99 222.5 97 c 0
 216.833007812 95 211.333007812 93.1669921875 206 91.5 c 0
 200.666992188 89.8330078125 196.333007812 88.6669921875 193 88 c 0
 176 104 l 0
 176 237 l 0
 42 237 l 0
 24 253 l 0
 24.6669921875 256.333007812 26.1669921875 260.833007812 28.5 266.5 c 0
 30.8330078125 272.166992188 33.3330078125 277.833007812 36 283.5 c 0
 38.6669921875 289.166992188 41.1669921875 294.666992188 43.5 300 c 0
 45.8330078125 305.333007812 47.6669921875 309.333007812 49 312 c 0
 176 312 l 0
 176 442 l 0
 178.666992188 442.666992188 182.666992188 444 188 446 c 0
 193.333007812 448 198.833007812 450 204.5 452 c 0
 210.166992188 454 215.666992188 455.833007812 221 457.5 c 0
 226.333007812 459.166992188 231 460.333007812 235 461 c 0
 251 445 l 0
 251 312 l 0
 383 312 l 0
 400 296 l 0
 399.333007812 292.666992188 397.833007812 288.166992188 395.5 282.5 c 0
 393.166992188 276.833007812 390.666992188 271 388 265 c 0
 385.333007812 259 382.833007812 253.5 380.5 248.5 c 0
 378.166992188 243.5 376.333007812 239.666992188 375 237 c 0
 251 237 l 0
 251 108 l 0
EndSplineSet
EndChar

StartChar: comma
Encoding: 15 44 15
Width: 282
VWidth: 500
Flags: HW
LayerCount: 2
Fore
SplineSet
249 34 m 0
 249 15.3330078125 244.833007812 -5 236.5 -27 c 0
 228.166992188 -49 217 -70.5 203 -91.5 c 0
 189 -112.5 172.666992188 -132.333007812 154 -151 c 0
 135.333007812 -169.666992188 116 -185.333007812 96 -198 c 0
 59 -171 l 0
 77 -149.666992188 91.6669921875 -127 103 -103 c 0
 114.333007812 -79 120 -52.6669921875 120 -24 c 0
 120 -16.6669921875 118.333007812 -9.5 115 -2.5 c 0
 111.666992188 4.5 107 11 101 17 c 0
 95 23 87.6669921875 27.6669921875 79 31 c 0
 70.3330078125 34.3330078125 61 35.6669921875 51 35 c 0
 43 78 l 0
 45 80.6669921875 49.3330078125 83.6669921875 56 87 c 0
 62.6669921875 90.3330078125 70.8330078125 94 80.5 98 c 0
 90.1669921875 102 100.5 106.166992188 111.5 110.5 c 0
 122.5 114.833007812 133.5 118.5 144.5 121.5 c 0
 155.5 124.5 165.833007812 127 175.5 129 c 0
 185.166992188 131 193.333007812 131.666992188 200 131 c 0
 208 127.666992188 215 123.333007812 221 118 c 0
 227 112.666992188 232 106.166992188 236 98.5 c 0
 240 90.8330078125 243.166992188 81.6669921875 245.5 71 c 0
 247.833007812 60.3330078125 249 48 249 34 c 0
EndSplineSet
EndChar

StartChar: hyphen
Encoding: 16 45 16
Width: 361
VWidth: 500
Flags: HW
LayerCount: 2
Fore
SplineSet
34 192.5 m 0
 34 301 l 0
 302 301 l 0
 302 192.5 l 0
 34 192.5 l 0
EndSplineSet
Refer: 374 727 N 1 0 0 1 0 0 2
EndChar

StartChar: period
Encoding: 17 46 17
Width: 282
VWidth: 500
Flags: HW
LayerCount: 2
Fore
SplineSet
239 65 m 0
 239 51 236.333007812 38.8330078125 231 28.5 c 0
 225.666992188 18.1669921875 218.666992188 9.5 210 2.5 c 0
 201.333007812 -4.5 191.166992188 -10 179.5 -14 c 0
 167.833007812 -18 155.333007812 -20 142 -20 c 0
 132 -20 122.333007812 -18.6669921875 113 -16 c 0
 103.666992188 -13.3330078125 95.3330078125 -9.1669921875 88 -3.5 c 0
 80.6669921875 2.1669921875 74.8330078125 9.3330078125 70.5 18 c 0
 66.1669921875 26.6669921875 64 37.3330078125 64 50 c 0
 64 63.3330078125 66.6669921875 75.3330078125 72 86 c 0
 77.3330078125 96.6669921875 84.5 105.666992188 93.5 113 c 0
 102.5 120.333007812 112.833007812 125.833007812 124.5 129.5 c 0
 136.166992188 133.166992188 148.333007812 135 161 135 c 0
 170.333007812 135 179.666992188 133.666992188 189 131 c 0
 198.333007812 128.333007812 206.666992188 124.166992188 214 118.5 c 0
 221.333007812 112.833007812 227.333007812 105.666992188 232 97 c 0
 236.666992188 88.3330078125 239 77.6669921875 239 65 c 0
EndSplineSet
EndChar

StartChar: slash
Encoding: 18 47 18
Width: 478
VWidth: 500
Flags: HW
LayerCount: 2
Fore
SplineSet
123 -134 m 0
 119.666992188 -136 114.166992188 -138.5 106.5 -141.5 c 0
 98.8330078125 -144.5 90.5 -147.333007812 81.5 -150 c 0
 72.5 -152.666992188 63.8330078125 -155.333007812 55.5 -158 c 0
 47.1669921875 -160.666992188 41.3330078125 -162.666992188 38 -164 c 0
 15 -146 l 0
 357 752 l 0
 361 754.666992188 366.833007812 757.5 374.5 760.5 c 0
 382.166992188 763.5 390.166992188 766.333007812 398.5 769 c 0
 406.833007812 771.666992188 414.833007812 774 422.5 776 c 0
 430.166992188 778 436.333007812 779.666992188 441 781 c 0
 464 766 l 0
 123 -134 l 0
EndSplineSet
EndChar

StartChar: zero
Encoding: 19 48 19
Width: 518
VWidth: 500
Flags: HW
LayerCount: 2
Fore
SplineSet
491 294 m 0
 491 252 485.166992188 212.333007812 473.5 175 c 0
 461.833007812 137.666992188 445.5 105 424.5 77 c 0
 403.5 49 378.5 26.6669921875 349.5 10 c 0
 320.5 -6.6669921875 288.666992188 -15 254 -15 c 0
 219.333007812 -15 188.166992188 -6.6669921875 160.5 10 c 0
 132.833007812 26.6669921875 109 49 89 77 c 0
 69 105 53.6669921875 137.666992188 43 175 c 0
 32.3330078125 212.333007812 27 252 27 294 c 0
 27 336 32.5 375.666992188 43.5 413 c 0
 54.5 450.333007812 70.1669921875 483.166992188 90.5 511.5 c 0
 110.833007812 539.833007812 135.5 562.166992188 164.5 578.5 c 0
 193.5 594.833007812 226.666992188 603 264 603 c 0
 300 603 332 594.833007812 360 578.5 c 0
 388 562.166992188 411.666992188 540 431 512 c 0
 450.333007812 484 465.166992188 451.166992188 475.5 413.5 c 0
 485.833007812 375.833007812 491 336 491 294 c 0
347 276 m 0
 347 320.666992188 344.833007812 359.333007812 340.5 392 c 0
 336.166992188 424.666992188 330 451.666992188 322 473 c 0
 314 494.333007812 304.166992188 510.333007812 292.5 521 c 0
 280.833007812 531.666992188 268 537 254 537 c 0
 240 537 227.833007812 533.166992188 217.5 525.5 c 0
 207.166992188 517.833007812 198.5 505.166992188 191.5 487.5 c 0
 184.5 469.833007812 179.333007812 446.833007812 176 418.5 c 0
 172.666992188 390.166992188 171 355.666992188 171 315 c 0
 171 225.666992188 178.666992188 159.333007812 194 116 c 0
 209.333007812 72.6669921875 232.666992188 51 264 51 c 0
 278.666992188 51 291.166992188 55 301.5 63 c 0
 311.833007812 71 320.333007812 83.8330078125 327 101.5 c 0
 333.666992188 119.166992188 338.666992188 142.333007812 342 171 c 0
 345.333007812 199.666992188 347 234.666992188 347 276 c 0
EndSplineSet
EndChar

StartChar: one
Encoding: 20 49 20
Width: 518
VWidth: 500
Flags: HW
LayerCount: 2
Fore
SplineSet
73 0 m 0
 73 45 l 0
 98.3330078125 47.6669921875 119.5 51 136.5 55 c 0
 153.5 59 167 63 177 67 c 0
 187 71 194.166992188 74.8330078125 198.5 78.5 c 0
 202.833007812 82.1669921875 205 85.6669921875 205 89 c 0
 205 439 l 0
 205 452.333007812 204.5 462.5 203.5 469.5 c 0
 202.5 476.5 200 482.333007812 196 487 c 0
 194 489 190.5 490.666992188 185.5 492 c 0
 180.5 493.333007812 173.333007812 493.833007812 164 493.5 c 0
 154.666992188 493.166992188 142.5 492 127.5 490 c 0
 112.5 488 94.3330078125 484.666992188 73 480 c 0
 58 525 l 0
 67.3330078125 526.333007812 79 529 93 533 c 0
 107 537 122.166992188 541.5 138.5 546.5 c 0
 154.833007812 551.5 171.666992188 557 189 563 c 0
 206.333007812 569 222.833007812 574.666992188 238.5 580 c 0
 254.166992188 585.333007812 268.666992188 590.5 282 595.5 c 0
 295.333007812 600.5 306 604.666992188 314 608 c 0
 337 586 l 0
 337 89 l 0
 337 85.6669921875 338.833007812 82.1669921875 342.5 78.5 c 0
 346.166992188 74.8330078125 352.5 71.1669921875 361.5 67.5 c 0
 370.5 63.8330078125 382.833007812 60 398.5 56 c 0
 414.166992188 52 434.333007812 48.3330078125 459 45 c 0
 459 0 l 0
 73 0 l 0
EndSplineSet
EndChar

StartChar: two
Encoding: 21 50 21
Width: 518
VWidth: 500
Flags: HW
LayerCount: 2
Fore
SplineSet
459 0 m 0
 52 0 l 0
 38 36 l 0
 76 80.6669921875 109.333007812 120.333007812 138 155 c 0
 166.666992188 189.666992188 191.5 220.5 212.5 247.5 c 0
 233.5 274.5 251 298.166992188 265 318.5 c 0
 279 338.833007812 290.166992188 356.833007812 298.5 372.5 c 0
 306.833007812 388.166992188 312.666992188 402.333007812 316 415 c 0
 319.333007812 427.666992188 321 439.666992188 321 451 c 0
 321 464.333007812 319.666992188 476.666992188 317 488 c 0
 314.333007812 499.333007812 310.333007812 509.166992188 305 517.5 c 0
 299.666992188 525.833007812 292.666992188 532.333007812 284 537 c 0
 275.333007812 541.666992188 264.666992188 544 252 544 c 0
 238.666992188 544 227.5 541.333007812 218.5 536 c 0
 209.5 530.666992188 202.5 523.333007812 197.5 514 c 0
 192.5 504.666992188 189.5 494.166992188 188.5 482.5 c 0
 187.5 470.833007812 188 458.666992188 190 446 c 0
 184.666992188 443.333007812 176.833007812 440.166992188 166.5 436.5 c 0
 156.166992188 432.833007812 145 429.333007812 133 426 c 0
 121 422.666992188 109.333007812 419.833007812 98 417.5 c 0
 86.6669921875 415.166992188 77 413.666992188 69 413 c 0
 51 452 l 0
 51 463.333007812 53.8330078125 474.833007812 59.5 486.5 c 0
 65.1669921875 498.166992188 73.1669921875 509.666992188 83.5 521 c 0
 93.8330078125 532.333007812 106.166992188 542.833007812 120.5 552.5 c 0
 134.833007812 562.166992188 150.666992188 570.833007812 168 578.5 c 0
 185.333007812 586.166992188 203.833007812 592.166992188 223.5 596.5 c 0
 243.166992188 600.833007812 264 603 286 603 c 0
 313.333007812 603 337.666992188 600.333007812 359 595 c 0
 380.333007812 589.666992188 398.5 582.166992188 413.5 572.5 c 0
 428.5 562.833007812 440 550.5 448 535.5 c 0
 456 520.5 460 503.333007812 460 484 c 0
 460 469.333007812 458 454.833007812 454 440.5 c 0
 450 426.166992188 443.5 410.833007812 434.5 394.5 c 0
 425.5 378.166992188 413.833007812 360.5 399.5 341.5 c 0
 385.166992188 322.5 367.666992188 301 347 277 c 0
 326.333007812 253 302.333007812 226 275 196 c 0
 247.666992188 166 216.333007812 131.666992188 181 93 c 0
 373 93 l 0
 378.333007812 93 383.333007812 94.5 388 97.5 c 0
 392.666992188 100.5 396.666992188 104.333007812 400 109 c 0
 403.333007812 113.666992188 406.166992188 119 408.5 125 c 0
 410.833007812 131 413 137.333007812 415 144 c 0
 419 158.666992188 421.666992188 175.666992188 423 195 c 0
 467 184 l 0
 459 0 l 0
EndSplineSet
EndChar

StartChar: three
Encoding: 22 51 22
Width: 518
VWidth: 500
Flags: HW
LayerCount: 2
Fore
SplineSet
461 186 m 0
 461 158.666992188 455.333007812 132.833007812 444 108.5 c 0
 432.666992188 84.1669921875 417 62.8330078125 397 44.5 c 0
 377 26.1669921875 353 11.6669921875 325 1 c 0
 297 -9.6669921875 266 -15 232 -15 c 0
 219.333007812 -15 204.833007812 -13.3330078125 188.5 -10 c 0
 172.166992188 -6.6669921875 155.333007812 -1.5 138 5.5 c 0
 120.666992188 12.5 103.333007812 21.1669921875 86 31.5 c 0
 68.6669921875 41.8330078125 52.6669921875 54 38 68 c 0
 60 120 l 0
 89.3330078125 98 116.666992188 82.3330078125 142 73 c 0
 167.333007812 63.6669921875 192 59 216 59 c 0
 230 59 243.333007812 61.1669921875 256 65.5 c 0
 268.666992188 69.8330078125 279.666992188 76.6669921875 289 86 c 0
 298.333007812 95.3330078125 305.833007812 107.333007812 311.5 122 c 0
 317.166992188 136.666992188 320 154.333007812 320 175 c 0
 320 197 316.5 215.333007812 309.5 230 c 0
 302.5 244.666992188 294 256.333007812 284 265 c 0
 274 273.666992188 263.166992188 280 251.5 284 c 0
 239.833007812 288 229.333007812 290 220 290 c 0
 208 290 l 0
 205.333007812 290 202.333007812 289.833007812 199 289.5 c 0
 194 289 194 289 189 288.5 c 0
 185.666992188 288.166992188 181.666992188 287.333007812 177 286 c 0
 167 335 l 0
 194.333007812 342.333007812 216.166992188 351 232.5 361 c 0
 248.833007812 371 261.5 381.666992188 270.5 393 c 0
 279.5 404.333007812 285.333007812 415.666992188 288 427 c 0
 290.666992188 438.333007812 292 449 292 459 c 0
 292 470.333007812 291 481.166992188 289 491.5 c 0
 287 501.833007812 283.666992188 510.833007812 279 518.5 c 0
 274.333007812 526.166992188 268.333007812 532.333007812 261 537 c 0
 253.666992188 541.666992188 244 544 232 544 c 0
 224.666992188 544 217.833007812 542 211.5 538 c 0
 205.166992188 534 199.833007812 528.5 195.5 521.5 c 0
 191.166992188 514.5 188.333007812 506.166992188 187 496.5 c 0
 185.666992188 486.833007812 186.666992188 476.333007812 190 465 c 0
 182.666992188 461 174.166992188 456.833007812 164.5 452.5 c 0
 154.833007812 448.166992188 144.5 444.333007812 133.5 441 c 0
 122.5 437.666992188 111.333007812 434.666992188 100 432 c 0
 88.6669921875 429.333007812 78.3330078125 427.666992188 69 427 c 0
 51 461 l 0
 51 475 56 490.166992188 66 506.5 c 0
 76 522.833007812 90.1669921875 538.166992188 108.5 552.5 c 0
 126.833007812 566.833007812 148.833007812 578.833007812 174.5 588.5 c 0
 200.166992188 598.166992188 228.666992188 603 260 603 c 0
 291.333007812 603 318.166992188 599.166992188 340.5 591.5 c 0
 362.833007812 583.833007812 380.833007812 573.5 394.5 560.5 c 0
 408.166992188 547.5 418.166992188 533 424.5 517 c 0
 430.833007812 501 434 484.666992188 434 468 c 0
 434 455.333007812 431.333007812 442.666992188 426 430 c 0
 420.666992188 417.333007812 413.5 405 404.5 393 c 0
 395.5 381 384.666992188 370.5 372 361.5 c 0
 359.333007812 352.5 345.333007812 345.666992188 330 341 c 0
 350.666992188 339 369 333.5 385 324.5 c 0
 401 315.5 414.666992188 304 426 290 c 0
 437.333007812 276 446 260.166992188 452 242.5 c 0
 458 224.833007812 461 206 461 186 c 0
EndSplineSet
EndChar

StartChar: four
Encoding: 23 52 23
Width: 518
VWidth: 500
Flags: HW
LayerCount: 2
Fore
SplineSet
480 220 m 0
 476.666992188 214.666992188 472.666992188 209.166992188 468 203.5 c 0
 463.333007812 197.833007812 458.666992188 192.333007812 454 187 c 0
 449.333007812 181.666992188 444.666992188 176.833007812 440 172.5 c 0
 435.333007812 168.166992188 431 164.333007812 427 161 c 0
 403 161 l 0
 403 70 l 0
 403 67.3330078125 404 65 406 63 c 0
 408 61 411.5 58.8330078125 416.5 56.5 c 0
 421.5 54.1669921875 428.5 51.6669921875 437.5 49 c 0
 446.5 46.3330078125 457.666992188 43.6669921875 471 41 c 0
 471 0 l 0
 173 0 l 0
 173 41 l 0
 194.333007812 44.3330078125 211.666992188 47.5 225 50.5 c 0
 238.333007812 53.5 248.833007812 56.3330078125 256.5 59 c 0
 264.166992188 61.6669921875 269.333007812 64.3330078125 272 67 c 0
 274.666992188 69.6669921875 276 72.6669921875 276 76 c 0
 276 161 l 0
 48 161 l 0
 27 182 l 0
 259 568 l 0
 267 570.666992188 276.333007812 573.833007812 287 577.5 c 0
 297.666992188 581.166992188 308.5 584.666992188 319.5 588 c 0
 330.5 591.333007812 341.333007812 594.833007812 352 598.5 c 0
 362.666992188 602.166992188 372 605.333007812 380 608 c 0
 403 586 l 0
 403 234 l 0
 468 234 l 0
 480 220 l 0
276 469 m 0
 128 234 l 0
 276 234 l 0
 276 469 l 0
EndSplineSet
EndChar

StartChar: five
Encoding: 24 53 24
Width: 518
VWidth: 500
Flags: HW
LayerCount: 2
Fore
SplineSet
462 200 m 0
 462 172 457.666992188 145 449 119 c 0
 440.333007812 93 426.666992188 70.1669921875 408 50.5 c 0
 389.333007812 30.8330078125 365.666992188 15 337 3 c 0
 308.333007812 -9 274 -15 234 -15 c 0
 219.333007812 -15 203.5 -13.1669921875 186.5 -9.5 c 0
 169.5 -5.8330078125 152.333007812 -0.6669921875 135 6 c 0
 117.666992188 12.6669921875 100.666992188 21 84 31 c 0
 67.3330078125 41 52 52.3330078125 38 65 c 0
 65 113 l 0
 82.3330078125 101 98.5 91.1669921875 113.5 83.5 c 0
 128.5 75.8330078125 142.666992188 69.8330078125 156 65.5 c 0
 169.333007812 61.1669921875 181.5 58.1669921875 192.5 56.5 c 0
 203.5 54.8330078125 214 54 224 54 c 0
 238.666992188 54 252.333007812 57 265 63 c 0
 277.666992188 69 288.833007812 77.5 298.5 88.5 c 0
 308.166992188 99.5 315.833007812 112.666992188 321.5 128 c 0
 327.166992188 143.333007812 330 160.333007812 330 179 c 0
 330 201 327 220.5 321 237.5 c 0
 315 254.5 307 268.5 297 279.5 c 0
 287 290.5 275 298.666992188 261 304 c 0
 247 309.333007812 232 312 216 312 c 0
 201.333007812 312 188 311 176 309 c 0
 164 307 153 304 143 300 c 0
 133 296 123.833007812 291.333007812 115.5 286 c 0
 107.166992188 280.666992188 98.6669921875 275 90 269 c 0
 67 285 l 0
 69 297 71.3330078125 311.166992188 74 327.5 c 0
 76.6669921875 343.833007812 79.3330078125 361.333007812 82 380 c 0
 84.6669921875 398.666992188 87.3330078125 417.833007812 90 437.5 c 0
 92.6669921875 457.166992188 95.1669921875 476.166992188 97.5 494.5 c 0
 99.8330078125 512.833007812 101.833007812 530.166992188 103.5 546.5 c 0
 105.166992188 562.833007812 106.333007812 576.666992188 107 588 c 0
 378 588 l 0
 387.333007812 588 395.666992188 588.5 403 589.5 c 0
 410.333007812 590.5 416.666992188 591.666992188 422 593 c 0
 428.666992188 594.333007812 434 595.666992188 438 597 c 0
 457 578 l 0
 453.666992188 572.666992188 448.666992188 565.666992188 442 557 c 0
 435.333007812 548.333007812 428.5 539.666992188 421.5 531 c 0
 414.5 522.333007812 407.833007812 514.166992188 401.5 506.5 c 0
 395.166992188 498.833007812 390 493.666992188 386 491 c 0
 168 491 l 0
 167.333007812 481.666992188 166.333007812 471.333007812 165 460 c 0
 163.666992188 448.666992188 162.166992188 437.333007812 160.5 426 c 0
 158.833007812 414.666992188 157 404 155 394 c 0
 153 384 151.333007812 375.333007812 150 368 c 0
 164.666992188 375.333007812 181.166992188 381 199.5 385 c 0
 217.833007812 389 238 391 260 391 c 0
 294 391 323.666992188 385.5 349 374.5 c 0
 374.333007812 363.5 395.333007812 349.166992188 412 331.5 c 0
 428.666992188 313.833007812 441.166992188 293.5 449.5 270.5 c 0
 457.833007812 247.5 462 224 462 200 c 0
EndSplineSet
EndChar

StartChar: six
Encoding: 25 54 25
Width: 518
VWidth: 500
Flags: HW
LayerCount: 2
Fore
SplineSet
489 201 m 0
 489 185.666992188 487 169.666992188 483 153 c 0
 479 136.333007812 473 120.166992188 465 104.5 c 0
 457 88.8330078125 447 73.8330078125 435 59.5 c 0
 423 45.1669921875 409.166992188 32.5 393.5 21.5 c 0
 377.833007812 10.5 360.333007812 1.6669921875 341 -5 c 0
 321.666992188 -11.6669921875 300 -15 276 -15 c 0
 244 -15 213.833007812 -9 185.5 3 c 0
 157.166992188 15 132.5 31.6669921875 111.5 53 c 0
 90.5 74.3330078125 74 100.166992188 62 130.5 c 0
 50 160.833007812 44 194.333007812 44 231 c 0
 44 277 52.1669921875 321 68.5 363 c 0
 84.8330078125 405 109 442.833007812 141 476.5 c 0
 173 510.166992188 212.666992188 538.666992188 260 562 c 0
 307.333007812 585.333007812 362 601.333007812 424 610 c 0
 438 562 l 0
 398 553.333007812 363.666992188 541.666992188 335 527 c 0
 306.333007812 512.333007812 282.333007812 495.166992188 263 475.5 c 0
 243.666992188 455.833007812 228.333007812 434.333007812 217 411 c 0
 205.666992188 387.666992188 197.333007812 363 192 337 c 0
 212 352.333007812 232 364.333007812 252 373 c 0
 272 381.666992188 290.666992188 386 308 386 c 0
 336 386 361.166992188 381.333007812 383.5 372 c 0
 405.833007812 362.666992188 424.833007812 349.833007812 440.5 333.5 c 0
 456.166992188 317.166992188 468.166992188 297.666992188 476.5 275 c 0
 484.833007812 252.333007812 489 227.666992188 489 201 c 0
273 312 m 0
 259.666992188 312 245.5 307.5 230.5 298.5 c 0
 215.5 289.5 200.666992188 277.333007812 186 262 c 0
 186 223.333007812 188.5 190.666992188 193.5 164 c 0
 198.5 137.333007812 205.666992188 115.666992188 215 99 c 0
 224.333007812 82.3330078125 235 70.1669921875 247 62.5 c 0
 259 54.8330078125 272 51 286 51 c 0
 299.333007812 51 310.166992188 54.3330078125 318.5 61 c 0
 326.833007812 67.6669921875 333.5 76.5 338.5 87.5 c 0
 343.5 98.5 347 111.166992188 349 125.5 c 0
 351 139.833007812 352 154.666992188 352 170 c 0
 352 200.666992188 349.833007812 225.166992188 345.5 243.5 c 0
 341.166992188 261.833007812 335.333007812 276.166992188 328 286.5 c 0
 320.666992188 296.833007812 312.166992188 303.666992188 302.5 307 c 0
 292.833007812 310.333007812 283 312 273 312 c 0
EndSplineSet
EndChar

StartChar: seven
Encoding: 26 55 26
Width: 518
VWidth: 500
Flags: HW
LayerCount: 2
Fore
SplineSet
481 570 m 0
 459 517 459 517 437 464 c 0
 422.333007812 428.666992188 408.333007812 393.666992188 395 359 c 0
 381.666992188 324.333007812 368.833007812 290.666992188 356.5 258 c 0
 344.166992188 225.333007812 333 194.833007812 323 166.5 c 0
 313 138.166992188 303.833007812 112 295.5 88 c 0
 287.166992188 64 280 43.3330078125 274 26 c 0
 268 22 260.166992188 18 250.5 14 c 0
 240.833007812 10 230.333007812 6.3330078125 219 3 c 0
 202 -2 202 -2 185 -7 c 0
 173.666992188 -10.3330078125 164 -13 156 -15 c 0
 131 6 l 0
 149.666992188 39.3330078125 167.166992188 70.6669921875 183.5 100 c 0
 199.833007812 129.333007812 214.833007812 157.333007812 228.5 184 c 0
 242.166992188 210.666992188 255.166992188 236.333007812 267.5 261 c 0
 279.833007812 285.666992188 291.833007812 310.5 303.5 335.5 c 0
 315.166992188 360.5 326.5 385.666992188 337.5 411 c 0
 348.5 436.333007812 360.333007812 463 373 491 c 0
 156 491 l 0
 151.333007812 491 146.166992188 490.333007812 140.5 489 c 0
 134.833007812 487.666992188 128.833007812 484.333007812 122.5 479 c 0
 116.166992188 473.666992188 109.666992188 465.5 103 454.5 c 0
 96.3330078125 443.5 89.6669921875 428.666992188 83 410 c 0
 46 424 l 0
 46.6669921875 428.666992188 47.6669921875 435.5 49 444.5 c 0
 50.3330078125 453.5 51.6669921875 463.166992188 53 473.5 c 0
 54.3330078125 483.833007812 55.8330078125 494.833007812 57.5 506.5 c 0
 59.1669921875 518.166992188 60.8330078125 529.166992188 62.5 539.5 c 0
 64.1669921875 549.833007812 65.8330078125 559.333007812 67.5 568 c 0
 69.1669921875 576.666992188 70.6669921875 583.333007812 72 588 c 0
 465 588 l 0
 481 570 l 0
EndSplineSet
EndChar

StartChar: eight
Encoding: 27 56 27
Width: 518
VWidth: 500
Flags: HW
LayerCount: 2
Fore
SplineSet
482 172 m 0
 482 146.666992188 476 122.666992188 464 100 c 0
 452 77.3330078125 435.666992188 57.5 415 40.5 c 0
 394.333007812 23.5 369.833007812 10 341.5 0 c 0
 313.166992188 -10 282.666992188 -15 250 -15 c 0
 214.666992188 -15 183.666992188 -10.6669921875 157 -2 c 0
 130.333007812 6.6669921875 108 18.1669921875 90 32.5 c 0
 72 46.8330078125 58.5 63.1669921875 49.5 81.5 c 0
 40.5 99.8330078125 36 119 36 139 c 0
 36 155.666992188 39.3330078125 171.833007812 46 187.5 c 0
 52.6669921875 203.166992188 62 218.166992188 74 232.5 c 0
 86 246.833007812 100.333007812 260.333007812 117 273 c 0
 133.666992188 285.666992188 151.666992188 297 171 307 c 0
 156.333007812 313.666992188 142.333007812 321 129 329 c 0
 115.666992188 337 104 346.5 94 357.5 c 0
 84 368.5 76 381.166992188 70 395.5 c 0
 64 409.833007812 61 427 61 447 c 0
 61 469.666992188 66.3330078125 490.5 77 509.5 c 0
 87.6669921875 528.5 102.166992188 545 120.5 559 c 0
 138.833007812 573 160.333007812 583.833007812 185 591.5 c 0
 209.666992188 599.166992188 236.333007812 603 265 603 c 0
 297.666992188 603 326.166992188 599.666992188 350.5 593 c 0
 374.833007812 586.333007812 394.833007812 577.333007812 410.5 566 c 0
 426.166992188 554.666992188 438 541 446 525 c 0
 454 509 458 491.666992188 458 473 c 0
 458 460.333007812 455.166992188 448.333007812 449.5 437 c 0
 443.833007812 425.666992188 436.166992188 414.666992188 426.5 404 c 0
 416.833007812 393.333007812 405.5 383 392.5 373 c 0
 379.5 363 365.333007812 353.333007812 350 344 c 0
 366.666992188 336 383 327.166992188 399 317.5 c 0
 415 307.833007812 429.166992188 296.333007812 441.5 283 c 0
 453.833007812 269.666992188 463.666992188 254 471 236 c 0
 478.333007812 218 482 196.666992188 482 172 c 0
340 151 m 0
 340 169 337.166992188 184.666992188 331.5 198 c 0
 325.833007812 211.333007812 318.166992188 223 308.5 233 c 0
 298.833007812 243 287.5 251.666992188 274.5 259 c 0
 261.5 266.333007812 247.666992188 273.333007812 233 280 c 0
 215 260.666992188 201.333007812 241.166992188 192 221.5 c 0
 182.666992188 201.833007812 178 179.333007812 178 154 c 0
 178 137.333007812 180.5 122.333007812 185.5 109 c 0
 190.5 95.6669921875 197.166992188 84.5 205.5 75.5 c 0
 213.833007812 66.5 223.166992188 59.8330078125 233.5 55.5 c 0
 243.833007812 51.1669921875 254 49 264 49 c 0
 276 49 286.666992188 51.6669921875 296 57 c 0
 305.333007812 62.3330078125 313.333007812 69.5 320 78.5 c 0
 326.666992188 87.5 331.666992188 98.3330078125 335 111 c 0
 338.333007812 123.666992188 340 137 340 151 c 0
188 464 m 0
 188 452 190.5 441.666992188 195.5 433 c 0
 200.5 424.333007812 207.333007812 416.333007812 216 409 c 0
 224.666992188 401.666992188 235 395 247 389 c 0
 259 383 271.666992188 377.333007812 285 372 c 0
 309.666992188 400.666992188 321.666992188 429.333007812 321 458 c 0
 321 474.666992188 318.833007812 488.5 314.5 499.5 c 0
 310.166992188 510.5 304.666992188 519.166992188 298 525.5 c 0
 291.333007812 531.833007812 283.833007812 536.166992188 275.5 538.5 c 0
 267.166992188 540.833007812 258.666992188 542 250 542 c 0
 240 542 231.166992188 540 223.5 536 c 0
 215.833007812 532 209.333007812 526.5 204 519.5 c 0
 198.666992188 512.5 194.666992188 504.333007812 192 495 c 0
 189.333007812 485.666992188 188 475.333007812 188 464 c 0
EndSplineSet
EndChar

StartChar: nine
Encoding: 28 57 28
Width: 518
VWidth: 500
Flags: HW
LayerCount: 2
Fore
SplineSet
483 357 m 0
 483 307.666992188 475 261.5 459 218.5 c 0
 443 175.5 419.166992188 137.5 387.5 104.5 c 0
 355.833007812 71.5 316.166992188 44 268.5 22 c 0
 220.833007812 0 165.666992188 -14.3330078125 103 -21 c 0
 89 27 l 0
 135 38.3330078125 173.333007812 51.6669921875 204 67 c 0
 234.666992188 82.3330078125 259.5 99.3330078125 278.5 118 c 0
 297.5 136.666992188 311.5 157.333007812 320.5 180 c 0
 329.5 202.666992188 335.666992188 226.666992188 339 252 c 0
 322.333007812 236.666992188 303.833007812 224.666992188 283.5 216 c 0
 263.166992188 207.333007812 241.666992188 203 219 203 c 0
 189.666992188 203 163.666992188 208 141 218 c 0
 118.333007812 228 99.5 241.666992188 84.5 259 c 0
 69.5 276.333007812 58.1669921875 296.166992188 50.5 318.5 c 0
 42.8330078125 340.833007812 39 364 39 388 c 0
 39 412.666992188 44.5 437.666992188 55.5 463 c 0
 66.5 488.333007812 82 511.333007812 102 532 c 0
 122 552.666992188 146 569.666992188 174 583 c 0
 202 596.333007812 233 603 267 603 c 0
 299.666992188 603 329.166992188 598.333007812 355.5 589 c 0
 381.833007812 579.666992188 404.5 565 423.5 545 c 0
 442.5 525 457.166992188 499.5 467.5 468.5 c 0
 477.833007812 437.5 483 400.333007812 483 357 c 0
254 281 m 0
 271.333007812 281 287.333007812 285.166992188 302 293.5 c 0
 316.666992188 301.833007812 330 312.666992188 342 326 c 0
 341.333007812 371.333007812 338.333007812 407.833007812 333 435.5 c 0
 327.666992188 463.166992188 321.166992188 484.5 313.5 499.5 c 0
 305.833007812 514.5 297 524.5 287 529.5 c 0
 277 534.5 266.666992188 537 256 537 c 0
 230.666992188 537 211 526.833007812 197 506.5 c 0
 183 486.166992188 176 456.666992188 176 418 c 0
 176 391.333007812 178.666992188 369.166992188 184 351.5 c 0
 189.333007812 333.833007812 196.166992188 319.833007812 204.5 309.5 c 0
 212.833007812 299.166992188 221.5 291.833007812 230.5 287.5 c 0
 239.5 283.166992188 247.333007812 281 254 281 c 0
EndSplineSet
EndChar

StartChar: colon
Encoding: 29 58 29
Width: 282
VWidth: 500
Flags: HW
LayerCount: 2
Fore
SplineSet
235.5 72.5 m 0
 235.5 60.8333333333 233.333333333 49.8333333333 229 39.5 c 0
 224.666666667 29.1666666667 218.666666667 20.1666666667 211 12.5 c 0
 203.333333333 4.83333333333 194.333333333 -1.25 184 -5.75 c 0
 173.666666667 -10.25 162.5 -12.5 150.5 -12.5 c 0
 138.833333333 -12.5 127.75 -10.25 117.25 -5.75 c 0
 106.75 -1.25 97.5833333333 4.83333333333 89.75 12.5 c 0
 81.9166666667 20.1666666667 75.75 29.1666666667 71.25 39.5 c 0
 66.75 49.8333333333 64.5 60.8333333333 64.5 72.5 c 0
 64.5 84.5 66.75 95.6666666667 71.25 106 c 0
 75.75 116.333333333 81.9166666667 125.416666667 89.75 133.25 c 0
 97.5833333333 141.083333333 106.75 147.25 117.25 151.75 c 0
 127.75 156.25 138.833333333 158.5 150.5 158.5 c 0
 162.5 158.5 173.666666667 156.25 184 151.75 c 0
 194.333333333 147.25 203.333333333 141.083333333 211 133.25 c 0
 218.666666667 125.416666667 224.666666667 116.333333333 229 106 c 0
 233.333333333 95.6666666667 235.5 84.5 235.5 72.5 c 0
235.5 426 m 0
 235.5 414 233.333333333 402.833333333 229 392.5 c 0
 224.666666667 382.166666667 218.666666667 373.166666667 211 365.5 c 0
 203.333333333 357.833333333 194.333333333 351.833333333 184 347.5 c 0
 173.666666667 343.166666667 162.5 341 150.5 341 c 0
 138.833333333 341 127.75 343.166666667 117.25 347.5 c 0
 106.75 351.833333333 97.5833333333 357.833333333 89.75 365.5 c 0
 81.9166666667 373.166666667 75.75 382.166666667 71.25 392.5 c 0
 66.75 402.833333333 64.5 414 64.5 426 c 0
 64.5 437.666666667 66.75 448.75 71.25 459.25 c 0
 75.75 469.75 81.9166666667 478.916666667 89.75 486.75 c 0
 97.5833333333 494.583333333 106.75 500.75 117.25 505.25 c 0
 127.75 509.75 138.833333333 512 150.5 512 c 0
 162.5 512 173.666666667 509.75 184 505.25 c 0
 194.333333333 500.75 203.333333333 494.583333333 211 486.75 c 0
 218.666666667 478.916666667 224.666666667 469.75 229 459.25 c 0
 233.333333333 448.75 235.5 437.666666667 235.5 426 c 0
EndSplineSet
Refer: 17 46 N 1 0 0 1 0 334 2
Refer: 17 46 N 1 0 0 1 0 0 2
EndChar

StartChar: semicolon
Encoding: 30 59 30
Width: 282
VWidth: 500
Flags: HW
LayerCount: 2
Fore
SplineSet
248 60.5 m 0
 248 39.1666666667 245 18.6666666667 239 -1 c 0
 233 -20.6666666667 224.916666667 -39.25 214.75 -56.75 c 0
 204.583333333 -74.25 192.583333333 -90.25 178.75 -104.75 c 0
 164.916666667 -119.25 150.166666667 -131.916666667 134.5 -142.75 c 0
 118.833333333 -153.583333333 102.583333333 -162.25 85.75 -168.75 c 0
 68.9166666667 -175.25 52.3333333333 -179 36 -180 c 0
 36 -130 l 0
 49 -128 62.9166666667 -124.25 77.75 -118.75 c 0
 92.5833333333 -113.25 106.166666667 -105.166666667 118.5 -94.5 c 0
 130.833333333 -83.8333333333 140.833333333 -70.25 148.5 -53.75 c 0
 156.166666667 -37.25 159.5 -17 158.5 7 c 0
 96.5 7 l 0
 90.1666666667 12 85 17.25 81 22.75 c 0
 77 28.25 73.75 33.8333333333 71.25 39.5 c 0
 68.75 45.1666666667 67 50.8333333333 66 56.5 c 0
 65 62.1666666667 64.5 67.5 64.5 72.5 c 0
 64.5 85.5 66.9166666667 97.25 71.75 107.75 c 0
 76.5833333333 118.25 83 127.25 91 134.75 c 0
 99 142.25 108.166666667 148.083333333 118.5 152.25 c 0
 128.833333333 156.416666667 139.5 158.5 150.5 158.5 c 0
 181.5 158.5 205.5 149.666666667 222.5 132 c 0
 239.5 114.333333333 248 90.5 248 60.5 c 0
235.5 426 m 0
 235.5 414 233.333333333 402.833333333 229 392.5 c 0
 224.666666667 382.166666667 218.666666667 373.166666667 211 365.5 c 0
 203.333333333 357.833333333 194.333333333 351.833333333 184 347.5 c 0
 173.666666667 343.166666667 162.5 341 150.5 341 c 0
 138.833333333 341 127.75 343.166666667 117.25 347.5 c 0
 106.75 351.833333333 97.5833333333 357.833333333 89.75 365.5 c 0
 81.9166666667 373.166666667 75.75 382.166666667 71.25 392.5 c 0
 66.75 402.833333333 64.5 414 64.5 426 c 0
 64.5 437.666666667 66.75 448.75 71.25 459.25 c 0
 75.75 469.75 81.9166666667 478.916666667 89.75 486.75 c 0
 97.5833333333 494.583333333 106.75 500.75 117.25 505.25 c 0
 127.75 509.75 138.833333333 512 150.5 512 c 0
 162.5 512 173.666666667 509.75 184 505.25 c 0
 194.333333333 500.75 203.333333333 494.583333333 211 486.75 c 0
 218.666666667 478.916666667 224.666666667 469.75 229 459.25 c 0
 233.333333333 448.75 235.5 437.666666667 235.5 426 c 0
EndSplineSet
Refer: 17 46 N 1 0 0 1 0 334 2
Refer: 15 44 N 1 0 0 1 0 0 2
EndChar

StartChar: less
Encoding: 31 60 31
Width: 458
VWidth: 500
Flags: HW
LayerCount: 2
Fore
SplineSet
435 164 m 0
 431.666992188 160.666992188 427.666992188 156.833007812 423 152.5 c 0
 418.333007812 148.166992188 413.666992188 143.666992188 409 139 c 0
 404.333007812 134.333007812 399.333007812 130 394 126 c 0
 388.666992188 122 383.666992188 118.333007812 379 115 c 0
 42 234 l 0
 24 256 l 0
 24 256.666992188 24.3330078125 257.333007812 25 258 c 0
 25 259 25 259 25 259.5 c 0
 25 260 25 260 25 261 c 0
 26 264 l 0
 27 268 l 0
 29 275 l 0
 31 280 l 0
 33 288 l 0
 35 293 l 0
 35 294.333007812 36 297 38 301 c 0
 38 302 l 0
 39 306 l 0
 40 307 l 0
 42 313 l 0
 44 319 l 0
 417 453 l 0
 435 436 l 0
 434.333007812 432.666992188 433 427.833007812 431 421.5 c 0
 429 415.166992188 427 408.5 425 401.5 c 0
 423 394.5 421.166992188 388 419.5 382 c 0
 417.833007812 376 416.666992188 371.333007812 416 368 c 0
 163 277 l 0
 421 187 l 0
 435 164 l 0
EndSplineSet
EndChar

StartChar: equal
Encoding: 32 61 32
Width: 458
VWidth: 500
Flags: HW
LayerCount: 2
Fore
SplineSet
435 369 m 0
 434.333007812 365.666992188 432.666992188 361.166992188 430 355.5 c 0
 426 347 426 347 422 338.5 c 0
 419.333007812 332.833007812 417 327.333007812 415 322 c 0
 413 316.666992188 411.333007812 312.666992188 410 310 c 0
 42 310 l 0
 24 327 l 0
 24.6669921875 330.333007812 26.1669921875 334.666992188 28.5 340 c 0
 30.8330078125 345.333007812 33.3330078125 350.833007812 36 356.5 c 0
 38.6669921875 362.166992188 41.1669921875 367.666992188 43.5 373 c 0
 45.8330078125 378.333007812 47.6669921875 382.666992188 49 386 c 0
 417 386 l 0
 435 369 l 0
435 223 m 0
 434.333007812 219.666992188 432.666992188 215.166992188 430 209.5 c 0
 427.333007812 203.833007812 424.666992188 198 422 192 c 0
 419.333007812 186 417 180.333007812 415 175 c 0
 413 169.666992188 411.333007812 166 410 164 c 0
 42 164 l 0
 24 180 l 0
 24.6669921875 183.333007812 26.1669921875 187.833007812 28.5 193.5 c 0
 30.8330078125 199.166992188 33.3330078125 204.833007812 36 210.5 c 0
 38.6669921875 216.166992188 41.1669921875 221.5 43.5 226.5 c 0
 45.8330078125 231.5 47.6669921875 235.666992188 49 239 c 0
 417 239 l 0
 435 223 l 0
EndSplineSet
EndChar

StartChar: greater
Encoding: 33 62 33
Width: 458
VWidth: 500
Flags: HW
LayerCount: 2
Fore
SplineSet
435 312 m 0
 433 302.666992188 429.833007812 291.833007812 425.5 279.5 c 0
 421.166992188 267.166992188 417.666992188 257 415 249 c 0
 42 115 l 0
 24 132 l 0
 24.6669921875 135.333007812 26 140.166992188 28 146.5 c 0
 30 152.833007812 32 159.5 34 166.5 c 0
 36 173.5 37.8330078125 180 39.5 186 c 0
 41.1669921875 192 42.3330078125 196.666992188 43 200 c 0
 296 290 l 0
 38 381 l 0
 24 404 l 0
 27.3330078125 407.333007812 31.3330078125 411.166992188 36 415.5 c 0
 40.6669921875 419.833007812 45.3330078125 424.333007812 50 429 c 0
 54.6669921875 433.666992188 59.6669921875 438 65 442 c 0
 70.3330078125 446 75.3330078125 449.666992188 80 453 c 0
 417 333 l 0
 435 312 l 0
EndSplineSet
EndChar

StartChar: question
Encoding: 34 63 34
Width: 462
VWidth: 500
Flags: HW
LayerCount: 2
Fore
SplineSet
308 65 m 0
 308 51 305.333007812 38.8330078125 300 28.5 c 0
 294.666992188 18.1669921875 287.666992188 9.5 279 2.5 c 0
 270.333007812 -4.5 260.166992188 -10 248.5 -14 c 0
 236.833007812 -18 224.333007812 -20 211 -20 c 0
 201 -20 191.333007812 -18.6669921875 182 -16 c 0
 172.666992188 -13.3330078125 164.333007812 -9.1669921875 157 -3.5 c 0
 149.666992188 2.1669921875 143.833007812 9.3330078125 139.5 18 c 0
 135.166992188 26.6669921875 133 37.3330078125 133 50 c 0
 133 63.3330078125 135.666992188 75.3330078125 141 86 c 0
 146.333007812 96.6669921875 153.5 105.666992188 162.5 113 c 0
 171.5 120.333007812 181.833007812 125.833007812 193.5 129.5 c 0
 205.166992188 133.166992188 217.333007812 135 230 135 c 0
 239.333007812 135 248.666992188 133.666992188 258 131 c 0
 267.333007812 128.333007812 275.666992188 124.166992188 283 118.5 c 0
 290.333007812 112.833007812 296.333007812 105.666992188 301 97 c 0
 305.666992188 88.3330078125 308 77.6669921875 308 65 c 0
433 569 m 0
 433 544.333007812 428.666992188 521.833007812 420 501.5 c 0
 411.333007812 481.166992188 400.5 462.333007812 387.5 445 c 0
 374.5 427.666992188 360.5 411.166992188 345.5 395.5 c 0
 330.5 379.833007812 316.333007812 364.333007812 303 349 c 0
 289.666992188 333.666992188 278.333007812 318 269 302 c 0
 259.666992188 286 254.333007812 269 253 251 c 0
 250 205 l 0
 244 200.333007812 236.166992188 196.333007812 226.5 193 c 0
 216.833007812 189.666992188 207.666992188 187 199 185 c 0
 182 200 l 0
 178 251 l 0
 177.333007812 269.666992188 179.333007812 287.833007812 184 305.5 c 0
 188.666992188 323.166992188 195.166992188 340.333007812 203.5 357 c 0
 211.833007812 373.666992188 221 390.166992188 231 406.5 c 0
 241 422.833007812 250.333007812 438.833007812 259 454.5 c 0
 267.666992188 470.166992188 274.833007812 485.5 280.5 500.5 c 0
 286.166992188 515.5 289 531 289 547 c 0
 289 587 283.333007812 616 272 634 c 0
 260.666992188 652 245.666992188 661 227 661 c 0
 220.333007812 661 213.666992188 659.166992188 207 655.5 c 0
 200.333007812 651.833007812 194.5 646.333007812 189.5 639 c 0
 184.5 631.666992188 180.5 623 177.5 613 c 0
 174.5 603 173 591.666992188 173 579 c 0
 173 574.333007812 173.5 568.833007812 174.5 562.5 c 0
 175.5 556.166992188 177 550.666992188 179 546 c 0
 173.666992188 543.333007812 165.166992188 540.166992188 153.5 536.5 c 0
 141.833007812 532.833007812 129.5 529.333007812 116.5 526 c 0
 103.5 522.666992188 90.6669921875 519.833007812 78 517.5 c 0
 65.3330078125 515.166992188 55.3330078125 513.666992188 48 513 c 0
 30 532 l 0
 29.3330078125 534.666992188 29 539 29 545 c 0
 29 558 l 0
 29 580.666992188 35.3330078125 602 48 622 c 0
 60.6669921875 642 77.5 659.5 98.5 674.5 c 0
 119.5 689.5 144 701.333007812 172 710 c 0
 200 718.666992188 229.333007812 723 260 723 c 0
 288 723 312.666992188 719.166992188 334 711.5 c 0
 355.333007812 703.833007812 373.333007812 693.333007812 388 680 c 0
 402.666992188 666.666992188 413.833007812 650.5 421.5 631.5 c 0
 429.166992188 612.5 433 591.666992188 433 569 c 0
EndSplineSet
EndChar

StartChar: at
Encoding: 35 64 35
Width: 899
VWidth: 500
Flags: HW
LayerCount: 2
Fore
SplineSet
856 283 m 0
 856 255.666992188 852.666992188 229.333007812 846 204 c 0
 839.333007812 178.666992188 830.166992188 155 818.5 133 c 0
 806.833007812 111 793.166992188 90.8330078125 777.5 72.5 c 0
 761.833007812 54.1669921875 744.666992188 38.6669921875 726 26 c 0
 707.333007812 13.3330078125 687.666992188 3.3330078125 667 -4 c 0
 646.333007812 -11.3330078125 625.333007812 -15 604 -15 c 0
 593.333007812 -15 583.666992188 -13.8330078125 575 -11.5 c 0
 566.333007812 -9.1669921875 558.333007812 -5.1669921875 551 0.5 c 0
 543.666992188 6.1669921875 537 13.8330078125 531 23.5 c 0
 525 33.1669921875 520.666992188 45.3330078125 518 60 c 0
 504.666992188 45.3330078125 493 33 483 23 c 0
 473 13 463.5 5.3330078125 454.5 0 c 0
 445.5 -5.3330078125 436.166992188 -9.1669921875 426.5 -11.5 c 0
 416.833007812 -13.8330078125 405.666992188 -15 393 -15 c 0
 376.333007812 -15 359.333007812 -10.6669921875 342 -2 c 0
 324.666992188 6.6669921875 309.166992188 20.1669921875 295.5 38.5 c 0
 281.833007812 56.8330078125 270.666992188 80.3330078125 262 109 c 0
 253.333007812 137.666992188 249 172 249 212 c 0
 249 233.333007812 251.166992188 254.333007812 255.5 275 c 0
 259.833007812 295.666992188 266.166992188 315.5 274.5 334.5 c 0
 282.833007812 353.5 293 371.333007812 305 388 c 0
 317 404.666992188 331 418.833007812 347 430.5 c 0
 363 442.166992188 380.666992188 451.5 400 458.5 c 0
 419.333007812 465.5 440.333007812 469 463 469 c 0
 470.333007812 469 477.5 468.333007812 484.5 467 c 0
 491.5 465.666992188 498.333007812 463.5 505 460.5 c 0
 511.666992188 457.5 518.333007812 453 525 447 c 0
 531.666992188 441 538.666992188 433.333007812 546 424 c 0
 556.666992188 427.333007812 566.333007812 430.666992188 575 434 c 0
 583.666992188 437.333007812 591.833007812 440.666992188 599.5 444 c 0
 607.166992188 447.333007812 614.833007812 451 622.5 455 c 0
 630.166992188 459 638 463.666992188 646 469 c 0
 661 454 l 0
 658.333007812 442 656 429.666992188 654 417 c 0
 652 405.666992188 650.166992188 393.166992188 648.5 379.5 c 0
 646.833007812 365.833007812 646 352 646 338 c 0
 646 139 l 0
 646 130.333007812 646.333007812 122.833007812 647 116.5 c 0
 647.666992188 110.166992188 649 104.833007812 651 100.5 c 0
 653 96.1669921875 655.833007812 92.8330078125 659.5 90.5 c 0
 663.166992188 88.1669921875 668.333007812 87 675 87 c 0
 683 87 691.333007812 90.3330078125 700 97 c 0
 708.666992188 103.666992188 716.666992188 113.666992188 724 127 c 0
 731.333007812 140.333007812 737.333007812 157.333007812 742 178 c 0
 746.666992188 198.666992188 749 222.666992188 749 250 c 0
 749 306 742.166992188 354.666992188 728.5 396 c 0
 714.833007812 437.333007812 695.666992188 471.333007812 671 498 c 0
 646.333007812 524.666992188 616.666992188 544.666992188 582 558 c 0
 547.333007812 571.333007812 508.666992188 578 466 578 c 0
 416 578 372.333007812 569.5 335 552.5 c 0
 297.666992188 535.5 266.5 512.333007812 241.5 483 c 0
 216.5 453.666992188 197.666992188 419.5 185 380.5 c 0
 172.333007812 341.5 166 300 166 256 c 0
 166 193.333007812 174.333007812 138.666992188 191 92 c 0
 207.666992188 45.3330078125 230.5 6.8330078125 259.5 -23.5 c 0
 288.5 -53.8330078125 322.666992188 -76.6669921875 362 -92 c 0
 401.333007812 -107.333007812 444 -115 490 -115 c 0
 522 -115 552 -112.166992188 580 -106.5 c 0
 608 -100.833007812 633.166992188 -93.6669921875 655.5 -85 c 0
 677.833007812 -76.3330078125 697.333007812 -67.1669921875 714 -57.5 c 0
 730.666992188 -47.8330078125 743.666992188 -38.6669921875 753 -30 c 0
 779 -78 l 0
 767 -92 751.833007812 -106.5 733.5 -121.5 c 0
 715.166992188 -136.5 693 -150.333007812 667 -163 c 0
 641 -175.666992188 611.166992188 -186.333007812 577.5 -195 c 0
 543.833007812 -203.666992188 506.666992188 -208 466 -208 c 0
 404 -208 347 -198.166992188 295 -178.5 c 0
 243 -158.833007812 198.5 -130.5 161.5 -93.5 c 0
 124.5 -56.5 95.6669921875 -11 75 43 c 0
 54.3330078125 97 44 158.333007812 44 227 c 0
 44 267 49.1669921875 305.833007812 59.5 343.5 c 0
 69.8330078125 381.166992188 84.3330078125 416.333007812 103 449 c 0
 121.666992188 481.666992188 144.333007812 511.666992188 171 539 c 0
 197.666992188 566.333007812 227.5 589.666992188 260.5 609 c 0
 293.5 628.333007812 328.833007812 643.333007812 366.5 654 c 0
 404.166992188 664.666992188 443.666992188 670 485 670 c 0
 539.666992188 670 589.833007812 662.333007812 635.5 647 c 0
 681.166992188 631.666992188 720.333007812 608 753 576 c 0
 785.666992188 544 811 503.666992188 829 455 c 0
 847 406.333007812 856 349 856 283 c 0
515 357 m 0
 508.333007812 370.333007812 500.833007812 380.833007812 492.5 388.5 c 0
 484.166992188 396.166992188 472.666992188 400 458 400 c 0
 432 400 412.666992188 386.333007812 400 359 c 0
 387.333007812 331.666992188 381 287.666992188 381 227 c 0
 381 199 383 176.166992188 387 158.5 c 0
 391 140.833007812 396.166992188 126.666992188 402.5 116 c 0
 408.833007812 105.333007812 415.833007812 98 423.5 94 c 0
 431.166992188 90 439 88 447 88 c 0
 453 88 458.666992188 88.6669921875 464 90 c 0
 469.333007812 91.3330078125 474.5 94 479.5 98 c 0
 484.5 102 489.666992188 107.5 495 114.5 c 0
 500.333007812 121.5 507 130.666992188 515 142 c 0
 515 357 l 0
EndSplineSet
EndChar

StartChar: A
Encoding: 36 65 36
Width: 639
VWidth: 500
Flags: HW
LayerCount: 2
Fore
SplineSet
193 208 m 0
 149 74 l 0
 145.666992188 64 149.5 56.6669921875 160.5 52 c 0
 171.5 47.3330078125 190.333007812 43.6669921875 217 41 c 0
 217 0 l 0
 0 0 l 0
 0 41 l 0
 22 45 38.6669921875 49 50 53 c 0
 61.3330078125 57 68.6669921875 64 72 74 c 0
 239 584 l 0
 247.666992188 591.333007812 257.333007812 598.166992188 268 604.5 c 0
 278.666992188 610.833007812 289.5 616.333007812 300.5 621 c 0
 311.5 625.666992188 322.5 629.833007812 333.5 633.5 c 0
 344.5 637.166992188 355 640.333007812 365 643 c 0
 570 74 l 0
 571.333007812 69.3330078125 573.333007812 65.1669921875 576 61.5 c 0
 578.666992188 57.8330078125 582.166992188 54.6669921875 586.5 52 c 0
 590.833007812 49.3330078125 596.333007812 47 603 45 c 0
 609.666992188 43 618.333007812 41.6669921875 629 41 c 0
 629 0 l 0
 374 0 l 0
 374 41 l 0
 399.333007812 42.3330078125 416.333007812 45.5 425 50.5 c 0
 433.666992188 55.5 436.333007812 63.3330078125 433 74 c 0
 385 208 l 0
 193 208 l 0
363 271 m 0
 284 490 l 0
 214 271 l 0
 363 271 l 0
EndSplineSet
EndChar

StartChar: B
Encoding: 37 66 37
Width: 618
VWidth: 500
Flags: HW
LayerCount: 2
Fore
SplineSet
569 174 m 0
 569 146 563.166992188 120.833007812 551.5 98.5 c 0
 539.833007812 76.1669921875 522.833007812 57.3330078125 500.5 42 c 0
 478.166992188 26.6669921875 450.666992188 14.6669921875 418 6 c 0
 385.333007812 -2.6669921875 348.333007812 -7 307 -7 c 0
 299.666992188 -7 290.666992188 -6.8330078125 280 -6.5 c 0
 269.333007812 -6.1669921875 257.5 -5.8330078125 244.5 -5.5 c 0
 231.5 -5.1669921875 218 -4.8330078125 204 -4.5 c 0
 190 -4.1669921875 176 -3.6669921875 162 -3 c 0
 130 -2.3330078125 96 -1.3330078125 60 0 c 0
 20 0 l 0
 20 41 l 0
 42 45.6669921875 58.3330078125 50.5 69 55.5 c 0
 79.6669921875 60.5 85 65.3330078125 85 70 c 0
 85 564 l 0
 72.3330078125 562.666992188 60.5 561.333007812 49.5 560 c 0
 38.5 558.666992188 28.6669921875 557.333007812 20 556 c 0
 13 601 l 0
 27.6669921875 604.333007812 45.5 607.666992188 66.5 611 c 0
 87.5 614.333007812 109.5 617.5 132.5 620.5 c 0
 155.5 623.5 178.833007812 625.833007812 202.5 627.5 c 0
 226.166992188 629.166992188 248 630 268 630 c 0
 306.666992188 630 341.333007812 627 372 621 c 0
 402.666992188 615 428.5 606.333007812 449.5 595 c 0
 470.5 583.666992188 486.666992188 569.833007812 498 553.5 c 0
 509.333007812 537.166992188 515 518.666992188 515 498 c 0
 515 462.666992188 505.333007812 432.5 486 407.5 c 0
 466.666992188 382.5 437.333007812 364.333007812 398 353 c 0
 424 349 447.5 341.666992188 468.5 331 c 0
 489.5 320.333007812 507.333007812 307.166992188 522 291.5 c 0
 536.666992188 275.833007812 548.166992188 258 556.5 238 c 0
 564.833007812 218 569 196.666992188 569 174 c 0
283 310 m 0
 268.333007812 310 256.5 309.333007812 247.5 308 c 0
 238.5 306.666992188 230 305.333007812 222 304 c 0
 222 65 l 0
 222 63 222.666992188 61 224 59 c 0
 233.333007812 55 242.833007812 52.3330078125 252.5 51 c 0
 262.166992188 49.6669921875 273.666992188 49 287 49 c 0
 333.666992188 49 368.5 59.5 391.5 80.5 c 0
 414.5 101.5 426 130.333007812 426 167 c 0
 426 185 423.833007812 202.5 419.5 219.5 c 0
 415.166992188 236.5 407.666992188 251.833007812 397 265.5 c 0
 386.333007812 279.166992188 371.666992188 290 353 298 c 0
 334.333007812 306 311 310 283 310 c 0
236 574 m 0
 233 574 233 574 229.5 574 c 0
 226 574 226 574 222 574 c 0
 222 364 l 0
 229 364 l 0
 259.666992188 364 284.666992188 367 304 373 c 0
 323.333007812 379 338.333007812 387.166992188 349 397.5 c 0
 359.666992188 407.833007812 366.833007812 419.666992188 370.5 433 c 0
 374.166992188 446.333007812 376 460 376 474 c 0
 376 490 373.666992188 504.333007812 369 517 c 0
 364.333007812 529.666992188 356.666992188 540.166992188 346 548.5 c 0
 335.333007812 556.833007812 321 563.166992188 303 567.5 c 0
 285 571.833007812 262.666992188 574 236 574 c 0
EndSplineSet
EndChar

StartChar: C
Encoding: 38 67 38
Width: 565
VWidth: 500
Flags: HW
LayerCount: 2
Fore
SplineSet
531 103 m 0
 489.666992188 61 448.5 30.8330078125 407.5 12.5 c 0
 366.5 -5.8330078125 327 -15 289 -15 c 0
 255 -15 222.166992188 -8.1669921875 190.5 5.5 c 0
 158.833007812 19.1669921875 130.666992188 39 106 65 c 0
 81.3330078125 91 61.5 122.5 46.5 159.5 c 0
 31.5 196.5 24 238.666992188 24 286 c 0
 24 338 32.1669921875 385.166992188 48.5 427.5 c 0
 64.8330078125 469.833007812 87 506.166992188 115 536.5 c 0
 143 566.833007812 176.166992188 590 214.5 606 c 0
 252.833007812 622 294.666992188 630 340 630 c 0
 357.333007812 630 375 628.666992188 393 626 c 0
 411 623.333007812 428.166992188 619.833007812 444.5 615.5 c 0
 460.833007812 611.166992188 475.666992188 606 489 600 c 0
 502.333007812 594 513.333007812 587.666992188 522 581 c 0
 523.333007812 580.333007812 523.333007812 577.166992188 522 571.5 c 0
 520.666992188 565.833007812 518.333007812 559 515 551 c 0
 511.666992188 543 507.833007812 534.333007812 503.5 525 c 0
 499.166992188 515.666992188 494.833007812 506.833007812 490.5 498.5 c 0
 486.166992188 490.166992188 482 482.666992188 478 476 c 0
 474 469.333007812 470.666992188 464.666992188 468 462 c 0
 432 470 l 0
 416 502.666992188 397.333007812 526.166992188 376 540.5 c 0
 354.666992188 554.833007812 332.333007812 562 309 562 c 0
 292.333007812 562 275.333007812 558 258 550 c 0
 240.666992188 542 225 528.166992188 211 508.5 c 0
 197 488.833007812 185.666992188 462.5 177 429.5 c 0
 168.333007812 396.5 164 354.666992188 164 304 c 0
 164 262.666992188 169.166992188 227.5 179.5 198.5 c 0
 189.833007812 169.5 203.333007812 145.833007812 220 127.5 c 0
 236.666992188 109.166992188 255.333007812 95.5 276 86.5 c 0
 296.666992188 77.5 317.333007812 73 338 73 c 0
 346.666992188 73 357.166992188 74 369.5 76 c 0
 381.833007812 78 395 81.3330078125 409 86 c 0
 423 90.6669921875 438.166992188 97.3330078125 454.5 106 c 0
 470.833007812 114.666992188 487 126 503 140 c 0
 504.333007812 138.666992188 506.5 136.166992188 509.5 132.5 c 0
 512.5 128.833007812 515.333007812 125 518 121 c 0
 520.666992188 117 523.333007812 113.166992188 526 109.5 c 0
 528.666992188 105.833007812 530.333007812 103.666992188 531 103 c 0
EndSplineSet
EndChar

StartChar: D
Encoding: 39 68 39
Width: 651
VWidth: 500
Flags: HW
LayerCount: 2
Fore
SplineSet
255 574 m 0
 247 574 247 574 238.5 574 c 0
 232.833007812 574 227.333007812 573.666992188 222 573 c 0
 222 93 l 0
 222 87.6669921875 222.333007812 82.6669921875 223 78 c 0
 223.666992188 73.3330078125 226.166992188 69.3330078125 230.5 66 c 0
 234.833007812 62.6669921875 241.833007812 60.1669921875 251.5 58.5 c 0
 261.166992188 56.8330078125 274.666992188 56 292 56 c 0
 309.333007812 56 328.166992188 60.6669921875 348.5 70 c 0
 368.833007812 79.3330078125 387.666992188 94.3330078125 405 115 c 0
 422.333007812 135.666992188 436.666992188 162 448 194 c 0
 459.333007812 226 465 265 465 311 c 0
 465 397.666992188 447.333007812 463.166992188 412 507.5 c 0
 376.666992188 551.833007812 324.333007812 574 255 574 c 0
612 330 m 0
 612 289.333007812 607.833007812 253 599.5 221 c 0
 591.166992188 189 579.666992188 160.666992188 565 136 c 0
 550.333007812 111.333007812 533.333007812 90.5 514 73.5 c 0
 494.666992188 56.5 473.833007812 42.5 451.5 31.5 c 0
 429.166992188 20.5 406.166992188 12.5 382.5 7.5 c 0
 358.833007812 2.5 335.333007812 0 312 0 c 0
 20 0 l 0
 20 41 l 0
 42 45.6669921875 58.3330078125 50.5 69 55.5 c 0
 79.6669921875 60.5 85 65.3330078125 85 70 c 0
 85 560 l 0
 20 551 l 0
 13 601 l 0
 29.6669921875 605 49.5 608.666992188 72.5 612 c 0
 95.5 615.333007812 119.666992188 618.333007812 145 621 c 0
 170.333007812 623.666992188 195.666992188 625.833007812 221 627.5 c 0
 246.333007812 629.166992188 270 630 292 630 c 0
 343.333007812 630 388.833007812 623.166992188 428.5 609.5 c 0
 468.166992188 595.833007812 501.666992188 576.166992188 529 550.5 c 0
 556.333007812 524.833007812 577 493.5 591 456.5 c 0
 605 419.5 612 377.333007812 612 330 c 0
EndSplineSet
EndChar

StartChar: E
Encoding: 40 69 40
Width: 535
VWidth: 500
Flags: HW
LayerCount: 2
Fore
SplineSet
515 158 m 0
 513.666992188 144 512.166992188 128.833007812 510.5 112.5 c 0
 508.833007812 96.1669921875 507 80.3330078125 505 65 c 0
 503 49.6669921875 501.166992188 36.1669921875 499.5 24.5 c 0
 497.833007812 12.8330078125 496.333007812 4.6669921875 495 0 c 0
 20 0 l 0
 20 41 l 0
 42 45.6669921875 58.3330078125 50.5 69 55.5 c 0
 79.6669921875 60.5 85 65.3330078125 85 70 c 0
 85 544 l 0
 85 548 80 553 70 559 c 0
 60 565 43.3330078125 570.333007812 20 575 c 0
 20 615 l 0
 462 615 l 0
 483 598 l 0
 482.333007812 589.333007812 481.333007812 578.166992188 480 564.5 c 0
 478.666992188 550.833007812 477 536.833007812 475 522.5 c 0
 473 508.166992188 471 494.666992188 469 482 c 0
 467 469.333007812 465 460 463 454 c 0
 421 454 l 0
 419.666992188 484 415.666992188 507.833007812 409 525.5 c 0
 402.333007812 543.166992188 393 552 381 552 c 0
 222 552 l 0
 222 359 l 0
 415 359 l 0
 433 340 l 0
 430.333007812 335.333007812 427 330 423 324 c 0
 419 318 415 311.833007812 411 305.5 c 0
 407 299.166992188 403 293.333007812 399 288 c 0
 395 282.666992188 391.333007812 278.666992188 388 276 c 0
 383.333007812 280.666992188 378 284.666992188 372 288 c 0
 366 291.333007812 359.333007812 294.166992188 352 296.5 c 0
 344.666992188 298.833007812 336.166992188 300.5 326.5 301.5 c 0
 316.833007812 302.5 305 303 291 303 c 0
 222 303 l 0
 222 95 l 0
 222 90.3330078125 223.166992188 86 225.5 82 c 0
 227.833007812 78 232.5 74.6669921875 239.5 72 c 0
 246.5 69.3330078125 256.666992188 67.1669921875 270 65.5 c 0
 283.333007812 63.8330078125 300.666992188 63 322 63 c 0
 365 63 l 0
 379.666992188 63 392.333007812 65.1669921875 403 69.5 c 0
 413.666992188 73.8330078125 423.166992188 80.3330078125 431.5 89 c 0
 439.833007812 97.6669921875 447.333007812 108.833007812 454 122.5 c 0
 460.666992188 136.166992188 467.333007812 152.666992188 474 172 c 0
 515 158 l 0
EndSplineSet
EndChar

StartChar: F
Encoding: 41 70 41
Width: 517
VWidth: 500
Flags: HW
LayerCount: 2
Fore
SplineSet
20 0 m 0
 20 41 l 0
 42 45.6669921875 58.3330078125 50.5 69 55.5 c 0
 79.6669921875 60.5 85 65.3330078125 85 70 c 0
 85 544 l 0
 85 548 80 553 70 559 c 0
 60 565 43.3330078125 570.333007812 20 575 c 0
 20 615 l 0
 467 615 l 0
 487 598 l 0
 487 589.333007812 486.166992188 578.166992188 484.5 564.5 c 0
 482.833007812 550.833007812 481.166992188 536.833007812 479.5 522.5 c 0
 477.833007812 508.166992188 476 494.666992188 474 482 c 0
 472 469.333007812 470 460 468 454 c 0
 425 454 l 0
 424.333007812 484 420.666992188 507.833007812 414 525.5 c 0
 407.333007812 543.166992188 397.666992188 552 385 552 c 0
 222 552 l 0
 222 359 l 0
 400 359 l 0
 419 340 l 0
 416.333007812 334 413 327.833007812 409 321.5 c 0
 405 315.166992188 400.833007812 309.166992188 396.5 303.5 c 0
 392.166992188 297.833007812 388 292.5 384 287.5 c 0
 380 282.5 376.333007812 278.666992188 373 276 c 0
 368.333007812 280.666992188 363.166992188 284.666992188 357.5 288 c 0
 351.833007812 291.333007812 345.333007812 294.166992188 338 296.5 c 0
 330.666992188 298.833007812 322 300.5 312 301.5 c 0
 302 302.5 290.333007812 303 277 303 c 0
 222 303 l 0
 222 70 l 0
 222 68 223.166992188 66 225.5 64 c 0
 227.833007812 62 232.166992188 59.6669921875 238.5 57 c 0
 244.833007812 54.3330078125 253.166992188 51.6669921875 263.5 49 c 0
 273.833007812 46.3330078125 287 43.6669921875 303 41 c 0
 303 0 l 0
 20 0 l 0
EndSplineSet
EndChar

StartChar: G
Encoding: 42 71 42
Width: 607
VWidth: 500
Flags: HW
LayerCount: 2
Fore
SplineSet
543 580 m 0
 544.333007812 578.666992188 544.333007812 575.333007812 543 570 c 0
 541.666992188 564.666992188 539.333007812 558.166992188 536 550.5 c 0
 532.666992188 542.833007812 528.833007812 534.5 524.5 525.5 c 0
 520.166992188 516.5 515.5 507.833007812 510.5 499.5 c 0
 505.5 491.166992188 501 483.833007812 497 477.5 c 0
 493 471.166992188 489.333007812 466.666992188 486 464 c 0
 451 472 l 0
 440.333007812 489.333007812 429.5 504.166992188 418.5 516.5 c 0
 407.5 528.833007812 396.333007812 538.666992188 385 546 c 0
 373.666992188 553.333007812 362 558.5 350 561.5 c 0
 338 564.5 325.333007812 566 312 566 c 0
 304 566 294.666992188 564.5 284 561.5 c 0
 273.333007812 558.5 262.5 553.166992188 251.5 545.5 c 0
 240.5 537.833007812 229.833007812 527.666992188 219.5 515 c 0
 209.166992188 502.333007812 199.833007812 486.5 191.5 467.5 c 0
 183.166992188 448.5 176.5 426.166992188 171.5 400.5 c 0
 166.5 374.833007812 164 345 164 311 c 0
 164 268.333007812 168.666992188 231.666992188 178 201 c 0
 187.333007812 170.333007812 200 145.166992188 216 125.5 c 0
 232 105.833007812 250.166992188 91.3330078125 270.5 82 c 0
 290.833007812 72.6669921875 312.333007812 68 335 68 c 0
 350.333007812 68 364.166992188 69.3330078125 376.5 72 c 0
 388.833007812 74.6669921875 400 78.3330078125 410 83 c 0
 410 227 l 0
 410 230.333007812 409.666992188 233.833007812 409 237.5 c 0
 408.333007812 241.166992188 405.833007812 244.5 401.5 247.5 c 0
 397.166992188 250.5 390.166992188 253.666992188 380.5 257 c 0
 370.833007812 260.333007812 357 263.666992188 339 267 c 0
 339 308 l 0
 588 308 l 0
 588 267 l 0
 578.666992188 265 571.166992188 262.5 565.5 259.5 c 0
 559.833007812 256.5 555.166992188 253.166992188 551.5 249.5 c 0
 547.833007812 245.833007812 545.333007812 242.166992188 544 238.5 c 0
 542.666992188 234.833007812 542 231 542 227 c 0
 542 85 l 0
 518 65 495.166992188 48.6669921875 473.5 36 c 0
 451.833007812 23.3330078125 431.5 13.1669921875 412.5 5.5 c 0
 393.5 -2.1669921875 375.5 -7.5 358.5 -10.5 c 0
 341.5 -13.5 326 -15 312 -15 c 0
 288 -15 264.166992188 -12.3330078125 240.5 -7 c 0
 216.833007812 -1.6669921875 194.333007812 6.5 173 17.5 c 0
 151.666992188 28.5 131.833007812 42.3330078125 113.5 59 c 0
 95.1669921875 75.6669921875 79.5 95 66.5 117 c 0
 53.5 139 43.1669921875 164 35.5 192 c 0
 27.8330078125 220 24 250.666992188 24 284 c 0
 24 338 32.8330078125 386.5 50.5 429.5 c 0
 68.1669921875 472.5 92.3330078125 508.833007812 123 538.5 c 0
 153.666992188 568.166992188 190 590.833007812 232 606.5 c 0
 274 622.166992188 320 630 370 630 c 0
 380.666992188 630 393.666992188 628.833007812 409 626.5 c 0
 424.333007812 624.166992188 440.166992188 620.833007812 456.5 616.5 c 0
 472.833007812 612.166992188 488.666992188 607 504 601 c 0
 519.333007812 595 532.333007812 588 543 580 c 0
EndSplineSet
EndChar

StartChar: H
Encoding: 43 72 43
Width: 692
VWidth: 500
Flags: HW
LayerCount: 2
Fore
SplineSet
20 0 m 0
 20 41 l 0
 42 45.6669921875 58.3330078125 50.5 69 55.5 c 0
 79.6669921875 60.5 85 65.3330078125 85 70 c 0
 85 544 l 0
 85 548 80 553 70 559 c 0
 60 565 43.3330078125 570.333007812 20 575 c 0
 20 615 l 0
 288 615 l 0
 288 575 l 0
 266 570.333007812 249.5 565.166992188 238.5 559.5 c 0
 227.5 553.833007812 222 548.666992188 222 544 c 0
 222 354 l 0
 461 354 l 0
 461 544 l 0
 461 548 456 553 446 559 c 0
 436 565 419.333007812 570.333007812 396 575 c 0
 396 615 l 0
 664 615 l 0
 664 575 l 0
 642 570.333007812 625.5 565.166992188 614.5 559.5 c 0
 603.5 553.833007812 598 548.666992188 598 544 c 0
 598 70 l 0
 598 66 603.166992188 61.1669921875 613.5 55.5 c 0
 623.833007812 49.8330078125 640.666992188 45 664 41 c 0
 664 0 l 0
 396 0 l 0
 396 41 l 0
 418 45.6669921875 434.333007812 50.5 445 55.5 c 0
 455.666992188 60.5 461 65.3330078125 461 70 c 0
 461 291 l 0
 222 291 l 0
 222 70 l 0
 222 66 227 61.1669921875 237 55.5 c 0
 247 49.8330078125 264 45 288 41 c 0
 288 0 l 0
 20 0 l 0
EndSplineSet
EndChar

StartChar: I
Encoding: 44 73 44
Width: 336
VWidth: 500
Flags: HW
LayerCount: 2
Fore
SplineSet
29 0 m 0
 29 41 l 0
 51 45.6669921875 67.5 50.5 78.5 55.5 c 0
 89.5 60.5 95 65.3330078125 95 70 c 0
 95 544 l 0
 95 548 89.8330078125 553 79.5 559 c 0
 69.1669921875 565 52.3330078125 570.333007812 29 575 c 0
 29 615 l 0
 298 615 l 0
 298 575 l 0
 276 570.333007812 259.5 565.166992188 248.5 559.5 c 0
 237.5 553.833007812 232 548.666992188 232 544 c 0
 232 70 l 0
 232 66 237.166992188 61.1669921875 247.5 55.5 c 0
 257.833007812 49.8330078125 274.666992188 45 298 41 c 0
 298 0 l 0
 29 0 l 0
EndSplineSet
EndChar

StartChar: J
Encoding: 45 74 45
Width: 344
VWidth: 500
Flags: HW
LayerCount: 2
Fore
SplineSet
315 575 m 0
 293 570.333007812 276.5 565.166992188 265.5 559.5 c 0
 254.5 553.833007812 249 548.666992188 249 544 c 0
 249 85 l 0
 249 50.3330078125 245.166992188 20.3330078125 237.5 -5 c 0
 229.833007812 -30.3330078125 219.833007812 -52.5 207.5 -71.5 c 0
 195.166992188 -90.5 181.833007812 -106.666992188 167.5 -120 c 0
 153.166992188 -133.333007812 139.666992188 -145 127 -155 c 0
 118.333007812 -162.333007812 108.666992188 -169.333007812 98 -176 c 0
 87.3330078125 -182.666992188 75.8330078125 -188.5 63.5 -193.5 c 0
 51.1669921875 -198.5 38.5 -202.5 25.5 -205.5 c 0
 12.5 -208.5 0 -210 -12 -210 c 0
 -28 -210 -43.8330078125 -208.166992188 -59.5 -204.5 c 0
 -75.1669921875 -200.833007812 -89 -196.5 -101 -191.5 c 0
 -113 -186.5 -122.833007812 -181.166992188 -130.5 -175.5 c 0
 -138.166992188 -169.833007812 -142 -165 -142 -161 c 0
 -142 -158.333007812 -140.166992188 -154.5 -136.5 -149.5 c 0
 -132.833007812 -144.5 -128 -139 -122 -133 c 0
 -116 -127 -109.5 -120.666992188 -102.5 -114 c 0
 -95.5 -107.333007812 -88.6669921875 -101.166992188 -82 -95.5 c 0
 -75.3330078125 -89.8330078125 -69.1669921875 -85 -63.5 -81 c 0
 -57.8330078125 -77 -53.6669921875 -74.3330078125 -51 -73 c 0
 -33 -89.6669921875 -15.5 -101.833007812 1.5 -109.5 c 0
 18.5 -117.166992188 33.3330078125 -121 46 -121 c 0
 54.6669921875 -121 63 -119.166992188 71 -115.5 c 0
 79 -111.833007812 86 -104.166992188 92 -92.5 c 0
 98 -80.8330078125 102.833007812 -63.6669921875 106.5 -41 c 0
 110.166992188 -18.3330078125 112 12 112 50 c 0
 112 544 l 0
 112 546 111 548.166992188 109 550.5 c 0
 107 552.833007812 102.833007812 555.333007812 96.5 558 c 0
 90.1669921875 560.666992188 81 563.333007812 69 566 c 0
 57 568.666992188 41.3330078125 571.666992188 22 575 c 0
 22 615 l 0
 315 615 l 0
 315 575 l 0
EndSplineSet
EndChar

StartChar: K
Encoding: 46 75 46
Width: 631
VWidth: 500
Flags: HW
LayerCount: 2
Fore
SplineSet
20 0 m 0
 20 41 l 0
 42 45.6669921875 58.3330078125 50.5 69 55.5 c 0
 79.6669921875 60.5 85 65.3330078125 85 70 c 0
 85 544 l 0
 85 548 80 553 70 559 c 0
 60 565 43.3330078125 570.333007812 20 575 c 0
 20 615 l 0
 288 615 l 0
 288 575 l 0
 266 570.333007812 249.5 565.166992188 238.5 559.5 c 0
 227.5 553.833007812 222 548.666992188 222 544 c 0
 222 324 l 0
 397 531 l 0
 404.333007812 539.666992188 409.833007812 546.666992188 413.5 552 c 0
 417.166992188 557.333007812 418.333007812 561.5 417 564.5 c 0
 415.666992188 567.5 411.666992188 569.666992188 405 571 c 0
 398.333007812 572.333007812 388.666992188 573.666992188 376 575 c 0
 376 615 l 0
 601 615 l 0
 601 575 l 0
 590.333007812 573.666992188 581.5 572.333007812 574.5 571 c 0
 567.5 569.666992188 561.333007812 567.833007812 556 565.5 c 0
 550.666992188 563.166992188 545.833007812 560.333007812 541.5 557 c 0
 537.166992188 553.666992188 532.333007812 549.333007812 527 544 c 0
 319 331 l 0
 554 86 l 0
 559.333007812 80.6669921875 564.666992188 76.6669921875 570 74 c 0
 575.333007812 71.3330078125 580.833007812 69.3330078125 586.5 68 c 0
 592.166992188 66.6669921875 598.5 66.1669921875 605.5 66.5 c 0
 612.5 66.8330078125 620 67.3330078125 628 68 c 0
 632 28 l 0
 622.666992188 25.3330078125 611.833007812 21.8330078125 599.5 17.5 c 0
 587.166992188 13.1669921875 574.666992188 9.1669921875 562 5.5 c 0
 549.333007812 1.8330078125 537.333007812 -1.1669921875 526 -3.5 c 0
 514.666992188 -5.8330078125 505 -7 497 -7 c 0
 487.666992188 -7 479.333007812 -5.5 472 -2.5 c 0
 464.666992188 0.5 457.666992188 6 451 14 c 0
 222 303 l 0
 222 70 l 0
 222 66 227 61.1669921875 237 55.5 c 0
 247 49.8330078125 264 45 288 41 c 0
 288 0 l 0
 20 0 l 0
EndSplineSet
EndChar

StartChar: L
Encoding: 47 76 47
Width: 520
VWidth: 500
Flags: HW
LayerCount: 2
Fore
SplineSet
510 158 m 0
 508.666992188 144 507 128.833007812 505 112.5 c 0
 503 96.1669921875 501.166992188 80.3330078125 499.5 65 c 0
 497.833007812 49.6669921875 496.166992188 36.1669921875 494.5 24.5 c 0
 492.833007812 12.8330078125 491.333007812 4.6669921875 490 0 c 0
 20 0 l 0
 20 41 l 0
 42 45.6669921875 58.3330078125 50.5 69 55.5 c 0
 79.6669921875 60.5 85 65.3330078125 85 70 c 0
 85 544 l 0
 85 548 80 553 70 559 c 0
 60 565 43.3330078125 570.333007812 20 575 c 0
 20 615 l 0
 288 615 l 0
 288 575 l 0
 266 570.333007812 249.5 565.166992188 238.5 559.5 c 0
 227.5 553.833007812 222 548.666992188 222 544 c 0
 222 100 l 0
 222 94 223.333007812 88.8330078125 226 84.5 c 0
 228.666992188 80.1669921875 233.5 76.3330078125 240.5 73 c 0
 247.5 69.6669921875 256.833007812 67.1669921875 268.5 65.5 c 0
 280.166992188 63.8330078125 295 63 313 63 c 0
 363 63 l 0
 377.666992188 63 390.333007812 65.1669921875 401 69.5 c 0
 411.666992188 73.8330078125 420.833007812 80.3330078125 428.5 89 c 0
 436.166992188 97.6669921875 443.166992188 108.833007812 449.5 122.5 c 0
 455.833007812 136.166992188 462.333007812 152.666992188 469 172 c 0
 510 158 l 0
EndSplineSet
EndChar

StartChar: M
Encoding: 48 77 48
Width: 859
VWidth: 500
Flags: HW
LayerCount: 2
Fore
SplineSet
811 575 m 0
 803 575 793.666992188 573.833007812 783 571.5 c 0
 772.333007812 569.166992188 761.333007812 566 750 562 c 0
 754 70 l 0
 754 66 760 61.1669921875 772 55.5 c 0
 784 49.8330078125 801.666992188 45 825 41 c 0
 825 0 l 0
 559 0 l 0
 559 41 l 0
 581 45.6669921875 598.333007812 50.5 611 55.5 c 0
 623.666992188 60.5 630 65.3330078125 630 70 c 0
 626 448 l 0
 421 0 l 0
 368 0 l 0
 170 447 l 0
 166 70 l 0
 166 66 171.166992188 61.1669921875 181.5 55.5 c 0
 191.833007812 49.8330078125 208.666992188 45 232 41 c 0
 232 0 l 0
 24 0 l 0
 24 41 l 0
 46.6669921875 45.6669921875 63.3330078125 50.5 74 55.5 c 0
 84.6669921875 60.5 90 65.3330078125 90 70 c 0
 95 559 l 0
 83.6669921875 565 72.1669921875 569.166992188 60.5 571.5 c 0
 48.8330078125 573.833007812 38.3330078125 575 29 575 c 0
 29 615 l 0
 208 615 l 0
 211.333007812 615 214.333007812 614.5 217 613.5 c 0
 219.666992188 612.5 222.333007812 610.666992188 225 608 c 0
 227.666992188 605.333007812 230.5 601.166992188 233.5 595.5 c 0
 236.5 589.833007812 240 582.666992188 244 574 c 0
 419 177 l 0
 601 574 l 0
 605 584 608.5 591.666992188 611.5 597 c 0
 614.5 602.333007812 617.5 606.333007812 620.5 609 c 0
 623.5 611.666992188 626.166992188 613.333007812 628.5 614 c 0
 630.833007812 614.666992188 633.666992188 615 637 615 c 0
 811 615 l 0
 811 575 l 0
EndSplineSet
EndChar

StartChar: N
Encoding: 49 78 49
Width: 668
VWidth: 500
Flags: HW
LayerCount: 2
Fore
SplineSet
20 0 m 0
 20 41 l 0
 44 43.6669921875 60.8330078125 48 70.5 54 c 0
 80.1669921875 60 85 65.3330078125 85 70 c 0
 85 538 l 0
 74.3330078125 548 63.5 556.166992188 52.5 562.5 c 0
 41.5 568.833007812 30.6669921875 573 20 575 c 0
 20 615 l 0
 167 615 l 0
 171.666992188 615 175.666992188 614.666992188 179 614 c 0
 182.333007812 613.333007812 185.5 611.666992188 188.5 609 c 0
 191.5 606.333007812 195 602.5 199 597.5 c 0
 203 592.5 208 585.666992188 214 577 c 0
 505 172 l 0
 505 544 l 0
 505 546 504.166992188 548.5 502.5 551.5 c 0
 500.833007812 554.5 497.333007812 557.333007812 492 560 c 0
 486.666992188 562.666992188 479.833007812 565.333007812 471.5 568 c 0
 463.166992188 570.666992188 452.333007812 573 439 575 c 0
 439 615 l 0
 649 615 l 0
 649 575 l 0
 625.666992188 571.666992188 608.833007812 566.833007812 598.5 560.5 c 0
 588.166992188 554.166992188 583 548.666992188 583 544 c 0
 583 -15 l 0
 565 -13.6669921875 548.833007812 -11 534.5 -7 c 0
 520.166992188 -3 507.333007812 1.5 496 6.5 c 0
 484.666992188 11.5 475 17.3330078125 467 24 c 0
 459 30.6669921875 452.333007812 37.3330078125 447 44 c 0
 164 437 l 0
 164 70 l 0
 164 68 165 65.6669921875 167 63 c 0
 169 60.3330078125 172.666992188 57.6669921875 178 55 c 0
 183.333007812 52.3330078125 190 49.6669921875 198 47 c 0
 206 44.3330078125 216.333007812 42.3330078125 229 41 c 0
 229 0 l 0
 20 0 l 0
EndSplineSet
EndChar

StartChar: O
Encoding: 50 79 50
Width: 629
VWidth: 500
Flags: HW
LayerCount: 2
Fore
SplineSet
595 316 m 0
 595 286.666992188 591.333007812 258 584 230 c 0
 576.666992188 202 566.333007812 175.833007812 553 151.5 c 0
 539.666992188 127.166992188 524 104.833007812 506 84.5 c 0
 488 64.1669921875 467.833007812 46.6669921875 445.5 32 c 0
 423.166992188 17.3330078125 399.333007812 5.8330078125 374 -2.5 c 0
 348.666992188 -10.8330078125 322.333007812 -15 295 -15 c 0
 253.666992188 -15 216.166992188 -6.3330078125 182.5 11 c 0
 148.833007812 28.3330078125 120.333007812 51.5 97 80.5 c 0
 73.6669921875 109.5 55.6669921875 142.833007812 43 180.5 c 0
 30.3330078125 218.166992188 24 257.666992188 24 299 c 0
 24 343 31.3330078125 385 46 425 c 0
 60.6669921875 465 81.1669921875 500.166992188 107.5 530.5 c 0
 133.833007812 560.833007812 165.333007812 585 202 603 c 0
 238.666992188 621 279.333007812 630 324 630 c 0
 368 630 406.833007812 621.166992188 440.5 603.5 c 0
 474.166992188 585.833007812 502.5 562.333007812 525.5 533 c 0
 548.5 503.666992188 565.833007812 470.166992188 577.5 432.5 c 0
 589.166992188 394.833007812 595 356 595 316 c 0
456 307 m 0
 456 340.333007812 452.166992188 372.666992188 444.5 404 c 0
 436.833007812 435.333007812 425.833007812 462.666992188 411.5 486 c 0
 397.166992188 509.333007812 380.166992188 528.166992188 360.5 542.5 c 0
 340.833007812 556.833007812 319 564 295 564 c 0
 273.666992188 564 254.666992188 558.333007812 238 547 c 0
 221.333007812 535.666992188 207.5 519.333007812 196.5 498 c 0
 185.5 476.666992188 177.333007812 450.5 172 419.5 c 0
 166.666992188 388.5 164 353 164 313 c 0
 164 276.333007812 168 242.333007812 176 211 c 0
 184 179.666992188 195 152.333007812 209 129 c 0
 223 105.666992188 239.5 87.3330078125 258.5 74 c 0
 277.5 60.6669921875 297.666992188 54 319 54 c 0
 338.333007812 54 356.5 59 373.5 69 c 0
 390.5 79 405 94.5 417 115.5 c 0
 429 136.5 438.5 163 445.5 195 c 0
 452.5 227 456 264.333007812 456 307 c 0
EndSplineSet
EndChar

StartChar: P
Encoding: 51 80 51
Width: 581
VWidth: 500
Flags: HW
LayerCount: 2
Fore
SplineSet
20 0 m 0
 20 41 l 0
 42 45.6669921875 58.3330078125 50.5 69 55.5 c 0
 79.6669921875 60.5 85 65.3330078125 85 70 c 0
 85 561 l 0
 60.3330078125 558.333007812 38.6669921875 555 20 551 c 0
 13 601 l 0
 31 605 51.3330078125 608.833007812 74 612.5 c 0
 96.6669921875 616.166992188 120.166992188 619.166992188 144.5 621.5 c 0
 168.833007812 623.833007812 193.333007812 625.833007812 218 627.5 c 0
 242.666992188 629.166992188 266 630 288 630 c 0
 326.666992188 630 362 626.166992188 394 618.5 c 0
 426 610.833007812 453.333007812 599.666992188 476 585 c 0
 498.666992188 570.333007812 516.333007812 552.333007812 529 531 c 0
 541.666992188 509.666992188 548 485 548 457 c 0
 548 423 541.333007812 393.166992188 528 367.5 c 0
 514.666992188 341.833007812 497.666992188 320.333007812 477 303 c 0
 456.333007812 285.666992188 433.666992188 272.666992188 409 264 c 0
 384.333007812 255.333007812 360.666992188 251 338 251 c 0
 323.333007812 251 308.5 252.333007812 293.5 255 c 0
 278.5 257.666992188 265.666992188 261.333007812 255 266 c 0
 239 322 l 0
 252.333007812 316 263.666992188 312.166992188 273 310.5 c 0
 282.333007812 308.833007812 292.666992188 308 304 308 c 0
 318 308 331.333007812 310.333007812 344 315 c 0
 356.666992188 319.666992188 367.833007812 327.333007812 377.5 338 c 0
 387.166992188 348.666992188 394.833007812 362 400.5 378 c 0
 406.166992188 394 409 413.666992188 409 437 c 0
 409 459 405.5 478.5 398.5 495.5 c 0
 391.5 512.5 381.5 526.833007812 368.5 538.5 c 0
 355.5 550.166992188 339.833007812 559 321.5 565 c 0
 303.166992188 571 282.666992188 574 260 574 c 0
 251 574 251 574 241.5 574 c 0
 235.166992188 574 228.666992188 573.666992188 222 573 c 0
 222 70 l 0
 222 68 223 66 225 64 c 0
 227 62 231 59.6669921875 237 57 c 0
 243 54.3330078125 251.166992188 51.6669921875 261.5 49 c 0
 271.833007812 46.3330078125 285.666992188 43.6669921875 303 41 c 0
 303 0 l 0
 20 0 l 0
EndSplineSet
EndChar

StartChar: Q
Encoding: 52 81 52
Width: 629
VWidth: 500
Flags: HW
LayerCount: 2
Fore
SplineSet
714 -62 m 0
 706 -76 697.333007812 -89.1669921875 688 -101.5 c 0
 678.666992188 -113.833007812 669.5 -124.666992188 660.5 -134 c 0
 651.5 -143.333007812 643.166992188 -150.666992188 635.5 -156 c 0
 627.833007812 -161.333007812 621.333007812 -164 616 -164 c 0
 600.666992188 -164 585 -161.333007812 569 -156 c 0
 553 -150.666992188 537 -143.833007812 521 -135.5 c 0
 505 -127.166992188 488.833007812 -117.5 472.5 -106.5 c 0
 456.166992188 -95.5 439.833007812 -84.3330078125 423.5 -73 c 0
 407.166992188 -61.6669921875 390.833007812 -50.6669921875 374.5 -40 c 0
 358.166992188 -29.3330078125 342 -20.3330078125 326 -13 c 0
 321.333007812 -13.6669921875 316.333007812 -14.1669921875 311 -14.5 c 0
 305.666992188 -14.8330078125 300.333007812 -15 295 -15 c 0
 253.666992188 -15 216.166992188 -6.3330078125 182.5 11 c 0
 148.833007812 28.3330078125 120.333007812 51.5 97 80.5 c 0
 73.6669921875 109.5 55.6669921875 142.833007812 43 180.5 c 0
 30.3330078125 218.166992188 24 257.666992188 24 299 c 0
 24 343 31.3330078125 385 46 425 c 0
 60.6669921875 465 81.1669921875 500.166992188 107.5 530.5 c 0
 133.833007812 560.833007812 165.333007812 585 202 603 c 0
 238.666992188 621 279.333007812 630 324 630 c 0
 368 630 406.833007812 621.166992188 440.5 603.5 c 0
 474.166992188 585.833007812 502.5 562.333007812 525.5 533 c 0
 548.5 503.666992188 565.833007812 470 577.5 432 c 0
 589.166992188 394 595 355.333007812 595 316 c 0
 595 283.333007812 590.5 251.833007812 581.5 221.5 c 0
 572.5 191.166992188 560.166992188 162.833007812 544.5 136.5 c 0
 528.833007812 110.166992188 510 86.6669921875 488 66 c 0
 466 45.3330078125 442 28.3330078125 416 15 c 0
 435.333007812 9 454 1.6669921875 472 -7 c 0
 490 -15.6669921875 507.333007812 -23.6669921875 524 -31 c 0
 540.666992188 -38.3330078125 556.833007812 -44.8330078125 572.5 -50.5 c 0
 588.166992188 -56.1669921875 603.666992188 -59 619 -59 c 0
 623 -59 627 -58.5 631 -57.5 c 0
 635 -56.5 639.333007812 -54.8330078125 644 -52.5 c 0
 648.666992188 -50.1669921875 654.333007812 -46.8330078125 661 -42.5 c 0
 667.666992188 -38.1669921875 676 -32.3330078125 686 -25 c 0
 714 -62 l 0
456 307 m 0
 456 340.333007812 452.166992188 372.666992188 444.5 404 c 0
 436.833007812 435.333007812 425.833007812 462.666992188 411.5 486 c 0
 397.166992188 509.333007812 380.166992188 528.166992188 360.5 542.5 c 0
 340.833007812 556.833007812 319 564 295 564 c 0
 273.666992188 564 254.666992188 558.333007812 238 547 c 0
 221.333007812 535.666992188 207.5 519.333007812 196.5 498 c 0
 185.5 476.666992188 177.333007812 450.5 172 419.5 c 0
 166.666992188 388.5 164 353 164 313 c 0
 164 276.333007812 168 242.333007812 176 211 c 0
 184 179.666992188 195 152.333007812 209 129 c 0
 223 105.666992188 239.5 87.3330078125 258.5 74 c 0
 277.5 60.6669921875 297.666992188 54 319 54 c 0
 338.333007812 54 356.5 59 373.5 69 c 0
 390.5 79 405 94.5 417 115.5 c 0
 429 136.5 438.5 163 445.5 195 c 0
 452.5 227 456 264.333007812 456 307 c 0
EndSplineSet
EndChar

StartChar: R
Encoding: 53 82 53
Width: 619
VWidth: 500
Flags: HW
LayerCount: 2
Fore
SplineSet
245 574 m 0
 240 574 240 574 234.5 574 c 0
 229 574 229 574 222 574 c 0
 222 347 l 0
 230.666992188 345.666992188 238.333007812 344.833007812 245 344.5 c 0
 251.666992188 344.166992188 258.666992188 344 266 344 c 0
 286.666992188 344 304.333007812 346.833007812 319 352.5 c 0
 333.666992188 358.166992188 345.666992188 366.333007812 355 377 c 0
 364.333007812 387.666992188 371.166992188 400.5 375.5 415.5 c 0
 379.833007812 430.5 382 447.666992188 382 467 c 0
 382 481 380.166992188 494.5 376.5 507.5 c 0
 372.833007812 520.5 365.833007812 532 355.5 542 c 0
 345.166992188 552 331.166992188 559.833007812 313.5 565.5 c 0
 295.833007812 571.166992188 273 574 245 574 c 0
20 0 m 0
 20 41 l 0
 42 45.6669921875 58.3330078125 50.5 69 55.5 c 0
 79.6669921875 60.5 85 65.3330078125 85 70 c 0
 85 560 l 0
 20 551 l 0
 13 601 l 0
 48.3330078125 608.333007812 87.6669921875 615 131 621 c 0
 174.333007812 627 220 630 268 630 c 0
 314 630 353.166992188 626.166992188 385.5 618.5 c 0
 417.833007812 610.833007812 444 600.333007812 464 587 c 0
 484 573.666992188 498.5 558 507.5 540 c 0
 516.5 522 521 502.666992188 521 482 c 0
 521 460 517.666992188 439.666992188 511 421 c 0
 504.333007812 402.333007812 495 385.333007812 483 370 c 0
 471 354.666992188 456.666992188 341.166992188 440 329.5 c 0
 423.333007812 317.833007812 405 308.666992188 385 302 c 0
 541 97 l 0
 546.333007812 90.3330078125 551.166992188 84.8330078125 555.5 80.5 c 0
 559.833007812 76.1669921875 564.666992188 73 570 71 c 0
 575.333007812 69 581.666992188 67.8330078125 589 67.5 c 0
 596.333007812 67.1669921875 605.666992188 67.3330078125 617 68 c 0
 625 28 l 0
 614.333007812 24.6669921875 601.666992188 20.8330078125 587 16.5 c 0
 572.333007812 12.1669921875 557.833007812 8.3330078125 543.5 5 c 0
 529.166992188 1.6669921875 515.833007812 -1.1669921875 503.5 -3.5 c 0
 491.166992188 -5.8330078125 482 -7 476 -7 c 0
 466.666992188 -7 457.5 -4.3330078125 448.5 1 c 0
 439.5 6.3330078125 432.666992188 12.6669921875 428 20 c 0
 291 284 l 0
 288.333007812 284 285.333007812 283.666992188 282 283 c 0
 274 283 l 0
 265.333007812 283 256.833007812 283.5 248.5 284.5 c 0
 240.166992188 285.5 231.333007812 287 222 289 c 0
 222 70 l 0
 222 66 227 61.1669921875 237 55.5 c 0
 247 49.8330078125 264 45 288 41 c 0
 288 0 l 0
 20 0 l 0
EndSplineSet
EndChar

StartChar: S
Encoding: 54 83 54
Width: 524
VWidth: 500
Flags: HW
LayerCount: 2
Fore
SplineSet
486 184 m 0
 486 169.333007812 483.666992188 154.333007812 479 139 c 0
 474.333007812 123.666992188 467.5 108.666992188 458.5 94 c 0
 449.5 79.3330078125 438.166992188 65.3330078125 424.5 52 c 0
 410.833007812 38.6669921875 394.666992188 27.1669921875 376 17.5 c 0
 357.333007812 7.8330078125 336.166992188 0 312.5 -6 c 0
 288.833007812 -12 262.666992188 -15 234 -15 c 0
 222 -15 208 -13.8330078125 192 -11.5 c 0
 176 -9.1669921875 159.833007812 -6 143.5 -2 c 0
 127.166992188 2 111 7 95 13 c 0
 79 19 65.3330078125 25.6669921875 54 33 c 0
 52.6669921875 33.6669921875 51.5 37 50.5 43 c 0
 49.5 49 48.8330078125 56.6669921875 48.5 66 c 0
 48.1669921875 75.3330078125 48 85.6669921875 48 97 c 0
 48 108.333007812 48.5 119.833007812 49.5 131.5 c 0
 50.5 143.166992188 51.8330078125 154.833007812 53.5 166.5 c 0
 55.1669921875 178.166992188 57 188.333007812 59 197 c 0
 99 195 l 0
 106.333007812 175.666992188 115.333007812 157.666992188 126 141 c 0
 136.666992188 124.333007812 148.5 110 161.5 98 c 0
 174.5 86 188.666992188 76.5 204 69.5 c 0
 219.333007812 62.5 235.333007812 59 252 59 c 0
 266.666992188 59 280.5 60.6669921875 293.5 64 c 0
 306.5 67.3330078125 318.166992188 72.6669921875 328.5 80 c 0
 338.833007812 87.3330078125 346.833007812 96.6669921875 352.5 108 c 0
 358.166992188 119.333007812 361 132.666992188 361 148 c 0
 361 168 356.666992188 185.333007812 348 200 c 0
 339.333007812 214.666992188 327.833007812 227.5 313.5 238.5 c 0
 299.166992188 249.5 282.666992188 259.666992188 264 269 c 0
 245.333007812 278.333007812 226.333007812 287.5 207 296.5 c 0
 187.666992188 305.5 168.666992188 315 150 325 c 0
 131.333007812 335 114.833007812 346.666992188 100.5 360 c 0
 86.1669921875 373.333007812 74.5 388.666992188 65.5 406 c 0
 56.5 423.333007812 52 443.666992188 52 467 c 0
 52 477 54 488.166992188 58 500.5 c 0
 62 512.833007812 68.1669921875 525 76.5 537 c 0
 84.8330078125 549 95.3330078125 560.5 108 571.5 c 0
 120.666992188 582.5 135.666992188 592.333007812 153 601 c 0
 170.333007812 609.666992188 190.166992188 616.666992188 212.5 622 c 0
 234.833007812 627.333007812 259.333007812 630 286 630 c 0
 304.666992188 630 322.833007812 628.833007812 340.5 626.5 c 0
 358.166992188 624.166992188 374.5 621 389.5 617 c 0
 404.5 613 417.833007812 608.333007812 429.5 603 c 0
 441.166992188 597.666992188 450 591.666992188 456 585 c 0
 457.333007812 583.666992188 457.666992188 580.5 457 575.5 c 0
 456.333007812 570.5 454.833007812 564.5 452.5 557.5 c 0
 450.166992188 550.5 447.166992188 543 443.5 535 c 0
 439.833007812 527 436.166992188 519.333007812 432.5 512 c 0
 428.833007812 504.666992188 425.333007812 498.166992188 422 492.5 c 0
 418.666992188 486.833007812 415.666992188 483 413 481 c 0
 375 484 l 0
 368.333007812 500.666992188 360.5 514.5 351.5 525.5 c 0
 342.5 536.5 333 545.5 323 552.5 c 0
 313 559.5 302.666992188 564.333007812 292 567 c 0
 281.333007812 569.666992188 271.333007812 571 262 571 c 0
 246.666992188 571 233.5 569.166992188 222.5 565.5 c 0
 211.5 561.833007812 202.333007812 556.666992188 195 550 c 0
 187.666992188 543.333007812 182.333007812 535.666992188 179 527 c 0
 175.666992188 518.333007812 174 509.333007812 174 500 c 0
 174 484.666992188 178.5 471 187.5 459 c 0
 196.5 447 208.333007812 436 223 426 c 0
 237.666992188 416 254.333007812 406 273 396 c 0
 330 368 l 0
 349.333007812 358 368.333007812 347.333007812 387 336 c 0
 405.666992188 324.666992188 422.333007812 311.833007812 437 297.5 c 0
 451.666992188 283.166992188 463.5 266.666992188 472.5 248 c 0
 481.5 229.333007812 486 208 486 184 c 0
EndSplineSet
EndChar

StartChar: T
Encoding: 55 84 55
Width: 589
VWidth: 500
Flags: HW
LayerCount: 2
Fore
SplineSet
145 0 m 0
 145 41 l 0
 159.666992188 43.6669921875 172 46.6669921875 182 50 c 0
 192 53.3330078125 199.666992188 56.5 205 59.5 c 0
 210.333007812 62.5 214.166992188 65.3330078125 216.5 68 c 0
 218.833007812 70.6669921875 220 73.3330078125 220 76 c 0
 220 552 l 0
 104 552 l 0
 99.3330078125 552 94.6669921875 550 90 546 c 0
 85.3330078125 542 80.5 535.666992188 75.5 527 c 0
 70.5 518.333007812 65.1669921875 507.166992188 59.5 493.5 c 0
 53.8330078125 479.833007812 47.6669921875 463.333007812 41 444 c 0
 0 458 l 0
 0.6669921875 467.333007812 1.8330078125 479.333007812 3.5 494 c 0
 5.1669921875 508.666992188 7 523.5 9 538.5 c 0
 11 553.5 13.1669921875 568 15.5 582 c 0
 19 603 19 603 21 615 c 0
 553 615 l 0
 573 598 l 0
 573 589.333007812 572.166992188 578.666992188 570.5 566 c 0
 568.833007812 553.333007812 567 540.166992188 565 526.5 c 0
 563 512.833007812 561 499 559 485 c 0
 557 471 555 459 553 449 c 0
 512 449 l 0
 508.666992188 463.666992188 506 477.5 504 490.5 c 0
 502 503.5 499.666992188 514.5 497 523.5 c 0
 494.333007812 532.5 491 539.5 487 544.5 c 0
 483 549.5 477.666992188 552 471 552 c 0
 357 552 l 0
 357 76 l 0
 357 74 358.166992188 71.5 360.5 68.5 c 0
 362.833007812 65.5 366.666992188 62.5 372 59.5 c 0
 377.333007812 56.5 385 53.3330078125 395 50 c 0
 405 46.6669921875 417.333007812 43.6669921875 432 41 c 0
 432 0 l 0
 145 0 l 0
EndSplineSet
EndChar

StartChar: U
Encoding: 56 85 56
Width: 673
VWidth: 500
Flags: HW
LayerCount: 2
Fore
SplineSet
647 575 m 0
 625 570.333007812 608.5 565.166992188 597.5 559.5 c 0
 586.5 553.833007812 581 548.666992188 581 544 c 0
 581 256 l 0
 581 213.333007812 574.666992188 175.166992188 562 141.5 c 0
 549.333007812 107.833007812 532.166992188 79.5 510.5 56.5 c 0
 488.833007812 33.5 463 15.8330078125 433 3.5 c 0
 403 -8.8330078125 370.333007812 -15 335 -15 c 0
 301.666992188 -15 269.833007812 -10.3330078125 239.5 -1 c 0
 209.166992188 8.3330078125 182.5 22.5 159.5 41.5 c 0
 136.5 60.5 118.333007812 84.5 105 113.5 c 0
 91.6669921875 142.5 85 177 85 217 c 0
 85 544 l 0
 85 548 80 553 70 559 c 0
 60 565 43.3330078125 570.333007812 20 575 c 0
 20 615 l 0
 288 615 l 0
 288 575 l 0
 266 570.333007812 249.5 565.166992188 238.5 559.5 c 0
 227.5 553.833007812 222 548.666992188 222 544 c 0
 222 251 l 0
 222 219.666992188 224.5 192.166992188 229.5 168.5 c 0
 234.5 144.833007812 242.666992188 125 254 109 c 0
 265.333007812 93 280.333007812 81 299 73 c 0
 317.666992188 65 341 61 369 61 c 0
 392.333007812 61 411.666992188 66 427 76 c 0
 442.333007812 86 454.5 99.6669921875 463.5 117 c 0
 472.5 134.333007812 478.833007812 154 482.5 176 c 0
 486.166992188 198 488 221.333007812 488 246 c 0
 488 544 l 0
 488 548 483 553 473 559 c 0
 463 565 446 570.333007812 422 575 c 0
 422 615 l 0
 647 615 l 0
 647 575 l 0
EndSplineSet
EndChar

StartChar: V
Encoding: 57 86 57
Width: 669
VWidth: 500
Flags: HW
LayerCount: 2
Fore
SplineSet
654 575 m 0
 632 571 614.666992188 566.833007812 602 562.5 c 0
 589.333007812 558.166992188 581.666992188 551.333007812 579 542 c 0
 396 43 l 0
 393.333007812 35.6669921875 388.333007812 29 381 23 c 0
 373.666992188 17 365 11.6669921875 355 7 c 0
 345 2.3330078125 334.666992188 -1.8330078125 324 -5.5 c 0
 313.333007812 -9.1669921875 303.333007812 -12.3330078125 294 -15 c 0
 69 542 l 0
 65.6669921875 550.666992188 59.3330078125 557.666992188 50 563 c 0
 40.6669921875 568.333007812 25.6669921875 572.333007812 5 575 c 0
 5 615 l 0
 266 615 l 0
 266 575 l 0
 252.666992188 574.333007812 242 573 234 571 c 0
 226 569 219.666992188 566.833007812 215 564.5 c 0
 210.333007812 562.166992188 207.666992188 559.166992188 207 555.5 c 0
 206.333007812 551.833007812 206.666992188 547.666992188 208 543 c 0
 362 153 l 0
 501 542 l 0
 502.333007812 546.666992188 502.5 550.833007812 501.5 554.5 c 0
 500.5 558.166992188 497.833007812 561.166992188 493.5 563.5 c 0
 489.166992188 565.833007812 482.666992188 567.833007812 474 569.5 c 0
 465.333007812 571.166992188 454.333007812 573 441 575 c 0
 441 615 l 0
 654 615 l 0
 654 575 l 0
EndSplineSet
EndChar

StartChar: W
Encoding: 58 87 58
Width: 850
VWidth: 500
Flags: HW
LayerCount: 2
Fore
SplineSet
851 575 m 0
 837 572.333007812 825.166992188 569.5 815.5 566.5 c 0
 805.833007812 563.5 798.166992188 560.833007812 792.5 558.5 c 0
 786.833007812 556.166992188 782.833007812 553.833007812 780.5 551.5 c 0
 778.166992188 549.166992188 776.666992188 546.666992188 776 544 c 0
 665 29 l 0
 663.666992188 22.3330078125 660 16.3330078125 654 11 c 0
 648 5.6669921875 641.166992188 1.3330078125 633.5 -2 c 0
 625.833007812 -5.3330078125 618.166992188 -8 610.5 -10 c 0
 602.833007812 -12 596.666992188 -13.6669921875 592 -15 c 0
 423 417 l 0
 283 29 l 0
 281 22.3330078125 276.833007812 16.5 270.5 11.5 c 0
 264.166992188 6.5 257.166992188 2.3330078125 249.5 -1 c 0
 241.833007812 -4.3330078125 234 -7.1669921875 226 -9.5 c 0
 218 -11.8330078125 210.666992188 -13.6669921875 204 -15 c 0
 77 541 l 0
 75.6669921875 549 69.8330078125 555.5 59.5 560.5 c 0
 49.1669921875 565.5 32.6669921875 570.333007812 10 575 c 0
 10 615 l 0
 258 615 l 0
 258 575 l 0
 242 573.666992188 229.666992188 571.666992188 221 569 c 0
 212.333007812 566.333007812 206.166992188 563.5 202.5 560.5 c 0
 198.833007812 557.5 196.833007812 554.333007812 196.5 551 c 0
 196.166992188 547.666992188 196.333007812 544.333007812 197 541 c 0
 276 210 l 0
 413 615 l 0
 469 615 l 0
 630 210 l 0
 704 544 l 0
 704.666992188 548 703.166992188 551.5 699.5 554.5 c 0
 695.833007812 557.5 690.666992188 560.166992188 684 562.5 c 0
 677.333007812 564.833007812 669.333007812 567 660 569 c 0
 650.666992188 571 640.333007812 573 629 575 c 0
 629 615 l 0
 851 615 l 0
 851 575 l 0
EndSplineSet
EndChar

StartChar: X
Encoding: 59 88 59
Width: 634
VWidth: 500
Flags: HW
LayerCount: 2
Fore
SplineSet
351 0 m 0
 351 41 l 0
 365 42.3330078125 376.333007812 44 385 46 c 0
 393.666992188 48 400 50.5 404 53.5 c 0
 408 56.5 409.833007812 60.3330078125 409.5 65 c 0
 409.166992188 69.6669921875 406.666992188 75.3330078125 402 82 c 0
 293 239 l 0
 187 82 l 0
 182.333007812 74.6669921875 179 68.6669921875 177 64 c 0
 175 59.3330078125 175.5 55.3330078125 178.5 52 c 0
 181.5 48.6669921875 187.166992188 46.1669921875 195.5 44.5 c 0
 203.833007812 42.8330078125 215.333007812 41.6669921875 230 41 c 0
 230 0 l 0
 10 0 l 0
 10 41 l 0
 31.3330078125 42.3330078125 49.3330078125 46.1669921875 64 52.5 c 0
 78.6669921875 58.8330078125 90.3330078125 68.6669921875 99 82 c 0
 249 304 l 0
 91 534 l 0
 86.3330078125 541.333007812 81.6669921875 547.166992188 77 551.5 c 0
 72.3330078125 555.833007812 67.1669921875 559.5 61.5 562.5 c 0
 55.8330078125 565.5 49.3330078125 567.833007812 42 569.5 c 0
 34.6669921875 571.166992188 25.6669921875 573 15 575 c 0
 15 615 l 0
 294 615 l 0
 294 575 l 0
 266 572.333007812 247.833007812 568.333007812 239.5 563 c 0
 231.166992188 557.666992188 232 548 242 534 c 0
 336 396 l 0
 424 534 l 0
 428.666992188 541.333007812 431.666992188 547.333007812 433 552 c 0
 434.333007812 556.666992188 433.5 560.5 430.5 563.5 c 0
 427.5 566.5 421.833007812 568.833007812 413.5 570.5 c 0
 405.166992188 572.166992188 393.666992188 573.666992188 379 575 c 0
 379 615 l 0
 601 615 l 0
 601 575 l 0
 589 573.666992188 578.333007812 572 569 570 c 0
 559.666992188 568 551.5 565.5 544.5 562.5 c 0
 537.5 559.5 531.333007812 555.666992188 526 551 c 0
 520.666992188 546.333007812 515.666992188 540.666992188 511 534 c 0
 381 331 l 0
 552 82 l 0
 556.666992188 75.3330078125 561.333007812 69.5 566 64.5 c 0
 570.666992188 59.5 575.666992188 55.5 581 52.5 c 0
 586.333007812 49.5 592.5 47 599.5 45 c 0
 606.5 43 615 41.6669921875 625 41 c 0
 625 0 l 0
 351 0 l 0
EndSplineSet
EndChar

StartChar: Y
Encoding: 60 89 60
Width: 618
VWidth: 500
Flags: HW
LayerCount: 2
Fore
SplineSet
166 0 m 0
 166 41 l 0
 180.666992188 43.6669921875 192.833007812 46.6669921875 202.5 50 c 0
 212.166992188 53.3330078125 219.833007812 56.5 225.5 59.5 c 0
 231.166992188 62.5 235.166992188 65.3330078125 237.5 68 c 0
 239.833007812 70.6669921875 241 73.3330078125 241 76 c 0
 241 257 l 0
 229 283 216 309.666992188 202 337 c 0
 188 364.333007812 173.666992188 390.666992188 159 416 c 0
 144.333007812 441.333007812 129.833007812 465 115.5 487 c 0
 101.166992188 509 88.3330078125 527.333007812 77 542 c 0
 74.3330078125 545.333007812 71.3330078125 548.5 68 551.5 c 0
 64.6669921875 554.5 60.5 557 55.5 559 c 0
 50.5 561 43.6669921875 562.333007812 35 563 c 0
 26.3330078125 563.666992188 15.3330078125 564 2 564 c 0
 0 605 l 0
 9.3330078125 606.333007812 20.5 607.833007812 33.5 609.5 c 0
 53 612 53 612 72.5 614.5 c 0
 85.5 616.166992188 97.6669921875 617.5 109 618.5 c 0
 120.333007812 619.5 129.333007812 620 136 620 c 0
 145.333007812 620 155.166992188 617.833007812 165.5 613.5 c 0
 175.833007812 609.166992188 183.666992188 603.333007812 189 596 c 0
 201 580 213.5 561.5 226.5 540.5 c 0
 239.5 519.5 252.666992188 497.5 266 474.5 c 0
 279.333007812 451.5 292.333007812 427.666992188 305 403 c 0
 317.666992188 378.333007812 329.666992188 354.333007812 341 331 c 0
 450 542 l 0
 454.666992188 550.666992188 453 557.5 445 562.5 c 0
 437 567.5 420.666992188 571.666992188 396 575 c 0
 396 615 l 0
 604 615 l 0
 604 575 l 0
 592.666992188 573 583 570.833007812 575 568.5 c 0
 567 566.166992188 560.166992188 563.833007812 554.5 561.5 c 0
 548.833007812 559.166992188 544.333007812 556.5 541 553.5 c 0
 537.666992188 550.5 534.666992188 546.666992188 532 542 c 0
 378 251 l 0
 378 76 l 0
 378 74 379.166992188 71.5 381.5 68.5 c 0
 383.833007812 65.5 387.833007812 62.5 393.5 59.5 c 0
 399.166992188 56.5 406.833007812 53.3330078125 416.5 50 c 0
 426.166992188 46.6669921875 438.666992188 43.6669921875 454 41 c 0
 454 0 l 0
 166 0 l 0
EndSplineSet
EndChar

StartChar: Z
Encoding: 61 90 61
Width: 552
VWidth: 500
Flags: HW
LayerCount: 2
Fore
SplineSet
518 182 m 0
 517.333007812 171.333007812 516.833007812 157.666992188 516.5 141 c 0
 516.166992188 124.333007812 515.666992188 107.166992188 515 89.5 c 0
 514.333007812 71.8330078125 513.833007812 54.8330078125 513.5 38.5 c 0
 513.166992188 22.1669921875 512.666992188 9.3330078125 512 0 c 0
 43 0 l 0
 24 27 l 0
 347 547 l 0
 167 547 l 0
 161.666992188 547 155.666992188 543.833007812 149 537.5 c 0
 142.333007812 531.166992188 135.666992188 522.666992188 129 512 c 0
 122.333007812 501.333007812 116.166992188 488.666992188 110.5 474 c 0
 104.833007812 459.333007812 100.333007812 443.333007812 97 426 c 0
 49 437 l 0
 68 623 l 0
 76.6669921875 621 84.8330078125 619.5 92.5 618.5 c 0
 100.166992188 617.5 107.5 616.666992188 114.5 616 c 0
 121.5 615.333007812 128.666992188 615 136 615 c 0
 496 615 l 0
 513 589 l 0
 193 68 l 0
 405 68 l 0
 411.666992188 68 417.833007812 70.8330078125 423.5 76.5 c 0
 429.166992188 82.1669921875 434.5 90.3330078125 439.5 101 c 0
 444.5 111.666992188 449.5 124.833007812 454.5 140.5 c 0
 459.5 156.166992188 465.333007812 174 472 194 c 0
 518 182 l 0
EndSplineSet
EndChar

StartChar: bracketleft
Encoding: 62 91 62
Width: 347
VWidth: 500
Flags: HW
LayerCount: 2
Fore
SplineSet
337 -107 m 0
 336.333007812 -110.333007812 335.333007812 -114.5 334 -119.5 c 0
 332.666992188 -124.5 331 -129.833007812 329 -135.5 c 0
 327 -141.166992188 325 -146.5 323 -151.5 c 0
 320 -159 320 -159 318 -164 c 0
 59 -164 l 0
 59 781 l 0
 315 781 l 0
 336 764 l 0
 335.333007812 760 334.333007812 755 333 749 c 0
 331.666992188 743 330 737.166992188 328 731.5 c 0
 326 725.833007812 324.166992188 720.5 322.5 715.5 c 0
 320.833007812 710.5 319.333007812 707.333007812 318 706 c 0
 186 706 l 0
 186 -88 l 0
 315 -88 l 0
 337 -107 l 0
EndSplineSet
EndChar

StartChar: backslash
Encoding: 63 92 63
Width: 468
VWidth: 500
Flags: HW
LayerCount: 2
Fore
SplineSet
430 -164 m 0
 424 -162 424 -162 412 -158 c 0
 404 -155.333007812 395.833007812 -152.666992188 387.5 -150 c 0
 379.166992188 -147.333007812 371.5 -144.5 364.5 -141.5 c 0
 357.5 -138.5 352.666992188 -136 350 -134 c 0
 17 766 l 0
 40 781 l 0
 44.6669921875 779.666992188 50.6669921875 778 58 776 c 0
 65.3330078125 774 72.8330078125 771.666992188 80.5 769 c 0
 88.1669921875 766.333007812 95.5 763.666992188 102.5 761 c 0
 109.5 758.333007812 115.333007812 755.333007812 120 752 c 0
 452 -146 l 0
 430 -164 l 0
EndSplineSet
EndChar

StartChar: bracketright
Encoding: 64 93 64
Width: 347
VWidth: 500
Flags: HW
LayerCount: 2
Fore
SplineSet
32 -164 m 0
 11 -146 l 0
 11.6669921875 -142 12.8330078125 -137.166992188 14.5 -131.5 c 0
 16.1669921875 -125.833007812 17.8330078125 -120 19.5 -114 c 0
 21.1669921875 -108 22.8330078125 -102.666992188 24.5 -98 c 0
 26.1669921875 -93.3330078125 27.6669921875 -90 29 -88 c 0
 161 -88 l 0
 161 706 l 0
 32 706 l 0
 10 725 l 0
 10.6669921875 728.333007812 11.8330078125 732.5 13.5 737.5 c 0
 15.1669921875 742.5 16.8330078125 747.833007812 18.5 753.5 c 0
 20.1669921875 759.166992188 22 764.5 24 769.5 c 0
 26 774.5 27.6669921875 778.333007812 29 781 c 0
 288 781 l 0
 288 -164 l 0
 32 -164 l 0
EndSplineSet
EndChar

StartChar: asciicircum
Encoding: 65 94 65
Width: 492
VWidth: 500
Flags: HW
LayerCount: 2
Fore
SplineSet
443 310 m 0
 435 302.666992188 427.166992188 296.5 419.5 291.5 c 0
 411.833007812 286.5 402.333007812 281.333007812 391 276 c 0
 373 289 l 0
 235 642 l 0
 113 310 l 0
 109.666992188 306.666992188 105.666992188 303.333007812 101 300 c 0
 96.3330078125 296.666992188 91.5 293.5 86.5 290.5 c 0
 81.5 287.5 76.6669921875 284.666992188 72 282 c 0
 67.3330078125 279.333007812 63.3330078125 277.333007812 60 276 c 0
 49 289 l 0
 206 714 l 0
 210 718 214.833007812 722 220.5 726 c 0
 226.166992188 730 232 734 238 738 c 0
 244 742 249.833007812 745.5 255.5 748.5 c 0
 261.166992188 751.5 266.333007812 754.333007812 271 757 c 0
 443 310 l 0
EndSplineSet
EndChar

StartChar: underscore
Encoding: 66 95 66
Width: 488
VWidth: 500
Flags: HW
LayerCount: 2
Fore
SplineSet
464 -80 m 0
 463.333007812 -83.3330078125 461.833007812 -87.8330078125 459.5 -93.5 c 0
 457.166992188 -99.1669921875 454.666992188 -105 452 -111 c 0
 449.333007812 -117 446.833007812 -122.5 444.5 -127.5 c 0
 442.166992188 -132.5 440.333007812 -136.333007812 439 -139 c 0
 42 -139 l 0
 24 -123 l 0
 24.6669921875 -119.666992188 26.1669921875 -115.166992188 28.5 -109.5 c 0
 30.8330078125 -103.833007812 33.3330078125 -98.1669921875 36 -92.5 c 0
 38.6669921875 -86.8330078125 41.1669921875 -81.3330078125 43.5 -76 c 0
 45.8330078125 -70.6669921875 47.6669921875 -66.3330078125 49 -63 c 0
 447 -63 l 0
 464 -80 l 0
EndSplineSet
EndChar

StartChar: grave
Encoding: 67 96 67
Width: 318
VWidth: 500
Flags: HW
LayerCount: 2
Fore
SplineSet
223 531 m 0
 221 529 217.833007812 526.833007812 213.5 524.5 c 0
 209.166992188 522.166992188 204.666992188 519.833007812 200 517.5 c 0
 195.333007812 515.166992188 190.833007812 513 186.5 511 c 0
 182.166992188 509 178.666992188 507.333007812 176 506 c 0
 -16 690 l 0
 0 720 l 0
 2 720.666992188 6 721.666992188 12 723 c 0
 18 724.333007812 25 725.666992188 33 727 c 0
 41 728.333007812 49.5 729.833007812 58.5 731.5 c 0
 67.5 733.166992188 76.1669921875 734.833007812 84.5 736.5 c 0
 92.8330078125 738.166992188 100 739.333007812 106 740 c 0
 120 742 l 0
 223 531 l 0
EndSplineSet
EndChar

StartChar: a
Encoding: 68 97 68
Width: 512
VWidth: 500
Flags: HW
LayerCount: 2
Fore
SplineSet
511 60 m 0
 497 50.6669921875 482.166992188 41.5 466.5 32.5 c 0
 450.833007812 23.5 435.5 15.5 420.5 8.5 c 0
 405.5 1.5 392 -4.1669921875 380 -8.5 c 0
 368 -12.8330078125 359 -15 353 -15 c 0
 340.333007812 -15 329.666992188 -8.1669921875 321 5.5 c 0
 312.333007812 19.1669921875 307 37.6669921875 305 61 c 0
 290.333007812 46.3330078125 275.5 34.1669921875 260.5 24.5 c 0
 245.5 14.8330078125 231.166992188 7 217.5 1 c 0
 203.833007812 -5 190.666992188 -9.1669921875 178 -11.5 c 0
 165.333007812 -13.8330078125 153.666992188 -15 143 -15 c 0
 129 -15 115.166992188 -12.5 101.5 -7.5 c 0
 87.8330078125 -2.5 75.6669921875 4.8330078125 65 14.5 c 0
 54.3330078125 24.1669921875 45.6669921875 36.1669921875 39 50.5 c 0
 32.3330078125 64.8330078125 29 81.6669921875 29 101 c 0
 29 122.333007812 33 140.5 41 155.5 c 0
 49 170.5 59 184 71 196 c 0
 79 204 88 211.5 98 218.5 c 0
 108 225.5 121.666992188 232.5 139 239.5 c 0
 156.333007812 246.5 178.166992188 253.333007812 204.5 260 c 0
 230.833007812 266.666992188 264 273 304 279 c 0
 304 333 l 0
 304 343 303.166992188 352.166992188 301.5 360.5 c 0
 299.833007812 368.833007812 296.833007812 375.833007812 292.5 381.5 c 0
 288.166992188 387.166992188 282.166992188 391.666992188 274.5 395 c 0
 266.833007812 398.333007812 257.666992188 400 247 400 c 0
 240.333007812 400 233.333007812 398.666992188 226 396 c 0
 218.666992188 393.333007812 212.333007812 389.333007812 207 384 c 0
 201.666992188 378.666992188 197.5 372.333007812 194.5 365 c 0
 191.5 357.666992188 190.333007812 349 191 339 c 0
 191 337 188 334.5 182 331.5 c 0
 176 328.5 168.333007812 325.166992188 159 321.5 c 0
 149.666992188 317.833007812 139.166992188 314.5 127.5 311.5 c 0
 115.833007812 308.5 104.666992188 305.666992188 94 303 c 0
 83.3330078125 300.333007812 74 298.333007812 66 297 c 0
 58 295.666992188 52.6669921875 295.333007812 50 296 c 0
 38 325 l 0
 46 345.666992188 58.6669921875 364.666992188 76 382 c 0
 93.3330078125 399.333007812 113.666992188 414.5 137 427.5 c 0
 160.333007812 440.5 186 450.666992188 214 458 c 0
 242 465.333007812 270.666992188 469 300 469 c 0
 324 469 344.5 465.833007812 361.5 459.5 c 0
 378.5 453.166992188 392.5 444.5 403.5 433.5 c 0
 414.5 422.5 422.666992188 409.666992188 428 395 c 0
 433.333007812 380.333007812 436 364.666992188 436 348 c 0
 436 126 l 0
 436 112 437.833007812 102.166992188 441.5 96.5 c 0
 445.166992188 90.8330078125 450 88 456 88 c 0
 458 88 460.166992188 88.1669921875 462.5 88.5 c 0
 464.833007812 88.8330078125 467.666992188 89.5 471 90.5 c 0
 474.333007812 91.5 478.166992188 92.8330078125 482.5 94.5 c 0
 486.833007812 96.1669921875 492.333007812 98.3330078125 499 101 c 0
 511 60 l 0
211 78 m 0
 215.666992188 78 221 78.5 227 79.5 c 0
 233 80.5 239.666992188 82.6669921875 247 86 c 0
 254.333007812 89.3330078125 262.666992188 94.1669921875 272 100.5 c 0
 281.333007812 106.833007812 292 115 304 125 c 0
 304 228 l 0
 286.666992188 225.333007812 272.166992188 222.5 260.5 219.5 c 0
 248.833007812 216.5 238.833007812 213.666992188 230.5 211 c 0
 222.166992188 208.333007812 215.333007812 205.333007812 210 202 c 0
 204.666992188 198.666992188 200 195 196 191 c 0
 187.333007812 182.333007812 180.5 173.5 175.5 164.5 c 0
 170.5 155.5 168 144.333007812 168 131 c 0
 168 120.333007812 169.5 111.666992188 172.5 105 c 0
 175.5 98.3330078125 179 93 183 89 c 0
 187 85 191.666992188 82.1669921875 197 80.5 c 0
 202.333007812 78.8330078125 207 78 211 78 c 0
EndSplineSet
EndChar

StartChar: b
Encoding: 69 98 69
Width: 546
VWidth: 500
Flags: HW
LayerCount: 2
Fore
SplineSet
513 250 m 0
 513 231.333007812 509.166992188 211.833007812 501.5 191.5 c 0
 493.833007812 171.166992188 483.5 151.166992188 470.5 131.5 c 0
 457.5 111.833007812 442.333007812 93.1669921875 425 75.5 c 0
 407.666992188 57.8330078125 389.333007812 42.3330078125 370 29 c 0
 350.666992188 15.6669921875 330.5 5 309.5 -3 c 0
 288.5 -11 268.333007812 -15 249 -15 c 0
 239 -15 226.666992188 -13.3330078125 212 -10 c 0
 197.333007812 -6.6669921875 181.666992188 -2.1669921875 165 3.5 c 0
 148.333007812 9.1669921875 130.833007812 15.6669921875 112.5 23 c 0
 94.1669921875 30.3330078125 76.3330078125 38.3330078125 59 47 c 0
 59 613 l 0
 59 627.666992188 58.3330078125 639.166992188 57 647.5 c 0
 55.6669921875 655.833007812 53 662 49 666 c 0
 45 670 39.1669921875 672.666992188 31.5 674 c 0
 23.8330078125 675.333007812 13.3330078125 677 0 679 c 0
 0 718 l 0
 16.6669921875 720.666992188 32.3330078125 723.166992188 47 725.5 c 0
 61.6669921875 727.833007812 75.8330078125 730.5 89.5 733.5 c 0
 103.166992188 736.5 116.333007812 740 129 744 c 0
 141.666992188 748 154.333007812 752.333007812 167 757 c 0
 168.333007812 755.666992188 170.333007812 753.833007812 173 751.5 c 0
 175.666992188 749.166992188 178.333007812 746.666992188 181 744 c 0
 185 740 185 740 190 735 c 0
 190 404 l 0
 206 416 222 426.166992188 238 434.5 c 0
 254 442.833007812 269 449.5 283 454.5 c 0
 297 459.5 310.166992188 463.166992188 322.5 465.5 c 0
 334.833007812 467.833007812 345.666992188 469 355 469 c 0
 379.666992188 469 401.833007812 463.833007812 421.5 453.5 c 0
 441.166992188 443.166992188 457.666992188 428.333007812 471 409 c 0
 484.333007812 389.666992188 494.666992188 366.666992188 502 340 c 0
 509.333007812 313.333007812 513 283.333007812 513 250 c 0
391 204 m 0
 391 236.666992188 388.333007812 264 383 286 c 0
 377.666992188 308 370.166992188 325.833007812 360.5 339.5 c 0
 350.833007812 353.166992188 339.833007812 363 327.5 369 c 0
 315.166992188 375 301.666992188 378 287 378 c 0
 275.666992188 378 262.333007812 375.333007812 247 370 c 0
 231.666992188 364.666992188 212.666992188 355.333007812 190 342 c 0
 190 109 l 0
 216 96.3330078125 238 87.1669921875 256 81.5 c 0
 274 75.8330078125 287.333007812 73 296 73 c 0
 312 73 326 76.3330078125 338 83 c 0
 350 89.6669921875 359.833007812 98.8330078125 367.5 110.5 c 0
 375.166992188 122.166992188 381 136 385 152 c 0
 389 168 391 185.333007812 391 204 c 0
EndSplineSet
EndChar

StartChar: c
Encoding: 70 99 70
Width: 461
VWidth: 500
Flags: HW
LayerCount: 2
Fore
SplineSet
444 93 m 0
 422.666992188 69 402.833007812 50 384.5 36 c 0
 366.166992188 22 348.5 11.1669921875 331.5 3.5 c 0
 314.5 -4.1669921875 298.333007812 -9.1669921875 283 -11.5 c 0
 267.666992188 -13.8330078125 252.333007812 -15 237 -15 c 0
 209.666992188 -15 183.5 -9.6669921875 158.5 1 c 0
 133.5 11.6669921875 111.333007812 27 92 47 c 0
 72.6669921875 67 57.3330078125 91.3330078125 46 120 c 0
 34.6669921875 148.666992188 29 181 29 217 c 0
 29 252.333007812 35.5 285.166992188 48.5 315.5 c 0
 61.5 345.833007812 79.8330078125 372.333007812 103.5 395 c 0
 127.166992188 417.666992188 155.5 435.666992188 188.5 449 c 0
 221.5 462.333007812 258 469 298 469 c 0
 308.666992188 469 321.166992188 468 335.5 466 c 0
 349.833007812 464 363.833007812 461.333007812 377.5 458 c 0
 391.166992188 454.666992188 404 450.666992188 416 446 c 0
 428 441.333007812 436.666992188 436 442 430 c 0
 442 427.333007812 441.333007812 422.333007812 440 415 c 0
 438.666992188 407.666992188 436.833007812 399.166992188 434.5 389.5 c 0
 432.166992188 379.833007812 429.333007812 369.666992188 426 359 c 0
 422.666992188 348.333007812 419.5 338 416.5 328 c 0
 413.5 318 410.333007812 309.333007812 407 302 c 0
 403.666992188 294.666992188 401 289.666992188 399 287 c 0
 362 292 l 0
 356 311.333007812 349.666992188 328 343 342 c 0
 336.333007812 356 329.166992188 367.833007812 321.5 377.5 c 0
 313.833007812 387.166992188 305.166992188 394.166992188 295.5 398.5 c 0
 285.833007812 402.833007812 275.333007812 405 264 405 c 0
 250.666992188 405 237.833007812 402 225.5 396 c 0
 213.166992188 390 202.166992188 380.166992188 192.5 366.5 c 0
 182.833007812 352.833007812 175.166992188 335 169.5 313 c 0
 163.833007812 291 161 264 161 232 c 0
 161 206.666992188 164 184.166992188 170 164.5 c 0
 176 144.833007812 184.5 128.166992188 195.5 114.5 c 0
 206.5 100.833007812 219.333007812 90.5 234 83.5 c 0
 248.666992188 76.5 264.666992188 73 282 73 c 0
 291.333007812 73 300.333007812 73.6669921875 309 75 c 0
 317.666992188 76.3330078125 327.166992188 78.8330078125 337.5 82.5 c 0
 347.833007812 86.1669921875 359.166992188 91.6669921875 371.5 99 c 0
 383.833007812 106.333007812 398.666992188 115.666992188 416 127 c 0
 444 93 l 0
EndSplineSet
EndChar

StartChar: d
Encoding: 71 100 71
Width: 573
VWidth: 500
Flags: HW
LayerCount: 2
Fore
SplineSet
364 133 m 0
 364 341 l 0
 351.333007812 359.666992188 336.833007812 374.166992188 320.5 384.5 c 0
 304.166992188 394.833007812 285.333007812 400 264 400 c 0
 249.333007812 400 235.666992188 397.166992188 223 391.5 c 0
 210.333007812 385.833007812 199.5 376.833007812 190.5 364.5 c 0
 181.5 352.166992188 174.333007812 336.333007812 169 317 c 0
 163.666992188 297.666992188 161 274.333007812 161 247 c 0
 161 221.666992188 164 199.166992188 170 179.5 c 0
 176 159.833007812 184 143.166992188 194 129.5 c 0
 204 115.833007812 215.333007812 105.5 228 98.5 c 0
 240.666992188 91.5 253.666992188 88 267 88 c 0
 275 88 282.833007812 88.6669921875 290.5 90 c 0
 298.166992188 91.3330078125 305.833007812 93.8330078125 313.5 97.5 c 0
 321.166992188 101.166992188 329.166992188 105.833007812 337.5 111.5 c 0
 345.833007812 117.166992188 354.666992188 124.333007812 364 133 c 0
572 61 m 0
 557.333007812 51 541.666992188 41.3330078125 525 32 c 0
 508.333007812 22.6669921875 492.5 14.6669921875 477.5 8 c 0
 462.5 1.3330078125 449.333007812 -4.1669921875 438 -8.5 c 0
 426.666992188 -12.8330078125 419 -15 415 -15 c 0
 402.333007812 -15 392.333007812 -8 385 6 c 0
 377.666992188 20 372 40 368 66 c 0
 352 50.6669921875 337.666992188 37.8330078125 325 27.5 c 0
 312.333007812 17.1669921875 300.166992188 8.8330078125 288.5 2.5 c 0
 276.833007812 -3.8330078125 265 -8.3330078125 253 -11 c 0
 241 -13.6669921875 227.666992188 -15 213 -15 c 0
 189.666992188 -15 167 -9.6669921875 145 1 c 0
 123 11.6669921875 103.5 27 86.5 47 c 0
 69.5 67 55.6669921875 91.3330078125 45 120 c 0
 34.3330078125 148.666992188 29 181 29 217 c 0
 29 251 34.8330078125 283.166992188 46.5 313.5 c 0
 58.1669921875 343.833007812 74.6669921875 370.5 96 393.5 c 0
 117.333007812 416.5 142.666992188 434.833007812 172 448.5 c 0
 201.333007812 462.166992188 233.666992188 469 269 469 c 0
 284.333007812 469 299.5 467.166992188 314.5 463.5 c 0
 329.5 459.833007812 346 452 364 440 c 0
 364 603 l 0
 364 621 363.666992188 635.166992188 363 645.5 c 0
 362.333007812 655.833007812 360.166992188 663.833007812 356.5 669.5 c 0
 352.833007812 675.166992188 346.5 679.166992188 337.5 681.5 c 0
 328.5 683.833007812 315.333007812 685.666992188 298 687 c 0
 298 725 l 0
 317.333007812 726.333007812 335.833007812 728.333007812 353.5 731 c 0
 371.166992188 733.666992188 387.666992188 736.5 403 739.5 c 0
 418.333007812 742.5 432.166992188 745.5 444.5 748.5 c 0
 456.833007812 751.5 467.333007812 754.333007812 476 757 c 0
 496 737 l 0
 496 153 l 0
 496 141.666992188 496.166992188 132.166992188 496.5 124.5 c 0
 496.833007812 116.833007812 497.5 110.666992188 498.5 106 c 0
 499.5 101.333007812 500.666992188 97.8330078125 502 95.5 c 0
 503.333007812 93.1669921875 505 91.6669921875 507 91 c 0
 510 90 510 90 513 89 c 0
 515 88.3330078125 517.666992188 88.3330078125 521 89 c 0
 524.333007812 89.6669921875 528.833007812 90.8330078125 534.5 92.5 c 0
 540.166992188 94.1669921875 547.333007812 97 556 101 c 0
 572 61 l 0
EndSplineSet
EndChar

StartChar: e
Encoding: 72 101 72
Width: 491
VWidth: 500
Flags: HW
LayerCount: 2
Fore
SplineSet
462 267 m 0
 459.333007812 263.666992188 454.833007812 260 448.5 256 c 0
 442.166992188 252 435.5 248 428.5 244 c 0
 421.5 240 414.333007812 236.333007812 407 233 c 0
 399.666992188 229.666992188 393.666992188 227 389 225 c 0
 166 225 l 0
 166.666992188 202.333007812 169.833007812 181.666992188 175.5 163 c 0
 181.166992188 144.333007812 188.666992188 128.333007812 198 115 c 0
 207.333007812 101.666992188 219 91.3330078125 233 84 c 0
 247 76.6669921875 263 73 281 73 c 0
 291 73 301 73.6669921875 311 75 c 0
 321 76.3330078125 331.5 78.8330078125 342.5 82.5 c 0
 353.5 86.1669921875 366.166992188 91.8330078125 380.5 99.5 c 0
 394.833007812 107.166992188 411.666992188 117.333007812 431 130 c 0
 433 129.333007812 435.5 127.166992188 438.5 123.5 c 0
 441.5 119.833007812 444.333007812 116.166992188 447 112.5 c 0
 449.666992188 108.833007812 452.166992188 105.333007812 454.5 102 c 0
 456.833007812 98.6669921875 458.333007812 96.3330078125 459 95 c 0
 435.666992188 72.3330078125 415 54 397 40 c 0
 379 26 361.5 14.8330078125 344.5 6.5 c 0
 327.5 -1.8330078125 310.5 -7.5 293.5 -10.5 c 0
 276.5 -13.5 257.666992188 -15 237 -15 c 0
 208.333007812 -15 181.333007812 -9.3330078125 156 2 c 0
 130.666992188 13.3330078125 108.666992188 29.1669921875 90 49.5 c 0
 71.3330078125 69.8330078125 56.5 94.1669921875 45.5 122.5 c 0
 34.5 150.833007812 29 182.333007812 29 217 c 0
 29 261 37.1669921875 299.666992188 53.5 333 c 0
 69.8330078125 366.333007812 94.3330078125 395.333007812 127 420 c 0
 145 434 166.5 445.666992188 191.5 455 c 0
 216.5 464.333007812 243 469 271 469 c 0
 303 469 330.833007812 463.833007812 354.5 453.5 c 0
 378.166992188 443.166992188 398 428.833007812 414 410.5 c 0
 430 392.166992188 442 370.666992188 450 346 c 0
 458 321.333007812 462 295 462 267 c 0
252 408 m 0
 237.333007812 408 225 405.166992188 215 399.5 c 0
 205 393.833007812 196.666992188 385.5 190 374.5 c 0
 183.333007812 363.5 178.166992188 350.333007812 174.5 335 c 0
 170.833007812 319.666992188 168.333007812 302.333007812 167 283 c 0
 314 283 l 0
 321.333007812 283 326.333007812 284.333007812 329 287 c 0
 331.666992188 289.666992188 333 294.333007812 333 301 c 0
 333 311 331.666992188 322.166992188 329 334.5 c 0
 326.333007812 346.833007812 321.833007812 358.5 315.5 369.5 c 0
 309.166992188 380.5 300.666992188 389.666992188 290 397 c 0
 279.333007812 404.333007812 266.666992188 408 252 408 c 0
EndSplineSet
EndChar

StartChar: f
Encoding: 73 102 73
Width: 349
VWidth: 500
Flags: HW
LayerCount: 2
Fore
SplineSet
447 710 m 0
 447 706 445.333007812 701 442 695 c 0
 438.666992188 689 434.166992188 682.833007812 428.5 676.5 c 0
 422.833007812 670.166992188 416.833007812 663.666992188 410.5 657 c 0
 404.166992188 650.333007812 397.833007812 644.333007812 391.5 639 c 0
 385.166992188 633.666992188 379.166992188 629 373.5 625 c 0
 367.833007812 621 363.333007812 618.333007812 360 617 c 0
 344.666992188 638.333007812 329.833007812 653.5 315.5 662.5 c 0
 301.166992188 671.5 288.333007812 676 277 676 c 0
 268.333007812 676 260.666992188 673.5 254 668.5 c 0
 247.333007812 663.5 241.333007812 654.333007812 236 641 c 0
 230.666992188 627.666992188 226.666992188 609.333007812 224 586 c 0
 221.333007812 562.666992188 220 532.666992188 220 496 c 0
 220 454 l 0
 340 454 l 0
 359 435 l 0
 356.333007812 429 352.666992188 422.833007812 348 416.5 c 0
 343.333007812 410.166992188 338.833007812 404.166992188 334.5 398.5 c 0
 330.166992188 392.833007812 325.833007812 387.5 321.5 382.5 c 0
 317.166992188 377.5 313.666992188 373.666992188 311 371 c 0
 303.666992188 375 293.166992188 378.833007812 279.5 382.5 c 0
 265.833007812 386.166992188 246 388 220 388 c 0
 220 69 l 0
 220 67 221.5 65.1669921875 224.5 63.5 c 0
 227.5 61.8330078125 232.666992188 59.8330078125 240 57.5 c 0
 247.333007812 55.1669921875 257.166992188 52.6669921875 269.5 50 c 0
 281.833007812 47.3330078125 297.666992188 44.3330078125 317 41 c 0
 317 0 l 0
 24 0 l 0
 24 41 l 0
 46.6669921875 45 63 49.6669921875 73 55 c 0
 83 60.3330078125 88 65 88 69 c 0
 88 388 l 0
 32 388 l 0
 17 407 l 0
 55 454 l 0
 88 454 l 0
 88 469 l 0
 88 515 94.3330078125 555.5 107 590.5 c 0
 119.666992188 625.5 139.333007812 656.333007812 166 683 c 0
 179.333007812 696.333007812 192.666992188 707.5 206 716.5 c 0
 219.333007812 725.5 232.666992188 733.166992188 246 739.5 c 0
 259.333007812 745.833007812 272.333007812 750.333007812 285 753 c 0
 297.666992188 755.666992188 309.666992188 757 321 757 c 0
 337 757 352.5 755 367.5 751 c 0
 382.5 747 395.833007812 742.5 407.5 737.5 c 0
 419.166992188 732.5 428.666992188 727.333007812 436 722 c 0
 443.333007812 716.666992188 447 712.666992188 447 710 c 0
EndSplineSet
EndChar

StartChar: g
Encoding: 74 103 74
Width: 526
VWidth: 500
Flags: HW
LayerCount: 2
Fore
SplineSet
449 313 m 0
 449 287.666992188 443.666992188 264.666992188 433 244 c 0
 422.333007812 223.333007812 407.5 205.666992188 388.5 191 c 0
 369.5 176.333007812 347.666992188 164.833007812 323 156.5 c 0
 298.333007812 148.166992188 272 144 244 144 c 0
 238 144 l 0
 226.666992188 132.666992188 219.666992188 123.833007812 217 117.5 c 0
 214.333007812 111.166992188 213 107 213 105 c 0
 213 102.333007812 213.666992188 99.8330078125 215 97.5 c 0
 216.333007812 95.1669921875 220.5 92.6669921875 227.5 90 c 0
 234.5 87.3330078125 245 84.6669921875 259 82 c 0
 273 79.3330078125 292.666992188 76.3330078125 318 73 c 0
 357.333007812 67.6669921875 389.833007812 61.6669921875 415.5 55 c 0
 441.166992188 48.3330078125 461.666992188 40.3330078125 477 31 c 0
 492.333007812 21.6669921875 503 10.5 509 -2.5 c 0
 515 -15.5 518 -31 518 -49 c 0
 518 -63.6669921875 514.333007812 -78.5 507 -93.5 c 0
 499.666992188 -108.5 489.833007812 -123 477.5 -137 c 0
 465.166992188 -151 450.5 -164.166992188 433.5 -176.5 c 0
 416.5 -188.833007812 398.166992188 -199.666992188 378.5 -209 c 0
 358.833007812 -218.333007812 338.333007812 -225.666992188 317 -231 c 0
 295.666992188 -236.333007812 274 -239 252 -239 c 0
 234.666992188 -239 216.5 -238 197.5 -236 c 0
 178.5 -234 159.833007812 -230.666992188 141.5 -226 c 0
 123.166992188 -221.333007812 105.666992188 -215.5 89 -208.5 c 0
 72.3330078125 -201.5 57.8330078125 -193 45.5 -183 c 0
 33.1669921875 -173 23.3330078125 -161.833007812 16 -149.5 c 0
 8.6669921875 -137.166992188 5 -123 5 -107 c 0
 5 -99 6.8330078125 -91 10.5 -83 c 0
 14.1669921875 -75 20.3330078125 -66.3330078125 29 -57 c 0
 37.6669921875 -47.6669921875 49.8330078125 -37.6669921875 65.5 -27 c 0
 81.1669921875 -16.3330078125 101 -4.3330078125 125 9 c 0
 107 16.3330078125 93.1669921875 23.8330078125 83.5 31.5 c 0
 73.8330078125 39.1669921875 69 47 69 55 c 0
 69 63 76.5 75.8330078125 91.5 93.5 c 0
 106.5 111.166992188 130.666992188 131.333007812 164 154 c 0
 145.333007812 159.333007812 128.333007812 166.333007812 113 175 c 0
 97.6669921875 183.666992188 84.5 194 73.5 206 c 0
 62.5 218 54 231.333007812 48 246 c 0
 42 260.666992188 39 276.666992188 39 294 c 0
 39 318 45 340.666992188 57 362 c 0
 69 383.333007812 85.1669921875 401.833007812 105.5 417.5 c 0
 125.833007812 433.166992188 149.333007812 445.666992188 176 455 c 0
 202.666992188 464.333007812 231 469 261 469 c 0
 285 469 307.166992188 465.833007812 327.5 459.5 c 0
 347.833007812 453.166992188 366 444.333007812 382 433 c 0
 395.333007812 435 408.333007812 437.5 421 440.5 c 0
 433.666992188 443.5 445.666992188 446.833007812 457 450.5 c 0
 468.333007812 454.166992188 478.666992188 457.5 488 460.5 c 0
 497.333007812 463.5 505.333007812 466.333007812 512 469 c 0
 527 449 l 0
 526.333007812 445.666992188 525 441.5 523 436.5 c 0
 521 431.5 518.666992188 426.333007812 516 421 c 0
 513.333007812 415.666992188 510.5 410.166992188 507.5 404.5 c 0
 504.5 398.833007812 501.666992188 394.333007812 499 391 c 0
 488.333007812 389.666992188 477.5 388.166992188 466.5 386.5 c 0
 455.5 384.833007812 443.333007812 383.666992188 430 383 c 0
 442.666992188 361.666992188 449 338.333007812 449 313 c 0
277 -26 m 0
 245 -22 216 -16.6669921875 190 -10 c 0
 177.333007812 -19.3330078125 167.5 -27.8330078125 160.5 -35.5 c 0
 153.5 -43.1669921875 148.166992188 -50 144.5 -56 c 0
 140.833007812 -62 138.666992188 -67.6669921875 138 -73 c 0
 137.333007812 -78.3330078125 137 -83.3330078125 137 -88 c 0
 137 -98 140.666992188 -107.5 148 -116.5 c 0
 155.333007812 -125.5 165.833007812 -133.5 179.5 -140.5 c 0
 193.166992188 -147.5 209.333007812 -153.166992188 228 -157.5 c 0
 246.666992188 -161.833007812 267 -164 289 -164 c 0
 307 -164 322.5 -161.666992188 335.5 -157 c 0
 348.5 -152.333007812 359 -146.333007812 367 -139 c 0
 375 -131.666992188 381 -123.5 385 -114.5 c 0
 389 -105.5 391 -96 391 -86 c 0
 391 -80.6669921875 389.666992188 -75.3330078125 387 -70 c 0
 384.333007812 -64.6669921875 379 -59.1669921875 371 -53.5 c 0
 363 -47.8330078125 351.5 -42.6669921875 336.5 -38 c 0
 321.5 -33.3330078125 301.666992188 -29.3330078125 277 -26 c 0
322 293 m 0
 322 309 320.166992188 324.166992188 316.5 338.5 c 0
 312.833007812 352.833007812 307.166992188 365.333007812 299.5 376 c 0
 291.833007812 386.666992188 282.333007812 395 271 401 c 0
 259.666992188 407 246.666992188 410 232 410 c 0
 224 410 216.166992188 408.166992188 208.5 404.5 c 0
 200.833007812 400.833007812 193.833007812 395.333007812 187.5 388 c 0
 181.166992188 380.666992188 176 371.5 172 360.5 c 0
 168 349.5 166 336.666992188 166 322 c 0
 166 306 167.666992188 290.833007812 171 276.5 c 0
 174.333007812 262.166992188 179.666992188 249.833007812 187 239.5 c 0
 194.333007812 229.166992188 203.666992188 220.833007812 215 214.5 c 0
 226.333007812 208.166992188 240 205 256 205 c 0
 265.333007812 205 274 206.833007812 282 210.5 c 0
 290 214.166992188 297 219.5 303 226.5 c 0
 309 233.5 313.666992188 242.666992188 317 254 c 0
 320.333007812 265.333007812 322 278.333007812 322 293 c 0
EndSplineSet
EndChar

StartChar: h
Encoding: 75 104 75
Width: 590
VWidth: 500
Flags: HW
LayerCount: 2
Fore
SplineSet
322 0 m 0
 322 41 l 0
 345.333007812 47 361.833007812 52.1669921875 371.5 56.5 c 0
 381.166992188 60.8330078125 386 65.3330078125 386 70 c 0
 386 270 l 0
 386 290 385 306.5 383 319.5 c 0
 381 332.5 377.833007812 342.833007812 373.5 350.5 c 0
 369.166992188 358.166992188 363.666992188 363.5 357 366.5 c 0
 350.333007812 369.5 342.333007812 371 333 371 c 0
 324.333007812 371 315.833007812 370 307.5 368 c 0
 299.166992188 366 290.5 363.166992188 281.5 359.5 c 0
 272.5 355.833007812 262.666992188 351.166992188 252 345.5 c 0
 241.333007812 339.833007812 229.666992188 333.666992188 217 327 c 0
 217 70 l 0
 217 65.3330078125 222.333007812 60.3330078125 233 55 c 0
 243.666992188 49.6669921875 259.666992188 45 281 41 c 0
 281 0 l 0
 22 0 l 0
 22 41 l 0
 43.3330078125 46.3330078125 59.1669921875 51.1669921875 69.5 55.5 c 0
 79.8330078125 59.8330078125 85 64.6669921875 85 70 c 0
 85 614 l 0
 85 628 84.6669921875 638.833007812 84 646.5 c 0
 83.3330078125 654.166992188 81 660 77 664 c 0
 73 668 66.6669921875 671 58 673 c 0
 49.3330078125 675 37.3330078125 677 22 679 c 0
 22 718 l 0
 42 720.666992188 59.8330078125 723.166992188 75.5 725.5 c 0
 91.1669921875 727.833007812 105.666992188 730.666992188 119 734 c 0
 132.333007812 737.333007812 145 740.833007812 157 744.5 c 0
 169 748.166992188 181.333007812 752.333007812 194 757 c 0
 217 735 l 0
 217 397 l 0
 237 410.333007812 256 421.666992188 274 431 c 0
 292 440.333007812 309 447.666992188 325 453 c 0
 341 458.333007812 356 462.333007812 370 465 c 0
 384 467.666992188 397.333007812 469 410 469 c 0
 424 469 437.5 466.666992188 450.5 462 c 0
 463.5 457.333007812 475 449.833007812 485 439.5 c 0
 495 429.166992188 503 415.666992188 509 399 c 0
 515 382.333007812 518 361.666992188 518 337 c 0
 518 70 l 0
 518 68 518.833007812 66 520.5 64 c 0
 522.166992188 62 525.333007812 59.8330078125 530 57.5 c 0
 534.666992188 55.1669921875 541.166992188 52.5 549.5 49.5 c 0
 557.833007812 46.5 568.333007812 43.6669921875 581 41 c 0
 581 0 l 0
 322 0 l 0
EndSplineSet
EndChar

StartChar: i
Encoding: 76 105 76
Width: 310
VWidth: 500
Flags: HW
LayerCount: 2
Fore
SplineSet
244 616 m 0
 244 604 241.666992188 593.333007812 237 584 c 0
 232.333007812 574.666992188 226 566.666992188 218 560 c 0
 210 553.333007812 200.5 548.166992188 189.5 544.5 c 0
 178.5 540.833007812 166.666992188 539 154 539 c 0
 144 539 134.5 540 125.5 542 c 0
 116.5 544 108.5 547.5 101.5 552.5 c 0
 94.5 557.5 88.8330078125 563.5 84.5 570.5 c 0
 80.1669921875 577.5 78 586 78 596 c 0
 78 608 80.3330078125 618.666992188 85 628 c 0
 89.6669921875 637.333007812 96.1669921875 645.166992188 104.5 651.5 c 0
 112.833007812 657.833007812 122.333007812 662.833007812 133 666.5 c 0
 143.666992188 670.166992188 155.333007812 672 168 672 c 0
 177.333007812 672 186.666992188 671 196 669 c 0
 205.333007812 667 213.5 663.666992188 220.5 659 c 0
 227.5 654.333007812 233.166992188 648.5 237.5 641.5 c 0
 241.833007812 634.5 244 626 244 616 c 0
29 0 m 0
 29 41 l 0
 51 45.6669921875 67.1669921875 50.5 77.5 55.5 c 0
 87.8330078125 60.5 93 65.3330078125 93 70 c 0
 93 312 l 0
 93 328.666992188 92.8330078125 342.166992188 92.5 352.5 c 0
 92.1669921875 362.833007812 90.3330078125 370.833007812 87 376.5 c 0
 83.6669921875 382.166992188 77.5 386.333007812 68.5 389 c 0
 59.5 391.666992188 46.3330078125 394 29 396 c 0
 29 435 l 0
 59.6669921875 439 87.8330078125 443.666992188 113.5 449 c 0
 139.166992188 454.333007812 164 461 188 469 c 0
 225 469 l 0
 225 70 l 0
 225 66 229.5 61.1669921875 238.5 55.5 c 0
 247.5 49.8330078125 264 45 288 41 c 0
 288 0 l 0
 29 0 l 0
EndSplineSet
EndChar

StartChar: j
Encoding: 77 106 77
Width: 297
VWidth: 500
Flags: HW
LayerCount: 2
Fore
SplineSet
244 616 m 0
 244 604 241.666992188 593.333007812 237 584 c 0
 232.333007812 574.666992188 226 566.666992188 218 560 c 0
 210 553.333007812 200.5 548.166992188 189.5 544.5 c 0
 178.5 540.833007812 166.666992188 539 154 539 c 0
 144 539 134.5 540 125.5 542 c 0
 116.5 544 108.5 547.5 101.5 552.5 c 0
 94.5 557.5 88.8330078125 563.5 84.5 570.5 c 0
 80.1669921875 577.5 78 586 78 596 c 0
 78 608 80.3330078125 618.666992188 85 628 c 0
 89.6669921875 637.333007812 96.1669921875 645.166992188 104.5 651.5 c 0
 112.833007812 657.833007812 122.333007812 662.833007812 133 666.5 c 0
 143.666992188 670.166992188 155.333007812 672 168 672 c 0
 177.333007812 672 186.666992188 671 196 669 c 0
 205.333007812 667 213.5 663.666992188 220.5 659 c 0
 227.5 654.333007812 233.166992188 648.5 237.5 641.5 c 0
 241.833007812 634.5 244 626 244 616 c 0
222 53 m 0
 222 15.6669921875 218.333007812 -15.8330078125 211 -41.5 c 0
 203.666992188 -67.1669921875 194.333007812 -88.8330078125 183 -106.5 c 0
 171.666992188 -124.166992188 159.166992188 -139.166992188 145.5 -151.5 c 0
 131.833007812 -163.833007812 118.333007812 -175.333007812 105 -186 c 0
 96.3330078125 -192.666992188 86.5 -199.166992188 75.5 -205.5 c 0
 64.5 -211.833007812 53 -217.5 41 -222.5 c 0
 29 -227.5 17.1669921875 -231.5 5.5 -234.5 c 0
 -6.1669921875 -237.5 -16.6669921875 -239 -26 -239 c 0
 -40 -239 -54.3330078125 -237.333007812 -69 -234 c 0
 -83.6669921875 -230.666992188 -97.1669921875 -226.333007812 -109.5 -221 c 0
 -121.833007812 -215.666992188 -131.833007812 -210.333007812 -139.5 -205 c 0
 -147.166992188 -199.666992188 -151 -195 -151 -191 c 0
 -151 -187.666992188 -149.333007812 -183.333007812 -146 -178 c 0
 -142.666992188 -172.666992188 -138.166992188 -166.833007812 -132.5 -160.5 c 0
 -126.833007812 -154.166992188 -120.5 -148 -113.5 -142 c 0
 -106.5 -136 -99.5 -130.333007812 -92.5 -125 c 0
 -85.5 -119.666992188 -79.1669921875 -114.833007812 -73.5 -110.5 c 0
 -67.8330078125 -106.166992188 -63.3330078125 -103.666992188 -60 -103 c 0
 -54.6669921875 -109.666992188 -48 -115.833007812 -40 -121.5 c 0
 -32 -127.166992188 -23.6669921875 -132 -15 -136 c 0
 -6.3330078125 -140 2 -143.166992188 10 -145.5 c 0
 18 -147.833007812 25.3330078125 -149 32 -149 c 0
 40 -149 47.5 -146.833007812 54.5 -142.5 c 0
 61.5 -138.166992188 67.6669921875 -129.833007812 73 -117.5 c 0
 78.3330078125 -105.166992188 82.5 -88 85.5 -66 c 0
 88.5 -44 90 -15 90 21 c 0
 90 312 l 0
 90 328.666992188 89.8330078125 342.166992188 89.5 352.5 c 0
 89.1669921875 362.833007812 87.3330078125 370.833007812 84 376.5 c 0
 80.6669921875 382.166992188 74.5 386.333007812 65.5 389 c 0
 56.5 391.666992188 43.6669921875 394 27 396 c 0
 27 435 l 0
 45.6669921875 437 61.6669921875 439.166992188 75 441.5 c 0
 88.3330078125 443.833007812 100.833007812 446.333007812 112.5 449 c 0
 124.166992188 451.666992188 135.666992188 454.5 147 457.5 c 0
 158.333007812 460.5 171 464.333007812 185 469 c 0
 222 469 l 0
 222 53 l 0
EndSplineSet
EndChar

StartChar: k
Encoding: 78 107 78
Width: 568
VWidth: 500
Flags: HW
LayerCount: 2
Fore
SplineSet
22 0 m 0
 22 41 l 0
 43.3330078125 46.3330078125 59.1669921875 51.1669921875 69.5 55.5 c 0
 79.8330078125 59.8330078125 85 64.6669921875 85 70 c 0
 85 613 l 0
 85 627.666992188 84.5 639.166992188 83.5 647.5 c 0
 82.5 655.833007812 79.6669921875 662 75 666 c 0
 70.3330078125 670 63.8330078125 672.666992188 55.5 674 c 0
 47.1669921875 675.333007812 36 677 22 679 c 0
 22 718 l 0
 56.6669921875 722.666992188 88.1669921875 727.833007812 116.5 733.5 c 0
 144.833007812 739.166992188 170.666992188 747 194 757 c 0
 217 735 l 0
 217 261 l 0
 338 371 l 0
 348.666992188 381 355.666992188 388.666992188 359 394 c 0
 362.333007812 399.333007812 363 403.5 361 406.5 c 0
 359 409.5 355 411.5 349 412.5 c 0
 343 413.5 335.666992188 414 327 414 c 0
 327 454 l 0
 556 454 l 0
 556 414 l 0
 541.333007812 412.666992188 526.666992188 409 512 403 c 0
 497.333007812 397 482.666992188 388.666992188 468 378 c 0
 326 273 l 0
 500 79 l 0
 504.666992188 73.6669921875 509.166992188 69.5 513.5 66.5 c 0
 517.833007812 63.5 522.666992188 61.3330078125 528 60 c 0
 533.333007812 58.6669921875 539.333007812 58 546 58 c 0
 552.666992188 58 560.666992188 58.3330078125 570 59 c 0
 573 19 l 0
 563.666992188 17 552.666992188 14.5 540 11.5 c 0
 527.333007812 8.5 514.833007812 5.8330078125 502.5 3.5 c 0
 490.166992188 1.1669921875 479 -0.8330078125 469 -2.5 c 0
 459 -4.1669921875 452.333007812 -5 449 -5 c 0
 435 -5 423.166992188 -3 413.5 1 c 0
 403.833007812 5 395.333007812 11.6669921875 388 21 c 0
 217 251 l 0
 217 70 l 0
 217 67.3330078125 217.666992188 65.1669921875 219 63.5 c 0
 220.333007812 61.8330078125 222.666992188 59.8330078125 226 57.5 c 0
 229.333007812 55.1669921875 234.666992188 52.6669921875 242 50 c 0
 249.333007812 47.3330078125 259 44.3330078125 271 41 c 0
 271 0 l 0
 22 0 l 0
EndSplineSet
EndChar

StartChar: l
Encoding: 79 108 79
Width: 310
VWidth: 500
Flags: HW
LayerCount: 2
Fore
SplineSet
24 0 m 0
 24 41 l 0
 38 43 49.5 45.1669921875 58.5 47.5 c 0
 67.5 49.8330078125 74.5 52.3330078125 79.5 55 c 0
 84.5 57.6669921875 88 60.1669921875 90 62.5 c 0
 92 64.8330078125 93 67.3330078125 93 70 c 0
 93 613 l 0
 93 627.666992188 92.1669921875 639.166992188 90.5 647.5 c 0
 88.8330078125 655.833007812 85.8330078125 662 81.5 666 c 0
 77.1669921875 670 70.8330078125 672.666992188 62.5 674 c 0
 54.1669921875 675.333007812 43 677 29 679 c 0
 29 718 l 0
 47 720 63.6669921875 722.333007812 79 725 c 0
 94.3330078125 727.666992188 108.833007812 730.333007812 122.5 733 c 0
 136.166992188 735.666992188 149.5 739 162.5 743 c 0
 175.5 747 188.666992188 751.666992188 202 757 c 0
 225 735 l 0
 225 70 l 0
 225 67.3330078125 226 64.8330078125 228 62.5 c 0
 230 60.1669921875 233.666992188 57.6669921875 239 55 c 0
 244.333007812 52.3330078125 251.333007812 49.8330078125 260 47.5 c 0
 268.666992188 45.1669921875 279.666992188 43 293 41 c 0
 293 0 l 0
 24 0 l 0
EndSplineSet
EndChar

StartChar: m
Encoding: 80 109 80
Width: 856
VWidth: 500
Flags: HW
LayerCount: 2
Fore
SplineSet
594 0 m 0
 594 41 l 0
 606 43.6669921875 615.333007812 46.3330078125 622 49 c 0
 628.666992188 51.6669921875 634 54.3330078125 638 57 c 0
 642 59.6669921875 644.5 62 645.5 64 c 0
 646.5 66 647 68 647 70 c 0
 647 290 l 0
 647 310 646 325.666992188 644 337 c 0
 642 348.333007812 638.833007812 357 634.5 363 c 0
 630.166992188 369 624.833007812 372.666992188 618.5 374 c 0
 612.166992188 375.333007812 605 376 597 376 c 0
 585 376 570.5 373.166992188 553.5 367.5 c 0
 536.5 361.833007812 518 352 498 338 c 0
 498 70 l 0
 498 68 498.666992188 66 500 64 c 0
 501.333007812 62 504.166992188 59.8330078125 508.5 57.5 c 0
 512.833007812 55.1669921875 518.833007812 52.5 526.5 49.5 c 0
 534.166992188 46.5 544.333007812 43.6669921875 557 41 c 0
 557 0 l 0
 313 0 l 0
 313 41 l 0
 325 43.6669921875 334.5 46.3330078125 341.5 49 c 0
 348.5 51.6669921875 353.833007812 54.3330078125 357.5 57 c 0
 361.166992188 59.6669921875 363.5 62 364.5 64 c 0
 365.5 66 366 68 366 70 c 0
 366 290 l 0
 366 310 365.333007812 325.666992188 364 337 c 0
 362.666992188 348.333007812 360.333007812 357 357 363 c 0
 353.666992188 369 349 372.666992188 343 374 c 0
 337 375.333007812 329.666992188 376 321 376 c 0
 308.333007812 376 293.5 373.333007812 276.5 368 c 0
 259.5 362.666992188 239.666992188 352.666992188 217 338 c 0
 217 70 l 0
 217 65.3330078125 221.5 60.3330078125 230.5 55 c 0
 239.5 49.6669921875 254.666992188 45 276 41 c 0
 276 0 l 0
 22 0 l 0
 22 41 l 0
 43.3330078125 46.3330078125 59.1669921875 51.1669921875 69.5 55.5 c 0
 79.8330078125 59.8330078125 85 64.6669921875 85 70 c 0
 85 333 l 0
 85 346.333007812 84.6669921875 356.666992188 84 364 c 0
 83.3330078125 371.333007812 81 377 77 381 c 0
 73 385 66.6669921875 388 58 390 c 0
 49.3330078125 392 37.3330078125 394 22 396 c 0
 22 435 l 0
 40.6669921875 437 57.3330078125 439 72 441 c 0
 86.6669921875 443 100.5 445.333007812 113.5 448 c 0
 126.5 450.666992188 139 453.666992188 151 457 c 0
 163 460.333007812 175.333007812 464.333007812 188 469 c 0
 210 447 l 0
 215 403 l 0
 234.333007812 417 252 428.5 268 437.5 c 0
 284 446.5 298.666992188 453.166992188 312 457.5 c 0
 325.333007812 461.833007812 337.833007812 464.833007812 349.5 466.5 c 0
 361.166992188 468.166992188 373 469 385 469 c 0
 400.333007812 469 413.833007812 467 425.5 463 c 0
 437.166992188 459 447 454 455 448 c 0
 463 442 469.5 435.5 474.5 428.5 c 0
 479.5 421.5 483.333007812 414.666992188 486 408 c 0
 488 402 l 0
 508 416 526 427.5 542 436.5 c 0
 558 445.5 572.666992188 452.333007812 586 457 c 0
 599.333007812 461.666992188 612.166992188 464.833007812 624.5 466.5 c 0
 636.833007812 468.166992188 649 469 661 469 c 0
 676.333007812 469 691.166992188 466.666992188 705.5 462 c 0
 719.833007812 457.333007812 732.333007812 449.833007812 743 439.5 c 0
 753.666992188 429.166992188 762.333007812 415.666992188 769 399 c 0
 775.666992188 382.333007812 779 361.666992188 779 337 c 0
 779 70 l 0
 779 65.3330078125 784 60.8330078125 794 56.5 c 0
 804 52.1669921875 822 47 848 41 c 0
 848 0 l 0
 594 0 l 0
EndSplineSet
EndChar

StartChar: n
Encoding: 81 110 81
Width: 590
VWidth: 500
Flags: HW
LayerCount: 2
Fore
SplineSet
322 0 m 0
 322 41 l 0
 345.333007812 47 361.833007812 52.1669921875 371.5 56.5 c 0
 381.166992188 60.8330078125 386 65.3330078125 386 70 c 0
 386 280 l 0
 386 297.333007812 385.166992188 311.833007812 383.5 323.5 c 0
 381.833007812 335.166992188 379.166992188 344.5 375.5 351.5 c 0
 371.833007812 358.5 367 363.5 361 366.5 c 0
 355 369.5 347.333007812 371 338 371 c 0
 331.333007812 371 324.166992188 370.5 316.5 369.5 c 0
 308.833007812 368.5 300.333007812 366.333007812 291 363 c 0
 281.666992188 359.666992188 271 355.166992188 259 349.5 c 0
 247 343.833007812 233 336.333007812 217 327 c 0
 217 70 l 0
 217 65.3330078125 222.333007812 60.3330078125 233 55 c 0
 243.666992188 49.6669921875 259.666992188 45 281 41 c 0
 281 0 l 0
 22 0 l 0
 22 41 l 0
 43.3330078125 46.3330078125 59.1669921875 51.1669921875 69.5 55.5 c 0
 79.8330078125 59.8330078125 85 64.6669921875 85 70 c 0
 85 333 l 0
 85 345.666992188 84.8330078125 355.666992188 84.5 363 c 0
 84.1669921875 370.333007812 82.1669921875 376.166992188 78.5 380.5 c 0
 74.8330078125 384.833007812 68.6669921875 388 60 390 c 0
 51.3330078125 392 38.6669921875 394 22 396 c 0
 22 435 l 0
 38.6669921875 436.333007812 54.5 438 69.5 440 c 0
 84.5 442 98.5 444.5 111.5 447.5 c 0
 124.5 450.5 137.333007812 453.666992188 150 457 c 0
 162.666992188 460.333007812 175.333007812 464.333007812 188 469 c 0
 210 447 l 0
 215 394 l 0
 235.666992188 408 255 419.833007812 273 429.5 c 0
 291 439.166992188 308 446.833007812 324 452.5 c 0
 340 458.166992188 355.166992188 462.333007812 369.5 465 c 0
 383.833007812 467.666992188 397.333007812 469 410 469 c 0
 424 469 437.5 466.666992188 450.5 462 c 0
 463.5 457.333007812 475 449.833007812 485 439.5 c 0
 495 429.166992188 503 415.666992188 509 399 c 0
 515 382.333007812 518 361.666992188 518 337 c 0
 518 70 l 0
 518 68 518.833007812 66 520.5 64 c 0
 522.166992188 62 525.333007812 59.8330078125 530 57.5 c 0
 534.666992188 55.1669921875 541.166992188 52.5 549.5 49.5 c 0
 557.833007812 46.5 568.333007812 43.6669921875 581 41 c 0
 581 0 l 0
 322 0 l 0
EndSplineSet
EndChar

StartChar: o
Encoding: 82 111 82
Width: 532
VWidth: 500
Flags: HW
LayerCount: 2
Fore
SplineSet
503 237 m 0
 503 215 500 193.666992188 494 173 c 0
 488 152.333007812 479.666992188 132.666992188 469 114 c 0
 458.333007812 95.3330078125 445.333007812 78.1669921875 430 62.5 c 0
 414.666992188 46.8330078125 398 33.1669921875 380 21.5 c 0
 362 9.8330078125 342.5 0.8330078125 321.5 -5.5 c 0
 300.5 -11.8330078125 279 -15 257 -15 c 0
 222.333007812 -15 191 -9 163 3 c 0
 135 15 111.166992188 31.1669921875 91.5 51.5 c 0
 71.8330078125 71.8330078125 56.5 96.1669921875 45.5 124.5 c 0
 34.5 152.833007812 29 183.666992188 29 217 c 0
 29 238.333007812 31.6669921875 259.5 37 280.5 c 0
 42.3330078125 301.5 50.1669921875 321.333007812 60.5 340 c 0
 70.8330078125 358.666992188 83.3330078125 375.833007812 98 391.5 c 0
 112.666992188 407.166992188 129 420.666992188 147 432 c 0
 165 443.333007812 184.833007812 452.333007812 206.5 459 c 0
 228.166992188 465.666992188 251.333007812 469 276 469 c 0
 310 469 341 463.166992188 369 451.5 c 0
 397 439.833007812 421 423.666992188 441 403 c 0
 461 382.333007812 476.333007812 357.833007812 487 329.5 c 0
 497.666992188 301.166992188 503 270.333007812 503 237 c 0
364 212 m 0
 364 238 361.833007812 262.666992188 357.5 286 c 0
 353.166992188 309.333007812 346.666992188 329.833007812 338 347.5 c 0
 329.333007812 365.166992188 318.666992188 379.166992188 306 389.5 c 0
 293.333007812 399.833007812 278.666992188 405 262 405 c 0
 243.333007812 405 228 400.666992188 216 392 c 0
 204 383.333007812 194.5 371.166992188 187.5 355.5 c 0
 180.5 339.833007812 175.5 321.333007812 172.5 300 c 0
 169.5 278.666992188 168 255.666992188 168 231 c 0
 168 205 170.666992188 181 176 159 c 0
 181.333007812 137 188.333007812 117.833007812 197 101.5 c 0
 205.666992188 85.1669921875 216.333007812 72.3330078125 229 63 c 0
 241.666992188 53.6669921875 255.666992188 49 271 49 c 0
 289 49 304 52.5 316 59.5 c 0
 328 66.5 337.5 76.8330078125 344.5 90.5 c 0
 351.5 104.166992188 356.5 121.166992188 359.5 141.5 c 0
 362.5 161.833007812 364 185.333007812 364 212 c 0
EndSplineSet
EndChar

StartChar: p
Encoding: 83 112 83
Width: 568
VWidth: 500
Flags: HW
LayerCount: 2
Fore
SplineSet
540 245 m 0
 540 223 536.833007812 201.166992188 530.5 179.5 c 0
 524.166992188 157.833007812 516.166992188 137.5 506.5 118.5 c 0
 496.833007812 99.5 485.5 81.8330078125 472.5 65.5 c 0
 459.5 49.1669921875 445.833007812 35 431.5 23 c 0
 417.166992188 11 402.833007812 1.6669921875 388.5 -5 c 0
 374.166992188 -11.6669921875 360.666992188 -15 348 -15 c 0
 338.666992188 -15 329.5 -14 320.5 -12 c 0
 311.5 -10 301.833007812 -7 291.5 -3 c 0
 281.166992188 1 270 6.3330078125 258 13 c 0
 246 19.6669921875 232.333007812 28 217 38 c 0
 217 -164 l 0
 217 -169.333007812 223.166992188 -174.5 235.5 -179.5 c 0
 247.833007812 -184.5 269.333007812 -189.333007812 300 -194 c 0
 300 -234 l 0
 22 -234 l 0
 22 -194 l 0
 43.3330078125 -188.666992188 59.1669921875 -183.666992188 69.5 -179 c 0
 79.8330078125 -174.333007812 85 -169.333007812 85 -164 c 0
 85 333 l 0
 85 345 84.6669921875 354.833007812 84 362.5 c 0
 83.3330078125 370.166992188 81 376.333007812 77 381 c 0
 73 385.666992188 66.6669921875 389.166992188 58 391.5 c 0
 49.3330078125 393.833007812 37.3330078125 395.333007812 22 396 c 0
 22 435 l 0
 42.6669921875 437 60.5 439.166992188 75.5 441.5 c 0
 90.5 443.833007812 104.166992188 446.166992188 116.5 448.5 c 0
 128.833007812 450.833007812 140.5 453.666992188 151.5 457 c 0
 162.5 460.333007812 174.666992188 464.333007812 188 469 c 0
 210 447 l 0
 214 399 l 0
 232.666992188 413.666992188 249.666992188 425.5 265 434.5 c 0
 280.333007812 443.5 294.333007812 450.5 307 455.5 c 0
 319.666992188 460.5 331.166992188 464 341.5 466 c 0
 351.833007812 468 361.666992188 469 371 469 c 0
 393 469 414.166992188 464.666992188 434.5 456 c 0
 454.833007812 447.333007812 472.833007812 434 488.5 416 c 0
 504.166992188 398 516.666992188 374.833007812 526 346.5 c 0
 535.333007812 318.166992188 540 284.333007812 540 245 c 0
415 208 m 0
 415 240 411.833007812 266.833007812 405.5 288.5 c 0
 399.166992188 310.166992188 390.666992188 327.666992188 380 341 c 0
 369.333007812 354.333007812 357.333007812 363.833007812 344 369.5 c 0
 330.666992188 375.166992188 317.333007812 378 304 378 c 0
 298 378 292.833007812 377.833007812 288.5 377.5 c 0
 284.166992188 377.166992188 279.166992188 375.833007812 273.5 373.5 c 0
 267.833007812 371.166992188 260.666992188 367.5 252 362.5 c 0
 243.333007812 357.5 231.666992188 350.666992188 217 342 c 0
 217 114 l 0
 235 104 250.333007812 96.3330078125 263 91 c 0
 275.666992188 85.6669921875 286.666992188 81.6669921875 296 79 c 0
 305.333007812 76.3330078125 313.5 74.6669921875 320.5 74 c 0
 327.5 73.3330078125 334.666992188 73 342 73 c 0
 364 73 381.666992188 84.6669921875 395 108 c 0
 408.333007812 131.333007812 415 164.666992188 415 208 c 0
EndSplineSet
EndChar

StartChar: q
Encoding: 84 113 84
Width: 559
VWidth: 500
Flags: HW
LayerCount: 2
Fore
SplineSet
276 -234 m 0
 276 -194 l 0
 306.666992188 -189.333007812 328.166992188 -184.5 340.5 -179.5 c 0
 352.833007812 -174.5 359 -169.333007812 359 -164 c 0
 359 62 l 0
 343.666992188 47.3330078125 329.5 35.1669921875 316.5 25.5 c 0
 303.5 15.8330078125 290.833007812 8 278.5 2 c 0
 266.166992188 -4 253.5 -8.3330078125 240.5 -11 c 0
 227.5 -13.6669921875 213.333007812 -15 198 -15 c 0
 178.666992188 -15 159 -9.6669921875 139 1 c 0
 119 11.6669921875 101 27 85 47 c 0
 69 67 55.6669921875 91.3330078125 45 120 c 0
 34.3330078125 148.666992188 29 181 29 217 c 0
 29 245.666992188 32.3330078125 271 39 293 c 0
 45.6669921875 315 54.1669921875 334.166992188 64.5 350.5 c 0
 74.8330078125 366.833007812 86.1669921875 381 98.5 393 c 0
 110.833007812 405 122.666992188 414.666992188 134 422 c 0
 143.333007812 428 153.5 434 164.5 440 c 0
 175.5 446 186.833007812 451 198.5 455 c 0
 210.166992188 459 222 462.333007812 234 465 c 0
 246 467.666992188 257.666992188 469 269 469 c 0
 278.333007812 469 287.666992188 468.333007812 297 467 c 0
 306.333007812 465.666992188 315.666992188 463 325 459 c 0
 334.333007812 455 344.166992188 449.333007812 354.5 442 c 0
 364.833007812 434.666992188 376.333007812 425 389 413 c 0
 397.666992188 417 407 421.666992188 417 427 c 0
 427 432.333007812 436.666992188 437.5 446 442.5 c 0
 455.333007812 447.5 463.5 452.333007812 470.5 457 c 0
 477.5 461.666992188 482.666992188 465.666992188 486 469 c 0
 506 449 l 0
 503.333007812 438.333007812 500.666992188 427 498 415 c 0
 496 404.333007812 494.333007812 392 493 378 c 0
 491.666992188 364 491 349.666992188 491 335 c 0
 491 -164 l 0
 491 -166.666992188 492 -169.166992188 494 -171.5 c 0
 496 -173.833007812 499.333007812 -176.333007812 504 -179 c 0
 508.666992188 -181.666992188 515 -184.166992188 523 -186.5 c 0
 531 -188.833007812 541.333007812 -191.333007812 554 -194 c 0
 554 -234 l 0
 276 -234 l 0
262 88 m 0
 270 88 277.833007812 88.6669921875 285.5 90 c 0
 293.166992188 91.3330078125 300.833007812 93.8330078125 308.5 97.5 c 0
 316.166992188 101.166992188 324 105.833007812 332 111.5 c 0
 340 117.166992188 349 124.333007812 359 133 c 0
 359 337 l 0
 353.666992188 346.333007812 347 355 339 363 c 0
 331 371 322.333007812 377.666992188 313 383 c 0
 303.666992188 388.333007812 294.333007812 392.5 285 395.5 c 0
 275.666992188 398.5 267 400 259 400 c 0
 244.333007812 400 231 397.333007812 219 392 c 0
 207 386.666992188 196.666992188 378 188 366 c 0
 179.333007812 354 172.666992188 338.666992188 168 320 c 0
 163.333007812 301.333007812 161 278.333007812 161 251 c 0
 161 223 163.833007812 198.833007812 169.5 178.5 c 0
 175.166992188 158.166992188 182.666992188 141.333007812 192 128 c 0
 201.333007812 114.666992188 212 104.666992188 224 98 c 0
 236 91.3330078125 248.666992188 88 262 88 c 0
EndSplineSet
EndChar

StartChar: r
Encoding: 85 114 85
Width: 459
VWidth: 500
Flags: HW
LayerCount: 2
Fore
SplineSet
444 446 m 0
 446 444.666992188 447 440.166992188 447 432.5 c 0
 447 424.833007812 446 415.333007812 444 404 c 0
 442 392.666992188 439.666992188 380.166992188 437 366.5 c 0
 434.333007812 352.833007812 431.333007812 339.666992188 428 327 c 0
 424.666992188 314.333007812 421.333007812 302.5 418 291.5 c 0
 414.666992188 280.5 411.666992188 272.333007812 409 267 c 0
 368 267 l 0
 367.333007812 280.333007812 365.666992188 293.166992188 363 305.5 c 0
 360.333007812 317.833007812 356.833007812 328.833007812 352.5 338.5 c 0
 348.166992188 348.166992188 342.833007812 356 336.5 362 c 0
 330.166992188 368 322.666992188 371 314 371 c 0
 308 371 301.5 370.5 294.5 369.5 c 0
 287.5 368.5 280 365.333007812 272 360 c 0
 264 354.666992188 255.333007812 346.666992188 246 336 c 0
 236.666992188 325.333007812 227 310.333007812 217 291 c 0
 217 70 l 0
 217 65.3330078125 224 60.3330078125 238 55 c 0
 252 49.6669921875 274.333007812 45 305 41 c 0
 305 0 l 0
 22 0 l 0
 22 41 l 0
 64 51 85 60.6669921875 85 70 c 0
 85 320 l 0
 85 330.666992188 84.6669921875 339.666992188 84 347 c 0
 83.3330078125 354.333007812 82.6669921875 360.333007812 82 365 c 0
 81.3330078125 369.666992188 80.1669921875 373.333007812 78.5 376 c 0
 76.8330078125 378.666992188 75.3330078125 380.666992188 74 382 c 0
 72 384 69.8330078125 385.833007812 67.5 387.5 c 0
 65.1669921875 389.166992188 62.1669921875 390.5 58.5 391.5 c 0
 54.8330078125 392.5 50.1669921875 393.333007812 44.5 394 c 0
 38.8330078125 394.666992188 31.3330078125 395.333007812 22 396 c 0
 22 435 l 0
 42 437.666992188 59.1669921875 440 73.5 442 c 0
 87.8330078125 444 100.833007812 446.333007812 112.5 449 c 0
 124.166992188 451.666992188 135.833007812 454.5 147.5 457.5 c 0
 159.166992188 460.5 172.666992188 464.333007812 188 469 c 0
 210 447 l 0
 216 390 l 0
 224.666992188 400.666992188 234.666992188 410.833007812 246 420.5 c 0
 257.333007812 430.166992188 269.5 438.5 282.5 445.5 c 0
 295.5 452.5 309 458.166992188 323 462.5 c 0
 337 466.833007812 351 469 365 469 c 0
 378.333007812 469 391.833007812 466.833007812 405.5 462.5 c 0
 419.166992188 458.166992188 432 452.666992188 444 446 c 0
EndSplineSet
EndChar

StartChar: s
Encoding: 86 115 86
Width: 429
VWidth: 500
Flags: HW
LayerCount: 2
Fore
SplineSet
395 138 m 0
 395 114.666992188 391.5 94.8330078125 384.5 78.5 c 0
 377.5 62.1669921875 368.166992188 48.3330078125 356.5 37 c 0
 344.833007812 25.6669921875 331.666992188 16.6669921875 317 10 c 0
 302.333007812 3.3330078125 287.5 -1.8330078125 272.5 -5.5 c 0
 257.5 -9.1669921875 243 -11.6669921875 229 -13 c 0
 215 -14.3330078125 203 -15 193 -15 c 0
 181.666992188 -15 169.5 -14.1669921875 156.5 -12.5 c 0
 143.5 -10.8330078125 130.166992188 -8.5 116.5 -5.5 c 0
 102.833007812 -2.5 89.6669921875 1.1669921875 77 5.5 c 0
 64.3330078125 9.8330078125 52.6669921875 15 42 21 c 0
 40 21.6669921875 38.3330078125 27.5 37 38.5 c 0
 35.6669921875 49.5 35 62.6669921875 35 78 c 0
 35 93.3330078125 35.8330078125 109.5 37.5 126.5 c 0
 39.1669921875 143.5 41.6669921875 158.666992188 45 172 c 0
 90 167 l 0
 94 148.333007812 100 131.666992188 108 117 c 0
 116 102.333007812 125.166992188 90 135.5 80 c 0
 145.833007812 70 157.166992188 62.3330078125 169.5 57 c 0
 181.833007812 51.6669921875 194.666992188 49 208 49 c 0
 231.333007812 49 248 52.3330078125 258 59 c 0
 268 65.6669921875 273 78 273 96 c 0
 273 109.333007812 269.666992188 121.166992188 263 131.5 c 0
 256.333007812 141.833007812 247.666992188 151.5 237 160.5 c 0
 226.333007812 169.5 214 178 200 186 c 0
 186 194 171.666992188 201.666992188 157 209 c 0
 143 215.666992188 129.166992188 223.333007812 115.5 232 c 0
 101.833007812 240.666992188 89.5 250.166992188 78.5 260.5 c 0
 67.5 270.833007812 58.5 282.166992188 51.5 294.5 c 0
 44.5 306.833007812 41 321 41 337 c 0
 41 357 46.1669921875 375.166992188 56.5 391.5 c 0
 66.8330078125 407.833007812 80.6669921875 421.666992188 98 433 c 0
 115.333007812 444.333007812 134.833007812 453.166992188 156.5 459.5 c 0
 178.166992188 465.833007812 201 469 225 469 c 0
 239.666992188 469 254.5 468 269.5 466 c 0
 284.5 464 298.666992188 461.5 312 458.5 c 0
 325.333007812 455.5 337.666992188 451.666992188 349 447 c 0
 360.333007812 442.333007812 369.666992188 437 377 431 c 0
 379 429.666992188 379.5 423.833007812 378.5 413.5 c 0
 377.5 403.166992188 375.5 391.666992188 372.5 379 c 0
 369.5 366.333007812 365.833007812 353.833007812 361.5 341.5 c 0
 357.166992188 329.166992188 352.666992188 320 348 314 c 0
 310 318 l 0
 304.666992188 348.666992188 294.5 372.5 279.5 389.5 c 0
 264.5 406.5 245.333007812 415 222 415 c 0
 202.666992188 415 188 411.166992188 178 403.5 c 0
 168 395.833007812 163 385 163 371 c 0
 163 360.333007812 165.333007812 351.166992188 170 343.5 c 0
 174.666992188 335.833007812 181.833007812 328.333007812 191.5 321 c 0
 201.166992188 313.666992188 213 306.333007812 227 299 c 0
 241 291.666992188 257 283 275 273 c 0
 289 265.666992188 303.166992188 258 317.5 250 c 0
 331.833007812 242 344.833007812 232.666992188 356.5 222 c 0
 368.166992188 211.333007812 377.5 199.166992188 384.5 185.5 c 0
 391.5 171.833007812 395 156 395 138 c 0
EndSplineSet
EndChar

StartChar: t
Encoding: 87 116 87
Width: 378
VWidth: 500
Flags: HW
LayerCount: 2
Fore
SplineSet
369 82 m 0
 322.333007812 48.6669921875 283.833007812 24.1669921875 253.5 8.5 c 0
 223.166992188 -7.1669921875 199.333007812 -15 182 -15 c 0
 167.333007812 -15 153.333007812 -12.1669921875 140 -6.5 c 0
 126.666992188 -0.8330078125 115 7.8330078125 105 19.5 c 0
 95 31.1669921875 87.1669921875 45.5 81.5 62.5 c 0
 75.8330078125 79.5 73 99.6669921875 73 123 c 0
 73 388 l 0
 15 388 l 0
 0 407 l 0
 38 454 l 0
 73 454 l 0
 73 550 l 0
 185 630 l 0
 205 613 l 0
 205 454 l 0
 350 454 l 0
 369 435 l 0
 366.333007812 429 362.833007812 422.833007812 358.5 416.5 c 0
 354.166992188 410.166992188 349.666992188 404.166992188 345 398.5 c 0
 340.333007812 392.833007812 335.833007812 387.5 331.5 382.5 c 0
 327.166992188 377.5 323.333007812 373.666992188 320 371 c 0
 316 373 311 375 305 377 c 0
 299 379 292.333007812 380.833007812 285 382.5 c 0
 277.666992188 384.166992188 270.166992188 385.5 262.5 386.5 c 0
 254.833007812 387.5 247.333007812 388 240 388 c 0
 205 388 l 0
 205 169 l 0
 205 153 206 139.666992188 208 129 c 0
 210 118.333007812 212.833007812 109.5 216.5 102.5 c 0
 220.166992188 95.5 224.166992188 90.5 228.5 87.5 c 0
 232.833007812 84.5 237.666992188 83 243 83 c 0
 249 83 255 83.5 261 84.5 c 0
 267 85.5 273.833007812 87.5 281.5 90.5 c 0
 289.166992188 93.5 298.166992188 97.3330078125 308.5 102 c 0
 318.833007812 106.666992188 331 113 345 121 c 0
 369 82 l 0
EndSplineSet
EndChar

StartChar: u
Encoding: 88 117 88
Width: 573
VWidth: 500
Flags: HW
LayerCount: 2
Fore
SplineSet
571 60 m 0
 559 52 545.166992188 43.5 529.5 34.5 c 0
 513.833007812 25.5 498.5 17.5 483.5 10.5 c 0
 468.5 3.5 455.166992188 -2.5 443.5 -7.5 c 0
 431.833007812 -12.5 424 -15 420 -15 c 0
 414 -15 408.166992188 -14.1669921875 402.5 -12.5 c 0
 396.833007812 -10.8330078125 391.5 -7.3330078125 386.5 -2 c 0
 381.5 3.3330078125 377 11.1669921875 373 21.5 c 0
 369 31.8330078125 366 45.3330078125 364 62 c 0
 344 45.3330078125 326 31.8330078125 310 21.5 c 0
 294 11.1669921875 279.5 3.3330078125 266.5 -2 c 0
 253.5 -7.3330078125 241.666992188 -10.8330078125 231 -12.5 c 0
 220.333007812 -14.1669921875 209.666992188 -15 199 -15 c 0
 183.666992188 -15 168.5 -12.8330078125 153.5 -8.5 c 0
 138.5 -4.1669921875 125.166992188 3.6669921875 113.5 15 c 0
 101.833007812 26.3330078125 92.1669921875 41.6669921875 84.5 61 c 0
 76.8330078125 80.3330078125 73 105.333007812 73 136 c 0
 73 333 l 0
 73 348.333007812 72.8330078125 360.333007812 72.5 369 c 0
 72.1669921875 377.666992188 70.3330078125 384.166992188 67 388.5 c 0
 63.6669921875 392.833007812 58 395.833007812 50 397.5 c 0
 42 399.166992188 30.3330078125 400.666992188 15 402 c 0
 15 441 l 0
 33 442.333007812 49.3330078125 443.833007812 64 445.5 c 0
 78.6669921875 447.166992188 92.6669921875 449 106 451 c 0
 119.333007812 453 132.5 455.333007812 145.5 458 c 0
 158.5 460.666992188 172.333007812 464.333007812 187 469 c 0
 205 445 l 0
 205 168 l 0
 205 148.666992188 206.166992188 133.166992188 208.5 121.5 c 0
 210.833007812 109.833007812 214.166992188 100.666992188 218.5 94 c 0
 222.833007812 87.3330078125 228 83 234 81 c 0
 240 79 247 78 255 78 c 0
 260.333007812 78 266.666992188 78.6669921875 274 80 c 0
 281.333007812 81.3330078125 289.5 83.8330078125 298.5 87.5 c 0
 307.5 91.1669921875 317.333007812 96.1669921875 328 102.5 c 0
 338.666992188 108.833007812 350.666992188 117.333007812 364 128 c 0
 364 333 l 0
 364 347.666992188 363.5 359.333007812 362.5 368 c 0
 361.5 376.666992188 358.833007812 383.5 354.5 388.5 c 0
 350.166992188 393.5 343.833007812 396.833007812 335.5 398.5 c 0
 327.166992188 400.166992188 315.333007812 401.333007812 300 402 c 0
 300 441 l 0
 336 443.666992188 368 447.5 396 452.5 c 0
 424 457.5 450.666992188 463 476 469 c 0
 496 445 l 0
 496 144 l 0
 496 134 496.166992188 125.833007812 496.5 119.5 c 0
 496.833007812 113.166992188 497.333007812 108 498 104 c 0
 498.666992188 100 499.666992188 97 501 95 c 0
 502.333007812 93 504.333007812 91.3330078125 507 90 c 0
 509 88.6669921875 511.166992188 87.8330078125 513.5 87.5 c 0
 515.833007812 87.1669921875 518.666992188 87.3330078125 522 88 c 0
 525.333007812 88.6669921875 529.666992188 90.1669921875 535 92.5 c 0
 540.333007812 94.8330078125 547.333007812 97.6669921875 556 101 c 0
 571 60 l 0
EndSplineSet
EndChar

StartChar: v
Encoding: 89 118 89
Width: 512
VWidth: 500
Flags: HW
LayerCount: 2
Fore
SplineSet
507 414 m 0
 497 412 489.333007812 409.833007812 484 407.5 c 0
 478.666992188 405.166992188 474.333007812 402.833007812 471 400.5 c 0
 467.666992188 398.166992188 465.166992188 395.333007812 463.5 392 c 0
 461.833007812 388.666992188 460 384.666992188 458 380 c 0
 320 43 l 0
 317.333007812 35.6669921875 312.833007812 29 306.5 23 c 0
 300.166992188 17 292.833007812 11.6669921875 284.5 7 c 0
 276.166992188 2.3330078125 267.333007812 -1.8330078125 258 -5.5 c 0
 248.666992188 -9.1669921875 239.333007812 -12.3330078125 230 -15 c 0
 54 380 l 0
 52 384 49.8330078125 387.833007812 47.5 391.5 c 0
 45.1669921875 395.166992188 42.1669921875 398.333007812 38.5 401 c 0
 34.8330078125 403.666992188 30.3330078125 406 25 408 c 0
 19.6669921875 410 13 412 5 414 c 0
 5 454 l 0
 237 454 l 0
 237 414 l 0
 224.333007812 412.666992188 214.5 411 207.5 409 c 0
 200.5 407 195.5 404.666992188 192.5 402 c 0
 189.5 399.333007812 188 396.333007812 188 393 c 0
 188 389.666992188 189.333007812 385.333007812 192 380 c 0
 292 157 l 0
 386 380 l 0
 388 384.666992188 389.333007812 388.833007812 390 392.5 c 0
 390.666992188 396.166992188 389.666992188 399.166992188 387 401.5 c 0
 384.333007812 403.833007812 380.166992188 406 374.5 408 c 0
 368.833007812 410 360.666992188 412 350 414 c 0
 350 454 l 0
 507 454 l 0
 507 414 l 0
EndSplineSet
EndChar

StartChar: w
Encoding: 90 119 90
Width: 720
VWidth: 500
Flags: HW
LayerCount: 2
Fore
SplineSet
715 414 m 0
 706.333007812 412 699.166992188 409.833007812 693.5 407.5 c 0
 687.833007812 405.166992188 683.166992188 402.833007812 679.5 400.5 c 0
 675.833007812 398.166992188 673 395.666992188 671 393 c 0
 669 390.333007812 667.666992188 387 667 383 c 0
 559 29 l 0
 557 21.6669921875 552.833007812 15.5 546.5 10.5 c 0
 540.166992188 5.5 533.333007812 1.3330078125 526 -2 c 0
 518.666992188 -5.3330078125 511.333007812 -8 504 -10 c 0
 496.666992188 -12 491 -13.6669921875 487 -15 c 0
 359 256 l 0
 261 29 l 0
 258.333007812 21.6669921875 254 15.3330078125 248 10 c 0
 242 4.6669921875 235.5 0.3330078125 228.5 -3 c 0
 221.5 -6.3330078125 214.5 -8.8330078125 207.5 -10.5 c 0
 200.5 -12.1669921875 195 -13.6669921875 191 -15 c 0
 58 383 l 0
 56 389 50.6669921875 394.666992188 42 400 c 0
 33.3330078125 405.333007812 21 410 5 414 c 0
 5 454 l 0
 237 454 l 0
 237 414 l 0
 223.666992188 412.666992188 213.333007812 410.833007812 206 408.5 c 0
 198.666992188 406.166992188 193.333007812 403.5 190 400.5 c 0
 186.666992188 397.5 185 394.666992188 185 392 c 0
 185 389.333007812 185.333007812 386.333007812 186 383 c 0
 253 179 l 0
 369 454 l 0
 407 454 l 0
 529 179 l 0
 594 383 l 0
 595.333007812 386.333007812 596.166992188 389.5 596.5 392.5 c 0
 596.833007812 395.5 596 398.333007812 594 401 c 0
 592 403.666992188 588 406 582 408 c 0
 576 410 567.666992188 412 557 414 c 0
 557 454 l 0
 715 454 l 0
 715 414 l 0
EndSplineSet
EndChar

StartChar: x
Encoding: 91 120 91
Width: 527
VWidth: 500
Flags: HW
LayerCount: 2
Fore
SplineSet
266 0 m 0
 266 41 l 0
 274 41.6669921875 281.333007812 42.3330078125 288 43 c 0
 294.666992188 43.6669921875 299.666992188 45.5 303 48.5 c 0
 306.333007812 51.5 307.666992188 55.5 307 60.5 c 0
 306.333007812 65.5 303 72.3330078125 297 81 c 0
 233 170 l 0
 162 81 l 0
 155.333007812 72.3330078125 151.833007812 65.5 151.5 60.5 c 0
 151.166992188 55.5 153 51.6669921875 157 49 c 0
 161 46.3330078125 166.333007812 44.5 173 43.5 c 0
 179.666992188 42.5 187 41.6669921875 195 41 c 0
 195 0 l 0
 5 0 l 0
 5 41 l 0
 17 43 27 45.3330078125 35 48 c 0
 43 50.6669921875 50 53.8330078125 56 57.5 c 0
 62 61.1669921875 67.3330078125 65.3330078125 72 70 c 0
 76.6669921875 74.6669921875 80.6669921875 79.3330078125 84 84 c 0
 195 223 l 0
 88 372 l 0
 84 378 79.8330078125 383.333007812 75.5 388 c 0
 71.1669921875 392.666992188 66.1669921875 396.666992188 60.5 400 c 0
 54.8330078125 403.333007812 48 406.166992188 40 408.5 c 0
 32 410.833007812 22 412.666992188 10 414 c 0
 10 454 l 0
 264 454 l 0
 264 414 l 0
 254 413.333007812 246.166992188 412.166992188 240.5 410.5 c 0
 234.833007812 408.833007812 231 406.5 229 403.5 c 0
 227 400.5 227 396.666992188 229 392 c 0
 231 387.333007812 235 381 241 373 c 0
 288 307 l 0
 341 373 l 0
 347 381 351.166992188 387.333007812 353.5 392 c 0
 355.833007812 396.666992188 356.166992188 400.5 354.5 403.5 c 0
 352.833007812 406.5 349 408.666992188 343 410 c 0
 337 411.333007812 329 412.666992188 319 414 c 0
 319 454 l 0
 505 454 l 0
 505 414 l 0
 491.666992188 413.333007812 480.666992188 411.666992188 472 409 c 0
 463.333007812 406.333007812 455.833007812 403.333007812 449.5 400 c 0
 443.166992188 396.666992188 437.666992188 392.666992188 433 388 c 0
 428.333007812 383.333007812 423.666992188 378 419 372 c 0
 326 254 l 0
 447 84 l 0
 450.333007812 79.3330078125 454.166992188 74.6669921875 458.5 70 c 0
 462.833007812 65.3330078125 467.666992188 61 473 57 c 0
 478.333007812 53 484.833007812 49.5 492.5 46.5 c 0
 500.166992188 43.5 509.666992188 41.6669921875 521 41 c 0
 521 0 l 0
 266 0 l 0
EndSplineSet
EndChar

StartChar: y
Encoding: 92 121 92
Width: 512
VWidth: 500
Flags: HW
LayerCount: 2
Fore
SplineSet
507 414 m 0
 497 412 489 409.833007812 483 407.5 c 0
 477 405.166992188 472.166992188 402.833007812 468.5 400.5 c 0
 464.833007812 398.166992188 462 395.5 460 392.5 c 0
 458 389.5 456 385.333007812 454 380 c 0
 291 -35 l 0
 277 -71 261.833007812 -101.833007812 245.5 -127.5 c 0
 229.166992188 -153.166992188 211.833007812 -174.333007812 193.5 -191 c 0
 175.166992188 -207.666992188 155.833007812 -219.833007812 135.5 -227.5 c 0
 115.166992188 -235.166992188 94 -239 72 -239 c 0
 59.3330078125 -239 46.8330078125 -237.666992188 34.5 -235 c 0
 22.1669921875 -232.333007812 11 -229.333007812 1 -226 c 0
 -9 -222.666992188 -17.1669921875 -218.833007812 -23.5 -214.5 c 0
 -29.8330078125 -210.166992188 -33 -206.666992188 -33 -204 c 0
 -33 -200.666992188 -30 -194.333007812 -24 -185 c 0
 -18 -175.666992188 -10.8330078125 -166 -2.5 -156 c 0
 5.8330078125 -146 14.3330078125 -136.333007812 23 -127 c 0
 31.6669921875 -117.666992188 38.6669921875 -111.333007812 44 -108 c 0
 60.6669921875 -119.333007812 77.3330078125 -126.5 94 -129.5 c 0
 110.666992188 -132.5 125 -131.666992188 137 -127 c 0
 143 -125 149.166992188 -122.166992188 155.5 -118.5 c 0
 161.833007812 -114.833007812 168 -110 174 -104 c 0
 180 -98 186 -90.1669921875 192 -80.5 c 0
 198 -70.8330078125 204 -59 210 -45 c 0
 224 -11 l 0
 59 380 l 0
 55.6669921875 388.666992188 49.8330078125 395.5 41.5 400.5 c 0
 33.1669921875 405.5 21 410 5 414 c 0
 5 454 l 0
 237 454 l 0
 237 414 l 0
 224.333007812 412.666992188 214.833007812 411 208.5 409 c 0
 202.166992188 407 197.666992188 404.666992188 195 402 c 0
 192.333007812 399.333007812 191.333007812 396.333007812 192 393 c 0
 192.666992188 389.666992188 194.333007812 385.333007812 197 380 c 0
 291 157 l 0
 381 380 l 0
 383 384.666992188 384.5 388.833007812 385.5 392.5 c 0
 386.5 396.166992188 386.166992188 399.166992188 384.5 401.5 c 0
 382.833007812 403.833007812 379.166992188 406 373.5 408 c 0
 367.833007812 410 359.666992188 412 349 414 c 0
 349 454 l 0
 507 454 l 0
 507 414 l 0
EndSplineSet
EndChar

StartChar: z
Encoding: 93 122 93
Width: 477
VWidth: 500
Flags: HW
LayerCount: 2
Fore
SplineSet
439 175 m 0
 439 164.333007812 438.833007812 150.333007812 438.5 133 c 0
 438.166992188 115.666992188 437.833007812 98.1669921875 437.5 80.5 c 0
 437.166992188 62.8330078125 436.666992188 46.5 436 31.5 c 0
 435.333007812 16.5 434.333007812 6 433 0 c 0
 40 0 l 0
 27 22 l 0
 281 391 l 0
 168 391 l 0
 152.666992188 391 138.333007812 381.5 125 362.5 c 0
 111.666992188 343.5 100.666992188 315.333007812 92 278 c 0
 53 289 l 0
 67 462 l 0
 74.3330078125 460 80.8330078125 458.5 86.5 457.5 c 0
 92.1669921875 456.5 98.1669921875 455.666992188 104.5 455 c 0
 110.833007812 454.333007812 117.666992188 454 125 454 c 0
 437 454 l 0
 448 433 l 0
 193 63 l 0
 348 63 l 0
 354.666992188 63 360.166992188 66 364.5 72 c 0
 368.833007812 78 373 86.1669921875 377 96.5 c 0
 381 106.833007812 384.833007812 119.5 388.5 134.5 c 0
 392.166992188 149.5 396.333007812 166.333007812 401 185 c 0
 439 175 l 0
EndSplineSet
EndChar

StartChar: braceleft
Encoding: 94 123 94
Width: 354
VWidth: 500
Flags: HW
LayerCount: 2
Fore
SplineSet
345 739 m 0
 319.666992188 723 299.166992188 704.666992188 283.5 684 c 0
 267.833007812 663.333007812 260 642.333007812 260 621 c 0
 260 604.333007812 261.166992188 589.333007812 263.5 576 c 0
 267 556 267 556 270.5 536 c 0
 272.833007812 522.666992188 275 509.333007812 277 496 c 0
 279 482.666992188 280 467.666992188 280 451 c 0
 280 437 277.5 423.5 272.5 410.5 c 0
 267.5 397.5 260.666992188 385.166992188 252 373.5 c 0
 243.333007812 361.833007812 233 351.333007812 221 342 c 0
 209 332.666992188 196.333007812 325 183 319 c 0
 215.666992188 313 240 298.666992188 256 276 c 0
 272 253.333007812 280 224 280 188 c 0
 280 170.666992188 279 154.333007812 277 139 c 0
 275 123.666992188 272.833007812 108.833007812 270.5 94.5 c 0
 268.166992188 80.1669921875 265.833007812 66.1669921875 263.5 52.5 c 0
 261.166992188 38.8330078125 260 25 260 11 c 0
 260 -1 261 -12 263 -22 c 0
 265 -32 268.833007812 -41.5 274.5 -50.5 c 0
 280.166992188 -59.5 288.166992188 -68.3330078125 298.5 -77 c 0
 308.833007812 -85.6669921875 322.666992188 -94.6669921875 340 -104 c 0
 319 -154 l 0
 288.333007812 -142.666992188 260.666992188 -131.5 236 -120.5 c 0
 211.333007812 -109.5 190.5 -97 173.5 -83 c 0
 156.5 -69 143.5 -53.3330078125 134.5 -36 c 0
 125.5 -18.6669921875 121 1.6669921875 121 25 c 0
 121 41.6669921875 122 57.1669921875 124 71.5 c 0
 126 85.8330078125 128.166992188 100 130.5 114 c 0
 132.833007812 128 135.166992188 142.333007812 137.5 157 c 0
 139.833007812 171.666992188 141 188 141 206 c 0
 141 232.666992188 135.5 251 124.5 261 c 0
 113.5 271 98.3330078125 276 79 276 c 0
 69 276 l 0
 66 276 66 276 63.5 276 c 0
 61.8330078125 276 60 275.666992188 58 275 c 0
 56 274.333007812 52.3330078125 273.666992188 47 273 c 0
 39 319 l 0
 75 329 101 342.5 117 359.5 c 0
 133 376.5 141 397 141 421 c 0
 141 438.333007812 139.833007812 453.833007812 137.5 467.5 c 0
 135.166992188 481.166992188 132.833007812 494.333007812 130.5 507 c 0
 128.166992188 519.666992188 126 532.833007812 124 546.5 c 0
 122 560.166992188 121 575.666992188 121 593 c 0
 121 615 126.166992188 635.166992188 136.5 653.5 c 0
 146.833007812 671.833007812 161.166992188 688.666992188 179.5 704 c 0
 197.833007812 719.333007812 219.333007812 733.333007812 244 746 c 0
 268.666992188 758.666992188 295 770.333007812 323 781 c 0
 345 739 l 0
EndSplineSet
EndChar

StartChar: bar
Encoding: 95 124 95
Width: 229
VWidth: 500
Flags: HW
LayerCount: 2
Fore
SplineSet
166 -167 m 0
 163.333007812 -169.666992188 159.166992188 -172.5 153.5 -175.5 c 0
 147.833007812 -178.5 141.666992188 -181.333007812 135 -184 c 0
 128.333007812 -186.666992188 121.833007812 -189.333007812 115.5 -192 c 0
 109.166992188 -194.666992188 104 -196.666992188 100 -198 c 0
 78 -182 l 0
 78 787 l 0
 82.6669921875 789.666992188 87.8330078125 792.333007812 93.5 795 c 0
 102 799 102 799 110.5 803 c 0
 116.166992188 805.666992188 121.833007812 808 127.5 810 c 0
 133.166992188 812 138.666992188 813.666992188 144 815 c 0
 166 800 l 0
 166 -167 l 0
EndSplineSet
EndChar

StartChar: braceright
Encoding: 96 125 96
Width: 354
VWidth: 500
Flags: HW
LayerCount: 2
Fore
SplineSet
316 308 m 0
 280 298 254 284.5 238 267.5 c 0
 222 250.5 214 230 214 206 c 0
 214 188.666992188 215.166992188 173.166992188 217.5 159.5 c 0
 219.833007812 145.833007812 222.166992188 132.666992188 224.5 120 c 0
 226.833007812 107.333007812 229 94.1669921875 231 80.5 c 0
 233 66.8330078125 234 51.3330078125 234 34 c 0
 234 12 228.833007812 -8.1669921875 218.5 -26.5 c 0
 208.166992188 -44.8330078125 193.833007812 -61.6669921875 175.5 -77 c 0
 157.166992188 -92.3330078125 135.666992188 -106.333007812 111 -119 c 0
 86.3330078125 -131.666992188 60 -143.333007812 32 -154 c 0
 10 -112 l 0
 35.3330078125 -96 55.8330078125 -77.6669921875 71.5 -57 c 0
 87.1669921875 -36.3330078125 95 -15.3330078125 95 6 c 0
 95 22.6669921875 93.8330078125 37.6669921875 91.5 51 c 0
 88 71 88 71 84.5 91 c 0
 82.1669921875 104.333007812 80 117.666992188 78 131 c 0
 76 144.333007812 75 159.333007812 75 176 c 0
 75 190 77.5 203.5 82.5 216.5 c 0
 87.5 229.5 94.3330078125 241.833007812 103 253.5 c 0
 111.666992188 265.166992188 122 275.666992188 134 285 c 0
 146 294.333007812 158.666992188 302 172 308 c 0
 139.333007812 314 115 328.333007812 99 351 c 0
 83 373.666992188 75 403 75 439 c 0
 75 455.666992188 76 471.833007812 78 487.5 c 0
 80 503.166992188 82.1669921875 518.166992188 84.5 532.5 c 0
 86.8330078125 546.833007812 89.1669921875 560.833007812 91.5 574.5 c 0
 93.8330078125 588.166992188 95 602 95 616 c 0
 95 628 94 639 92 649 c 0
 90 659 86.1669921875 668.5 80.5 677.5 c 0
 74.8330078125 686.5 66.8330078125 695.333007812 56.5 704 c 0
 46.1669921875 712.666992188 32.3330078125 721.666992188 15 731 c 0
 36 781 l 0
 66.6669921875 769.666992188 94.3330078125 758.333007812 119 747 c 0
 143.666992188 735.666992188 164.5 723.166992188 181.5 709.5 c 0
 198.5 695.833007812 211.5 680.333007812 220.5 663 c 0
 229.5 645.666992188 234 625.333007812 234 602 c 0
 234 585.333007812 233 569.833007812 231 555.5 c 0
 229 541.166992188 226.833007812 527 224.5 513 c 0
 222.166992188 499 219.833007812 484.666992188 217.5 470 c 0
 215.166992188 455.333007812 214 439 214 421 c 0
 214 394.333007812 219.5 376 230.5 366 c 0
 241.5 356 256.666992188 351 276 351 c 0
 286 351 l 0
 289 351 289 351 291.5 351 c 0
 293.166992188 351 295 351.333007812 297 352 c 0
 299 352.666992188 302.666992188 353.333007812 308 354 c 0
 316 308 l 0
EndSplineSet
EndChar

StartChar: asciitilde
Encoding: 97 126 97
Width: 487
VWidth: 500
Flags: HW
LayerCount: 2
Fore
SplineSet
464 378 m 0
 457.333007812 362 448.666992188 345.5 438 328.5 c 0
 427.333007812 311.5 415.666992188 295.833007812 403 281.5 c 0
 390.333007812 267.166992188 376.5 255.5 361.5 246.5 c 0
 346.5 237.5 331.333007812 233 316 233 c 0
 302 233 287.5 237 272.5 245 c 0
 257.5 253 242 262 226 272 c 0
 210 282 194.333007812 291 179 299 c 0
 163.666992188 307 149 311 135 311 c 0
 119 311 104.166992188 304.666992188 90.5 292 c 0
 76.8330078125 279.333007812 63.3330078125 259.333007812 50 232 c 0
 24 245 l 0
 30.6669921875 261 39.3330078125 277.5 50 294.5 c 0
 60.6669921875 311.5 72.3330078125 327.166992188 85 341.5 c 0
 97.6669921875 355.833007812 111.333007812 367.5 126 376.5 c 0
 140.666992188 385.5 156 390 172 390 c 0
 186.666992188 390 202 386 218 378 c 0
 234 370 249.666992188 361 265 351 c 0
 280.333007812 341 295.5 332 310.5 324 c 0
 325.5 316 339.333007812 312 352 312 c 0
 367.333007812 312 382 318.333007812 396 331 c 0
 410 343.666992188 424 363.333007812 438 390 c 0
 464 378 l 0
EndSplineSet
EndChar

StartChar: inherent
Encoding: 98 -1 98
Width: 14
Flags: HW
LayerCount: 2
Fore
SplineSet
-121 803 m 1
 -96.3333333333 792.333333333 -74.5 767 -55.5 727 c 128
 -36.5 687 -27 647 -27 607 c 256
 -27 567 -36 535.333333333 -54 512 c 0
 -75.3333333333 485.333333333 -107.333333333 472 -150 472 c 2
 -290 472 l 1
 -290 581 l 1
 -194 581 l 2
 -162.666666667 581 -139.333333333 588.666666667 -124 604 c 128
 -108.666666667 619.333333333 -101 638.666666667 -101 662 c 256
 -101 685.333333333 -107.666666667 707.166666667 -121 727.5 c 128
 -134.333333333 747.833333333 -154 763.333333333 -180 774 c 1
 -160.666666667 781.333333333 -144.666666667 788.666666667 -132 796 c 0
 -130.666666667 796.666666667 -127 799 -121 803 c 1
-2 -1 m 1
 -1 -1 l 1
 -2 -1 l 1
-2 -1 m 1
 -1 -1 l 1
 -2 -1 l 1
EndSplineSet
EndChar

StartChar: makewide
Encoding: 99 -1 99
Width: 387
Flags: HW
LayerCount: 2
Fore
SplineSet
246 470 m 1
 274 448 295.833333333 415.833333333 311.5 373.5 c 128
 327.166666667 331.166666667 335 285.333333333 335 236 c 0
 335 167.333333333 318.666666667 111.333333333 286 68 c 0
 248 16.6666666667 193.666666667 -9 123 -9 c 0
 68.3333333333 -9 24.5 11.5 -8.5 52.5 c 128
 -41.5 93.5 -61.6666666667 145 -69 207 c 1
 -50 209 l 1
 -40.6666666667 189 -30.6666666667 174 -20 164 c 0
 14 132.666666667 64 117 130 117 c 0
 172.666666667 117 207.166666667 131.666666667 233.5 161 c 128
 259.833333333 190.333333333 273 225.333333333 273 266 c 0
 273 313.333333333 256 354.666666667 222 390 c 0
 182 432 124.333333333 459 49 471 c 1
 49 580 l 1
 244 580 l 1
 246 470 l 1
EndSplineSet
EndChar

StartChar: shortrr
Encoding: 100 -1 100
Width: 628
Flags: HW
LayerCount: 2
Fore
SplineSet
599 470 m 1
 201 470 l 2
 170.333333333 470 146.166666667 461.666666667 128.5 445 c 128
 110.833333333 428.333333333 102 409.333333333 102 388 c 0
 102 372.666666667 107 360 117 350 c 128
 127 340 142.666666667 335 164 335 c 2
 347 335 l 1
 347 221 l 1
 175 221 l 2
 151 221 132 214.5 118 201.5 c 128
 104 188.5 97 173.333333333 97 156 c 0
 97 120.666666667 116.333333333 103 155 103 c 0
 175 103 190.5 98 201.5 88 c 128
 212.5 78 218 66 218 52 c 0
 218 38.6666666667 212.666666667 26.6666666667 202 16 c 128
 191.333333333 5.33333333333 176.333333333 0 157 0 c 0
 132.333333333 0 107 11 81 33 c 0
 47.6666666667 61 31 95.3333333333 31 136 c 0
 31 176 42.6666666667 209.333333333 66 236 c 0
 82.6666666667 255.333333333 104 270 130 280 c 1
 98.6666666667 294 74.5 314.166666667 57.5 340.5 c 128
 40.5 366.833333333 32 395.333333333 32 426 c 0
 32 468 46.3333333333 503.333333333 75 532 c 0
 107.666666667 564 152 580 208 580 c 2
 599 580 l 1
 599 470 l 1
EndSplineSet
EndChar

StartChar: anusvara
Encoding: 101 3202 101
Width: 505
Flags: HW
LayerCount: 2
Fore
SplineSet
482 296 m 0
 482 196.666666667 459 119 413 63 c 1
 371 13 319.333333333 -12 258 -12 c 0
 198 -12 146.666666667 12 104 60 c 0
 56.6666666667 114 33 185.666666667 33 275 c 0
 33 365 52.3333333333 438.333333333 91 495 c 128
 129.666666667 551.666666667 183.666666667 580 253 580 c 0
 329 580 387 553 427 499 c 0
 463.666666667 449 482 381.333333333 482 296 c 0
435 283 m 0
 435 328.333333333 418.333333333 369.666666667 385 407 c 128
 351.666666667 444.333333333 309.333333333 463 258 463 c 0
 205.333333333 463 163 445.166666667 131 409.5 c 128
 99 373.833333333 83 331 83 281 c 0
 83 227 102 183.666666667 140 151 c 0
 174 121.666666667 215 107 263 107 c 0
 310.333333333 107 349.666666667 121.333333333 381 150 c 0
 416.333333333 182.666666667 434.333333333 227 435 283 c 0
EndSplineSet
EndChar

StartChar: u0C83
Encoding: 102 3203 102
Width: 281
Flags: HW
LayerCount: 2
Fore
SplineSet
247 456 m 1
 247 414 237.333333333 382.333333333 218 361 c 128
 198.666666667 339.666666667 174.333333333 329 145 329 c 256
 115.666666667 329 90.3333333333 339.666666667 69 361 c 0
 45 385 33 416.333333333 33 455 c 0
 33 489 42.3333333333 517.833333333 61 541.5 c 128
 79.6666666667 565.166666667 105.666666667 577 139 577 c 0
 174.333333333 577 201.5 565.666666667 220.5 543 c 128
 239.5 520.333333333 248.333333333 491.333333333 247 456 c 1
249 119 m 1
 249 78.3333333333 239.333333333 47.3333333333 220 26 c 128
 200.666666667 4.66666666667 176.333333333 -6 147 -6 c 256
 117.666666667 -6 92.3333333333 4.66666666667 71 26 c 0
 47 50 35 81 35 119 c 0
 35 152.333333333 44.3333333333 180.833333333 63 204.5 c 128
 81.6666666667 228.166666667 107.666666667 240 141 240 c 0
 176.333333333 240 203.5 228.666666667 222.5 206 c 128
 241.5 183.333333333 250.333333333 154.333333333 249 119 c 1
215 454 m 0
 215 468 208 478.833333333 194 486.5 c 128
 180 494.166666667 163 498 143 498 c 256
 123 498 106.833333333 494.5 94.5 487.5 c 128
 82.1666666667 480.5 76 469.333333333 76 454 c 0
 76 440 82.6666666667 429.166666667 96 421.5 c 128
 109.333333333 413.833333333 125.666666667 410 145 410 c 0
 163.666666667 410 180.166666667 413.833333333 194.5 421.5 c 128
 208.833333333 429.166666667 215.666666667 440 215 454 c 0
216 118 m 0
 216 132.666666667 209 143.833333333 195 151.5 c 128
 181 159.166666667 164 163 144 163 c 0
 124.666666667 163 108.5 159.166666667 95.5 151.5 c 128
 82.5 143.833333333 76 132.666666667 76 118 c 0
 76 107.333333333 80 98.3333333333 88 91 c 0
 100.666666667 79 119.333333333 73 144 73 c 0
 163.333333333 73 180 76.8333333333 194 84.5 c 128
 208 92.1666666667 215.333333333 103.333333333 216 118 c 0
EndSplineSet
EndChar

StartChar: avowel
Encoding: 103 3205 103
Width: 777
Flags: HW
LayerCount: 2
Fore
SplineSet
744 340 m 0
 744 230 706.666666667 142 632 76 c 0
 565.333333333 16.6666666667 483.666666667 -13 387 -13 c 256
 290.333333333 -13 209 17.3333333333 143 78 c 0
 69.6666666667 144.666666667 33 236.666666667 33 354 c 0
 33 417.333333333 47.3333333333 473 76 521 c 0
 108.666666667 575.666666667 152 603 206 603 c 0
 236.666666667 603 259.833333333 591.166666667 275.5 567.5 c 128
 291.166666667 543.833333333 299 515 299 481 c 0
 299 441 289.666666667 406.666666667 271 378 c 0
 249.666666667 345.333333333 222 329 188 329 c 0
 166.666666667 329 147.833333333 335.666666667 131.5 349 c 128
 115.166666667 362.333333333 102.333333333 381.333333333 93 406 c 1
 85 387.333333333 81 367.333333333 81 346 c 1
 87 268 120.666666667 206.666666667 182 162 c 0
 237.333333333 122 304.666666667 102 384 102 c 0
 468 102 539.666666667 124.333333333 599 169 c 0
 665 219 698 285 698 367 c 1
 694 403 l 1
 654 350 l 1
 330 350 l 1
 330 422 l 1
 490 422 l 1
 487.333333333 429.333333333 485.666666667 438.833333333 485 450.5 c 128
 484.333333333 462.166666667 484 468.666666667 484 470 c 0
 484 503.333333333 492.5 532 509.5 556 c 128
 526.5 580 551.666666667 592 585 592 c 0
 636.333333333 592 676.333333333 566 705 514 c 0
 731 466.666666667 744 408.666666667 744 340 c 0
585 497 m 1
 570.333333333 495.666666667 558.833333333 491.333333333 550.5 484 c 128
 542.166666667 476.666666667 537.333333333 466 536 452 c 1
 536 436.666666667 541.5 425.333333333 552.5 418 c 128
 563.5 410.666666667 576.666666667 407 592 407 c 0
 610.666666667 407 627 411.333333333 641 420 c 128
 655 428.666666667 662 440.333333333 662 455 c 0
 662 472.333333333 649.666666667 484.666666667 625 492 c 1
 617 493.333333333 603.666666667 495 585 497 c 1
202 517 m 1
 173.333333333 517 151 511.5 135 500.5 c 128
 119 489.5 111 478 111 466 c 0
 111 448.666666667 116 434 126 422 c 0
 140.666666667 405.333333333 162.333333333 397 191 397 c 0
 211 397 226.833333333 403.666666667 238.5 417 c 128
 250.166666667 430.333333333 256 445.666666667 256 463 c 256
 256 480.333333333 252.333333333 493.5 245 502.5 c 128
 237.666666667 511.5 223.333333333 516.333333333 202 517 c 1
EndSplineSet
EndChar

StartChar: aavowel
Encoding: 104 3206 104
Width: 777
Flags: HW
LayerCount: 2
Fore
SplineSet
708 214 m 1
 708 147.333333333 675.333333333 91.6666666667 610 47 c 128
 544.666666667 2.33333333333 469.666666667 -20 385 -20 c 0
 287 -20 206.333333333 8.33333333333 143 65 c 0
 69 131 32 226 32 350 c 0
 32 413.333333333 45.3333333333 468.666666667 72 516 c 0
 102.666666667 570.666666667 144.333333333 598 197 598 c 0
 231 598 256.5 586.333333333 273.5 563 c 128
 290.5 539.666666667 299 511 299 477 c 0
 299 437 289 402.333333333 269 373 c 0
 245.666666667 339.666666667 217 323 183 323 c 0
 156.333333333 323 134.666666667 333.166666667 118 353.5 c 128
 101.333333333 373.833333333 91.6666666667 399.666666667 89 431 c 1
 87.6666666667 423 86.6666666667 413.166666667 86 401.5 c 128
 85.3333333333 389.833333333 85 374 85 354 c 0
 85 268.666666667 117.666666667 203.333333333 183 158 c 0
 238.333333333 119.333333333 308 100 392 100 c 0
 460.666666667 100 520.833333333 113.166666667 572.5 139.5 c 128
 624.166666667 165.833333333 650 200 650 242 c 0
 650 258.666666667 647.666666667 272.833333333 643 284.5 c 128
 638.333333333 296.166666667 633.333333333 305 628 311 c 1
 618 308.333333333 602.166666667 306.666666667 580.5 306 c 128
 558.833333333 305.333333333 547.666666667 305 547 305 c 2
 324 305 l 1
 324 426 l 1
 539 426 l 1
 526.333333333 447.333333333 520 472.666666667 520 502 c 256
 520 531.333333333 527.666666667 555.666666667 543 575 c 128
 558.333333333 594.333333333 583 604 617 604 c 0
 660.333333333 604 693.166666667 591.166666667 715.5 565.5 c 128
 737.833333333 539.833333333 749 508 749 470 c 0
 749 442 742.833333333 415 730.5 389 c 128
 718.166666667 363 701 343 679 329 c 1
 687 318.333333333 694.166666667 303.666666667 700.5 285 c 128
 706.833333333 266.333333333 709.333333333 242.666666667 708 214 c 1
698 457 m 0
 698 467 694 472 686 472 c 0
 676 472 659.333333333 464.333333333 636 449 c 0
 628.666666667 444.333333333 618 436.666666667 604 426 c 1
 606.666666667 426 611.5 425.666666667 618.5 425 c 128
 625.5 424.333333333 631.666666667 424 637 424 c 0
 654.333333333 424 668.833333333 426.333333333 680.5 431 c 128
 692.166666667 435.666666667 698 444.333333333 698 457 c 0
206 498 m 1
 186 498 170 494.333333333 158 487 c 0
 154.666666667 485.666666667 150.666666667 482.333333333 146 477 c 1
 145.333333333 464.333333333 145.666666667 455 147 449 c 0
 153 429 169 419 195 419 c 0
 211.666666667 419 224.833333333 423.333333333 234.5 432 c 128
 244.166666667 440.666666667 249 451.333333333 249 464 c 0
 249 488 234.666666667 499.333333333 206 498 c 1
EndSplineSet
EndChar

StartChar: ivowel
Encoding: 105 3207 105
Width: 760
Flags: HW
LayerCount: 2
Fore
SplineSet
736 385 m 1
 736 351.666666667 728.333333333 318.666666667 713 286 c 1
 703.666666667 268.666666667 692 251.333333333 678 234 c 1
 679.333333333 226.666666667 680 220.666666667 680 216 c 0
 680 206 672.666666667 180.666666667 658 140 c 0
 650.666666667 120 647 104.666666667 647 94 c 0
 647 80 652.333333333 73 663 73 c 0
 670.333333333 73 677 77.6666666667 683 87 c 128
 689 96.3333333333 692 110.333333333 692 129 c 1
 732 100 l 1
 732 92.6666666667 731.666666667 84.3333333333 731 75 c 1
 731 50.3333333333 723.166666667 31.3333333333 707.5 18 c 128
 691.833333333 4.66666666667 672 -2 648 -2 c 0
 623.333333333 -2 602.5 5.33333333333 585.5 20 c 128
 568.5 34.6666666667 560 55.6666666667 560 83 c 0
 560 91 563.833333333 104 571.5 122 c 128
 579.166666667 140 586.666666667 157.333333333 594 174 c 1
 584 168.666666667 571.666666667 164 557 160 c 128
 542.333333333 156 527.666666667 154 513 154 c 0
 471.666666667 154 439.833333333 162.333333333 417.5 179 c 128
 395.166666667 195.666666667 384 216.333333333 384 241 c 256
 384 265.666666667 395 286.333333333 417 303 c 0
 443 322.333333333 477.666666667 332 521 332 c 0
 552.333333333 332 580.333333333 326.666666667 605 316 c 0
 620.333333333 308.666666667 635 299 649 287 c 1
 657 292.333333333 664.166666667 302 670.5 316 c 128
 676.833333333 330 680 344 680 358 c 0
 680 389.333333333 668.333333333 415.166666667 645 435.5 c 128
 621.666666667 455.833333333 592 466 556 466 c 0
 524 466 492 456.5 460 437.5 c 128
 428 418.5 399 388.666666667 373 348 c 1
 362.333333333 376 352 396.333333333 342 409 c 0
 309.333333333 451 268 472 218 472 c 0
 184 472 155.166666667 462.5 131.5 443.5 c 128
 107.833333333 424.5 96 404 96 382 c 0
 96 362.666666667 105.166666667 346.833333333 123.5 334.5 c 128
 141.833333333 322.166666667 170.333333333 316 209 316 c 1
 210.333333333 311.333333333 212.166666667 305.5 214.5 298.5 c 128
 216.833333333 291.5 218 284.333333333 218 277 c 0
 218 267 215 258.666666667 209 252 c 128
 203 245.333333333 192.333333333 242 177 242 c 0
 133.666666667 242 99.1666666667 258.5 73.5 291.5 c 128
 47.8333333333 324.5 35 363.333333333 35 408 c 0
 35 457.333333333 48.6666666667 498.666666667 76 532 c 0
 107.333333333 570 151.333333333 589 208 589 c 0
 255.333333333 589 296 566.666666667 330 522 c 0
 340.666666667 507.333333333 353 485.333333333 367 456 c 1
 391.666666667 498 421.666666667 529.833333333 457 551.5 c 128
 492.333333333 573.166666667 528 584 564 584 c 0
 610.666666667 584 650.5 566.666666667 683.5 532 c 128
 716.5 497.333333333 734 448.333333333 736 385 c 1
609 261 m 1
 601.666666667 269.666666667 591.333333333 276.333333333 578 281 c 128
 564.666666667 285.666666667 550.333333333 288 535 288 c 0
 520.333333333 288 508.166666667 284.666666667 498.5 278 c 128
 488.833333333 271.333333333 484 264 484 256 c 0
 484 238.666666667 499.333333333 230 530 230 c 0
 544.666666667 230 559 232.5 573 237.5 c 128
 587 242.5 599 250.333333333 609 261 c 1
EndSplineSet
EndChar

